<svg id="Layer_1" data-name="Layer 1" xmlns="http://www.w3.org/2000/svg" viewBox="0 0 510.061 542.511"><defs><style>.cls-1{fill:#2c3b76;}</style></defs><rect class="cls-1" width="255.666" height="12.472"/><path class="cls-1" d="M205.866,122.662v542.51H359.184V122.662Zm35.561,518.133a10.029,10.029,0,0,1-10,10h-2.758a10.029,10.029,0,0,1-10-10V311.945a10.029,10.029,0,0,1,10-10h2.758a10.029,10.029,0,0,1,10,10Zm0-358.722a10.029,10.029,0,0,1-10,10h-2.758a10.029,10.029,0,0,1-10-10v-6.411a10.029,10.029,0,0,1,10-10h2.758a10.029,10.029,0,0,1,10,10Zm0-34.972a10.029,10.029,0,0,1-10,10h-2.758a10.029,10.029,0,0,1-10-10V145.133a10.029,10.029,0,0,1,10-10h2.758a10.029,10.029,0,0,1,10,10Zm37.594,393.694a10.029,10.029,0,0,1-10,10h-2.758a10.029,10.029,0,0,1-10-10V598.259a10.029,10.029,0,0,1,10-10h2.758a10.029,10.029,0,0,1,10,10Zm34.836,0a10.029,10.029,0,0,1-10,10H301.1a10.029,10.029,0,0,1-10-10v-6.41a10.029,10.029,0,0,1,10-10h2.758a10.029,10.029,0,0,1,10,10Z" transform="translate(-152.741 -122.662)"/><rect class="cls-1" y="529.742" width="145.714" height="12.472"/><circle class="cls-1" cx="275.286" cy="506.038" r="36.472"/><circle class="cls-1" cx="289.837" cy="451.046" r="14.552"/><circle class="cls-1" cx="223.831" cy="483.531" r="13.742"/><circle class="cls-1" cx="410.91" cy="443.359" r="99.152"/><circle class="cls-1" cx="243.655" cy="442.777" r="26.789"/><circle class="cls-1" cx="225.49" cy="527.809" r="14.702"/><circle class="cls-1" cx="327.174" cy="527.094" r="15.416"/></svg>