<?xml version="1.0" standalone="no"?>
<!DOCTYPE svg PUBLIC "-//W3C//DTD SVG 20010904//EN"
 "http://www.w3.org/TR/2001/REC-SVG-20010904/DTD/svg10.dtd">
<svg version="1.0" xmlns="http://www.w3.org/2000/svg"
 width="700.000000pt" height="700.000000pt" viewBox="0 0 700.000000 700.000000"
 preserveAspectRatio="xMidYMid meet">
<metadata>
Created by potrace 1.11, written by Peter Selinger 2001-2013
</metadata>
<g transform="translate(0.000000,700.000000) scale(0.100000,-0.100000)"
fill="#000000" stroke="none">
<path d="M3418 6835 c-1 -2 -21 -6 -42 -9 -111 -18 -241 -93 -355 -206 -81
-79 -201 -242 -233 -315 -7 -16 -15 -32 -18 -35 -9 -9 -67 -133 -105 -223 -56
-136 -130 -368 -176 -554 -23 -92 -42 -169 -43 -169 0 -1 -28 7 -61 17 -71 23
-425 114 -475 123 -19 3 -47 8 -62 11 -64 12 -85 15 -128 20 -25 3 -61 8 -80
11 -79 13 -387 12 -465 -1 -130 -22 -139 -24 -211 -50 -147 -55 -267 -148
-339 -260 -219 -341 -71 -803 435 -1360 25 -27 110 -113 189 -191 l144 -143
-154 -153 c-233 -231 -346 -362 -471 -550 -108 -160 -200 -359 -222 -478 -3
-19 -8 -46 -11 -60 -3 -14 -6 -66 -6 -115 -2 -330 214 -564 591 -642 76 -16
440 -28 440 -15 0 4 19 7 43 8 57 0 143 10 197 22 25 6 67 13 94 17 27 3 53 8
56 10 4 2 22 7 41 10 68 12 386 98 440 120 14 5 20 -11 39 -92 126 -547 320
-972 546 -1198 141 -141 290 -213 451 -221 227 -10 427 95 607 320 39 49 176
267 176 280 0 2 18 43 41 92 62 133 122 300 177 494 32 111 78 295 81 322 1 4
31 -2 69 -13 37 -11 74 -22 82 -24 111 -31 208 -57 220 -60 34 -8 162 -35 192
-40 18 -3 40 -8 48 -10 8 -2 35 -7 60 -10 24 -4 47 -8 50 -10 15 -9 207 -20
355 -19 117 0 197 6 257 17 478 94 694 460 543 923 -24 73 -122 268 -175 348
-120 181 -276 364 -494 579 l-149 148 144 142 c246 242 370 389 501 592 151
233 221 437 217 633 -2 109 -19 182 -61 267 -102 207 -304 332 -603 374 -87
12 -394 7 -495 -8 -90 -14 -158 -25 -205 -35 -143 -29 -253 -56 -389 -95
l-164 -47 -41 167 c-165 673 -422 1123 -730 1279 -88 44 -158 61 -263 65 -53
2 -98 2 -100 0z m118 -630 c67 -51 173 -228 243 -408 38 -94 90 -249 101 -297
5 -19 22 -87 39 -150 33 -128 40 -159 47 -210 l5 -35 -83 -34 c-46 -19 -130
-57 -188 -84 -58 -27 -127 -60 -155 -72 l-50 -23 -75 38 c-41 21 -109 52 -150
70 -41 18 -102 45 -135 60 -33 15 -70 30 -82 34 -27 9 -28 13 -7 108 8 40 17
81 19 90 23 110 115 410 150 493 86 201 154 322 223 395 26 27 51 50 56 50 5
0 24 -11 42 -25z m-1906 -1309 c19 -4 49 -9 65 -12 17 -3 46 -8 65 -11 61 -9
411 -100 500 -131 47 -16 84 -34 83 -40 -2 -6 -5 -37 -8 -69 -3 -32 -8 -71
-10 -88 -3 -27 -8 -80 -20 -220 -2 -22 -4 -57 -4 -78 -1 -46 8 -38 -226 -204
-99 -70 -181 -131 -183 -135 -8 -19 -36 -5 -89 45 -112 104 -260 254 -332 337
-40 47 -83 96 -95 110 -83 93 -215 322 -231 400 -3 19 -9 42 -11 51 -5 18 21
32 91 48 40 10 340 7 405 -3z m4180 -5 c62 -20 64 -23 51 -77 -31 -128 -151
-317 -336 -533 -65 -75 -368 -371 -386 -376 -12 -4 -57 23 -131 78 -62 46
-155 113 -207 148 -52 36 -95 71 -96 79 -2 15 -14 147 -20 225 -5 65 -16 167
-24 227 l-7 56 90 27 c304 92 455 127 671 156 81 10 352 4 395 -10z m-2270
-702 c19 -12 66 -38 105 -59 93 -49 356 -204 421 -247 l52 -34 0 -333 c1 -184
-2 -343 -5 -354 -3 -14 -67 -58 -189 -131 -101 -61 -185 -111 -187 -111 -2 0
-53 -27 -113 -61 -60 -33 -116 -61 -124 -61 -15 -1 -170 84 -375 204 -182 107
-234 141 -238 159 -3 10 -5 169 -5 354 l1 337 66 42 c105 67 538 315 551 316
3 0 21 -10 40 -21z m-1550 -1169 c41 -31 126 -92 188 -134 61 -43 113 -82 113
-87 1 -5 2 -12 3 -16 1 -5 6 -55 10 -113 5 -58 10 -112 11 -120 2 -8 6 -49 10
-90 4 -41 10 -94 15 -117 8 -49 5 -55 -35 -71 -72 -27 -379 -113 -455 -127
-35 -6 -100 -17 -105 -16 -2 0 -19 -4 -37 -9 -104 -30 -432 -35 -519 -8 -55
17 -57 19 -54 51 5 46 39 134 80 201 19 32 35 60 35 62 0 8 103 148 149 204
95 115 126 147 456 468 12 12 29 2 135 -78z m3196 38 c134 -123 335 -331 399
-413 21 -27 44 -54 50 -60 23 -20 134 -192 169 -260 45 -89 71 -185 53 -197
-37 -24 -103 -33 -252 -33 -203 1 -221 3 -543 71 -18 4 -162 45 -371 106 l-34
10 7 76 c4 42 9 91 11 107 7 55 28 290 28 323 0 6 90 76 199 153 109 78 201
145 204 150 11 18 35 8 80 -33z m-1575 -1002 c149 -70 231 -107 302 -136 l59
-24 -7 -45 c-16 -108 -105 -436 -150 -551 -7 -19 -23 -62 -36 -95 -30 -80 -98
-217 -142 -286 -38 -59 -120 -149 -136 -149 -26 0 -109 96 -168 195 -55 93
-141 304 -196 480 -32 101 -93 346 -102 405 l-6 45 148 65 c110 48 288 131
319 149 1 1 52 -23 115 -53z"/>
</g>
</svg>
