<svg id="undraw_launch_day_4e04" xmlns="http://www.w3.org/2000/svg" xmlns:xlink="http://www.w3.org/1999/xlink" width="732" height="701.72" viewBox="0 0 732 701.72">
  <defs>
    <linearGradient id="linear-gradient" x2="1" y2="1" gradientUnits="objectBoundingBox">
      <stop offset="0" stop-color="#13233d"/>
      <stop offset="1" stop-color="#060b18"/>
    </linearGradient>
    <linearGradient id="linear-gradient-2" x1="1.156" y1="-0.101" x2="0" y2="1.123" gradientUnits="objectBoundingBox">
      <stop offset="0" stop-color="#fe6a50"/>
      <stop offset="1" stop-color="#e25576"/>
    </linearGradient>
    <linearGradient id="linear-gradient-5" y1="0.5" x2="1" y2="0.5" gradientUnits="objectBoundingBox">
      <stop offset="0" stop-color="#fff"/>
      <stop offset="1" stop-color="#fff" stop-opacity="0.302"/>
    </linearGradient>
    <linearGradient id="linear-gradient-7" x1="1" y1="0" x2="0.328" y2="0.843" xlink:href="#linear-gradient-2"/>
  </defs>
  <path id="Path_124" data-name="Path 124" d="M780.28,439.256C687.875,579.079,644.415,742.72,476.816,742.72S173.351,606.854,173.351,439.256s151.44-232.909,303.464-303.464C970.6-93.376,987.041,126.393,780.28,439.256Z" transform="translate(-173.351 -41)" fill="url(#linear-gradient)"/>
  <circle id="Ellipse_33" data-name="Ellipse 33" cx="56.783" cy="56.783" r="56.783" transform="translate(517.565 24.045)" fill="#e6e6e6"/>
  <circle id="Ellipse_34" data-name="Ellipse 34" cx="6.516" cy="6.516" r="6.516" transform="translate(562.247 35.215)" fill="#cbcbcb"/>
  <circle id="Ellipse_35" data-name="Ellipse 35" cx="6.516" cy="6.516" r="6.516" transform="translate(573.417 100.376)" fill="#cbcbcb"/>
  <circle id="Ellipse_36" data-name="Ellipse 36" cx="4.654" cy="4.654" r="4.654" transform="translate(600.413 65.934)" fill="#cbcbcb"/>
  <circle id="Ellipse_37" data-name="Ellipse 37" cx="14.894" cy="14.894" r="14.894" transform="translate(537.113 70.589)" fill="#cbcbcb"/>
  <circle id="Ellipse_38" data-name="Ellipse 38" cx="9.309" cy="9.309" r="9.309" transform="translate(369.556 159.021)" fill="url(#linear-gradient-2)"/>
  <circle id="Ellipse_39" data-name="Ellipse 39" cx="9.309" cy="9.309" r="9.309" transform="translate(619.03 183.224)" fill="url(#linear-gradient-2)"/>
  <circle id="Ellipse_40" data-name="Ellipse 40" cx="5.585" cy="5.585" r="5.585" transform="translate(511.98 204.634)" fill="#e6e6e6"/>
  <circle id="Ellipse_41" data-name="Ellipse 41" cx="5.585" cy="5.585" r="5.585" transform="translate(81.917 380.569)" fill="#e6e6e6"/>
  <circle id="Ellipse_42" data-name="Ellipse 42" cx="5.585" cy="5.585" r="5.585" transform="translate(412.377 530.44)" fill="#e6e6e6"/>
  <path id="Path_125" data-name="Path 125" d="M587.992,438.242l-2.787,2.769-2.769-2.788-1.858,1.846,2.768,2.788-2.788,2.768,1.846,1.859,2.788-2.769,2.769,2.788,1.858-1.846-2.769-2.788,2.788-2.768Z" transform="translate(-82.527 -62.294)" fill="url(#linear-gradient-2)"/>
  <path id="Path_126" data-name="Path 126" d="M157.2,544.585l-2.788,2.768-2.768-2.788-1.859,1.846,2.769,2.788-2.788,2.768,1.846,1.859,2.787-2.769,2.769,2.788L159.025,552l-2.769-2.787,2.788-2.769Z" transform="translate(-21.289 -77.411)" fill="#e6e6e6"/>
  <path id="Path_127" data-name="Path 127" d="M183.241,355.773l-2.788,2.768-2.768-2.787-1.859,1.845,2.769,2.788-2.788,2.769,1.846,1.858,2.787-2.768,2.769,2.787,1.859-1.845L182.3,360.4l2.788-2.769Z" transform="translate(-24.991 -50.571)" fill="#e6e6e6"/>
  <path id="Path_128" data-name="Path 128" d="M750.761,155.025l-2.788,2.768-2.768-2.787-1.859,1.845,2.769,2.788-2.788,2.769,1.846,1.858,2.788-2.768,2.768,2.787,1.859-1.845-2.769-2.788,2.788-2.769Z" transform="translate(-105.665 -22.034)" fill="#e6e6e6"/>
  <path id="Path_129" data-name="Path 129" d="M494.672,245.09l-2.788,2.769-2.769-2.788-1.858,1.846,2.768,2.787-2.787,2.769,1.845,1.859,2.788-2.769,2.769,2.788,1.858-1.846-2.768-2.788,2.787-2.768Z" transform="translate(-69.262 -34.837)" fill="#e6e6e6"/>
  <path id="Path_130" data-name="Path 130" d="M691.52,432.6,719.8,399.486l28.284-33.112,15.967-18.692c.883-1.034-.48-2.648-1.363-1.614l-28.284,33.112-28.284,33.112-15.967,18.692C689.273,432.019,690.637,433.632,691.52,432.6Z" transform="translate(-246.775 -84.319)" opacity="0.8" fill="url(#linear-gradient-5)"/>
  <path id="Path_131" data-name="Path 131" d="M632.923,571.494l28.284-33.112,28.284-33.112,15.967-18.692c.883-1.034-.48-2.648-1.363-1.614L675.81,518.076l-28.284,33.112L631.56,569.88C630.677,570.914,632.04,572.528,632.923,571.494Z" transform="translate(-238.446 -104.063)" opacity="0.8" fill="url(#linear-gradient-5)"/>
  <path id="Path_132" data-name="Path 132" d="M293.526,331.322h53.06V352.2a13.563,13.563,0,0,1-13.563,13.563H307.09A13.563,13.563,0,0,1,293.526,352.2V331.322Z" transform="translate(-41.725 -47.098)" fill="#2f2e41"/>
  <path id="Path_133" data-name="Path 133" d="M531.145,649.722c-12.083,12.242-24.184,12.324-36.3.395L485.532,567.8l-6.516,82.483c-12.112,9.8-23.4,11.122-33.511.364-9.647-71.266-14.891-137.473-6.516-188.036L421.3,390.939l40.028-18.617c8.061,19.939-4.652,30.137,24.1,29.8,28.495-.338,26.366-11.057,25.241-29.8l36.822,14.162a13.2,13.2,0,0,1,7.846,16.29l-18.6,58.911C543.892,491.424,536.539,574.15,531.145,649.722Z" transform="translate(-208.598 -88.098)" fill="#e6e6e6"/>
  <path id="Path_134" data-name="Path 134" d="M477.775,766.44s-29.716,2.6-33.7.964h0q-.377-.155-.734-.338c-5.916-3.021-6.1-11.48-.567-15.161L454.5,744.1l-10.24-54.922,39.562.465Z" transform="translate(-211.08 -133.139)" fill="#2f2e41"/>
  <path id="Path_135" data-name="Path 135" d="M509.665,766.983s29.716,2.6,33.7.964h0q.377-.155.734-.338c5.916-3.021,6.1-11.48.567-15.161l-11.726-7.806,14.429-54.922H505.942Z" transform="translate(-220.629 -133.217)" fill="#2f2e41"/>
  <path id="Path_136" data-name="Path 136" d="M424.271,527.767l5.89,23.561a14.2,14.2,0,0,1-6.177,15.438h0A14.2,14.2,0,0,1,402.272,556.3L401,544.522l-4.654-111.911a47.077,47.077,0,0,1,29.046-43.487l9.12-3.781Z" transform="translate(-205.05 -89.949)" fill="#e6e6e6"/>
  <path id="Path_137" data-name="Path 137" d="M595.109,431.528l-.028.661L591.32,522.52l-.726,17.454-.14,3.463-1.275,11.776a14.2,14.2,0,1,1-27.889-4.971l5.892-23.56-.13-1.75-.782-10.947-9.327-129.726,9.123,3.779A47.146,47.146,0,0,1,595.109,431.528Z" transform="translate(-227.879 -89.795)" fill="#e6e6e6"/>
  <path id="Path_138" data-name="Path 138" d="M491.468,556.952c-33.814,0-54.672-11.727-54.967-11.9l.93-1.613c.415.24,42.248,23.705,103.709,3.365l.585,1.767a159.472,159.472,0,0,1-50.257,8.377Z" transform="translate(-210.758 -112.423)" fill="#2f2e41"/>
  <path id="Path_139" data-name="Path 139" d="M460.306,643.89c-7.442-16.744-7.479-89.518-7.477-92.608l1.862,0c0,.753.034,75.465,7.317,91.85Z" transform="translate(-213.079 -113.537)" fill="#2f2e41"/>
  <path id="Path_140" data-name="Path 140" d="M462.7,658.349c-6.629,0-11.033-1.412-13.9-3.031-5.228-2.948-6.307-6.965-6.35-7.134l1.8-.462-.9.231.9-.235c.038.141.979,3.485,5.544,6.025,5.027,2.8,15.145,4.882,34.793-1.06l.538,1.782C475.721,657.308,468.392,658.349,462.7,658.349Z" transform="translate(-211.604 -127.246)" fill="#2f2e41"/>
  <rect id="Rectangle_11" data-name="Rectangle 11" width="1.862" height="145.975" transform="matrix(0.999, -0.049, 0.049, 0.999, 232.61, 293.194)" fill="#2f2e41"/>
  <path id="Path_141" data-name="Path 141" d="M534.865,643.89l-1.7-.756c7.282-16.385,7.318-91.1,7.317-91.85l1.862,0C542.344,554.371,542.307,627.146,534.865,643.89Z" transform="translate(-224.499 -113.537)" fill="#2f2e41"/>
  <path id="Path_142" data-name="Path 142" d="M526.919,658.349c-5.691,0-13.019-1.04-22.424-3.884l.538-1.782c19.648,5.941,29.764,3.856,34.793,1.06,4.565-2.54,5.506-5.884,5.543-6.025l1.8.466c-.044.169-1.122,4.186-6.35,7.134C537.952,656.937,533.546,658.349,526.919,658.349Z" transform="translate(-220.424 -127.246)" fill="#2f2e41"/>
  <rect id="Rectangle_12" data-name="Rectangle 12" width="145.975" height="1.862" transform="translate(315.991 438.905) rotate(-87.202)" fill="#2f2e41"/>
  <path id="Path_143" data-name="Path 143" d="M346.366,367.131,332.515,387.61H302.727l-9.96-20.479h4.375l7.447,16.755h25.133l12.1-16.755Z" transform="translate(-41.617 -52.188)" fill="url(#linear-gradient-7)"/>
  <path id="Path_144" data-name="Path 144" d="M394.443,379.067l.242.484-.242.447Z" transform="translate(-56.071 -53.885)"/>
  <path id="Path_145" data-name="Path 145" d="M598.861,433.3l-.028.661-17.659,5.129-10.928-21.857,11.18-20.5A47.019,47.019,0,0,1,598.862,433.3Z" transform="translate(-229.77 -91.569)" fill="url(#linear-gradient-7)"/>
  <path id="Path_146" data-name="Path 146" d="M395.01,433.3l.028.661,17.659,5.129,10.928-21.857-11.18-20.5A47.019,47.019,0,0,0,395.01,433.3Z" transform="translate(-204.86 -91.569)" fill="url(#linear-gradient-7)"/>
  <circle id="Ellipse_43" data-name="Ellipse 43" cx="49.336" cy="49.336" r="49.336" transform="translate(228.995 200.911)" fill="#e6e6e6"/>
  <circle id="Ellipse_44" data-name="Ellipse 44" cx="36.304" cy="36.304" r="36.304" transform="translate(242.027 220.459)" fill="#2f2e41"/>
  <path id="Path_147" data-name="Path 147" d="M419.965,503.017l-.756,17.454-23.876-12.827-.619-2.216-.814-10.947Z" transform="translate(-55.993 -70.291)" fill="url(#linear-gradient-7)"/>
  <path id="Path_148" data-name="Path 148" d="M226.324,503.017l.794,17.454,25.095-12.827.652-2.216.855-10.947Z" transform="translate(-32.172 -70.291)" fill="url(#linear-gradient-7)"/>
  <path id="Path_149" data-name="Path 149" d="M331.586,384.153H300.721l-17.089-35.129-.878-12.635,1.857-.129.854,12.274,16.423,33.756H330.6l21.06-31.131,4.483-13.745,1.771.576-4.639,14.1Z" transform="translate(-40.194 -47.8)" fill="#2f2e41"/>
</svg>
