<svg width="868" height="721" viewBox="0 0 868 721" fill="none" xmlns="http://www.w3.org/2000/svg">
<path d="M232.633 120.979C160.802 107.667 42.5024 193.109 19.1026 299.169C-9.14343 427.193 83.2738 550.94 212.395 573.651C299.631 588.994 424.517 462.678 448.598 388.735C477.298 300.608 345.075 141.818 232.633 120.979Z" stroke="url(#paint0_linear)" stroke-width="2" stroke-miterlimit="10"/>
<path d="M71.2237 146.616C82.0814 144.595 99.963 157.564 103.5 173.663C107.77 193.096 93.8002 211.88 74.2827 215.328C61.0965 217.657 42.2193 198.483 38.5793 187.259C34.2411 173.882 54.2275 149.779 71.2237 146.616Z" stroke="url(#paint1_linear)" stroke-width="2" stroke-miterlimit="10"/>
<path d="M159.752 522.957C158.4 524.566 158.822 525.275 157.337 528.186C155.257 532.266 153.216 533.252 153.715 534.622C154.203 535.953 156.685 536.499 158.544 536.231C163.278 535.541 165.396 529.345 165.789 528.186C166.555 525.945 167.6 521.224 165.789 520.142C164.313 519.27 161.361 521.032 159.752 522.957Z" fill="url(#paint2_linear)"/>
<path d="M182.51 530.159C181.925 531.615 180.392 535.455 181.763 536.633C183.267 537.926 188.02 535.828 190.483 532.4C193.54 528.148 193.271 521.559 191.23 520.697C189.055 519.797 184.494 525.208 182.51 530.159Z" fill="url(#paint3_linear)"/>
<path d="M211.651 527.18C209.6 529.938 208.776 531.969 208.661 534.152C208.594 535.407 208.508 537.102 209.409 537.638C211.143 538.673 216.059 535.081 218.378 530.417C220.333 526.481 220.716 521.204 219.125 520.457C217.276 519.595 213.242 525.035 211.651 527.18Z" fill="url(#paint4_linear)"/>
<path d="M178.332 505.46C175.937 508.726 172.755 513.074 174.097 514.922C174.978 516.129 177.46 515.822 178.831 515.42C185.021 513.591 186.171 504.301 186.305 503.219C186.506 501.572 186.832 498.986 185.807 498.488C184.053 497.645 179.712 503.573 178.332 505.46Z" fill="url(#paint5_linear)"/>
<path d="M190.895 551.515C189.783 552.818 185.423 557.903 187.158 560.728C188.145 562.328 190.885 562.854 192.888 562.222C198.705 560.374 200.065 548.106 197.622 546.794C195.782 545.798 191.499 550.807 190.895 551.515Z" fill="url(#paint6_linear)"/>
<path d="M157.25 561.14C154.874 567.729 153.695 571.023 154.759 571.847C156.445 573.13 162.693 569.539 164.974 564.128C165.951 561.81 166.977 557.309 164.725 555.413C163.881 554.704 162.597 554.388 161.486 554.666C159.895 555.068 158.87 556.62 157.25 561.14Z" fill="url(#paint7_linear)"/>
<path d="M805.323 268.286C781.471 324.752 684.726 346.807 612.895 333.495C500.453 312.656 391.959 194.582 420.659 106.455C444.74 32.5117 558.274 2.1816 637.177 13.1951C650.919 15.1104 749.552 30.2037 782.257 104.128C782.621 104.961 782.909 105.699 783.503 107.173C790.834 125.35 827.401 216.025 805.323 268.286Z" fill="#F9F4F0" stroke="url(#paint8_linear)" stroke-width="2" stroke-miterlimit="10"/>
<path d="M709.511 148.136C708.16 146.527 708.581 145.818 707.096 142.907C705.017 138.827 702.976 137.84 703.474 136.471C703.963 135.14 706.444 134.594 708.303 134.862C713.037 135.552 715.155 141.748 715.548 142.907C716.315 145.148 717.359 149.869 715.548 150.951C714.072 151.832 711.13 150.061 709.511 148.136Z" fill="url(#paint9_linear)"/>
<path d="M743.836 141.642C743.251 140.187 741.718 136.346 743.088 135.168C744.593 133.876 749.346 135.973 751.808 139.401C754.865 143.654 754.597 150.243 752.556 151.104C750.381 152.005 745.819 146.594 743.836 141.642Z" fill="url(#paint10_linear)"/>
<path d="M745.321 168.659C743.27 165.901 742.446 163.871 742.331 161.687C742.264 160.432 742.177 158.737 743.078 158.201C744.813 157.167 749.729 160.758 752.048 165.422C754.002 169.358 754.386 174.635 752.795 175.382C750.946 176.234 746.911 170.795 745.321 168.659Z" fill="url(#paint11_linear)"/>
<path d="M701.643 108.497C699.248 105.231 696.066 100.883 697.408 99.0347C698.289 97.828 700.771 98.1345 702.142 98.5367C708.332 100.366 709.482 109.656 709.616 110.738C709.817 112.385 710.143 114.971 709.118 115.469C707.364 116.302 703.023 110.374 701.643 108.497Z" fill="url(#paint12_linear)"/>
<path d="M722.025 136.394C720.914 135.092 716.554 130.007 718.288 127.181C719.275 125.582 722.016 125.055 724.018 125.687C729.835 127.536 731.196 139.804 728.752 141.116C726.922 142.112 722.629 137.103 722.025 136.394Z" fill="url(#paint13_linear)"/>
<path d="M733.784 117.375C731.407 110.786 730.228 107.491 731.292 106.668C732.979 105.384 739.226 108.976 741.507 114.387C742.484 116.704 743.51 121.205 741.258 123.102C740.415 123.81 739.131 124.126 738.019 123.849C736.438 123.446 735.413 121.895 733.784 117.375Z" fill="url(#paint14_linear)"/>
<path d="M768.724 409.011C733.91 455.401 699.097 501.792 664.284 548.183C642.78 554.58 621.286 560.987 599.783 567.384C637.424 518.207 675.073 469.029 712.714 419.852C731.381 416.232 750.057 412.621 768.724 409.011Z" fill="#F9F4F0" stroke="#13233D" stroke-miterlimit="10"/>
<path d="M223.006 136.739C257.82 130.073 292.633 123.398 327.447 116.733C343.526 128.522 363.726 139.985 388.373 147.178C415.702 155.155 424.585 150.893 443.204 161.093C461.603 171.168 462.456 180.544 490.207 210.673C513.032 235.458 524.445 247.85 539.816 255.904C572.09 272.817 586.809 257.178 627.726 268.086C666.459 278.401 691.278 302.544 710.414 321.152C743.292 353.12 760.196 387.377 768.724 409.011C750.057 412.621 731.381 416.241 712.714 419.852C623.51 386.141 519.616 338.592 410.135 270.701C338.39 226.216 276.17 180.39 223.006 136.739Z" fill="#F9F4F0" stroke="#13233D" stroke-miterlimit="10"/>
<path d="M208.172 328.335C225.862 338.218 250.604 348.963 281.402 352.861C301.947 355.457 308.339 352.88 323.297 357.257C351.068 365.388 358.954 383.038 387.529 410.217C417.801 439.006 418.51 428.289 478.257 474.91C505.644 496.285 508.461 500.853 537.64 523.216C563.504 543.04 585.467 557.97 599.783 567.375C637.424 518.197 675.074 469.02 712.714 419.842C702.94 401.301 685.078 372.245 654.701 345.497C581.5 281.053 531.546 314.525 461.478 250.685C435.912 227.394 412.185 195.263 365.739 185.447C352.064 182.555 348.078 184.068 331.797 181.97C304.87 178.494 267.23 168.113 222.997 136.739C218.062 200.607 213.117 264.476 208.172 328.335Z" fill="#F9F4F0" stroke="#13233D" stroke-miterlimit="10"/>
<path d="M250.911 484.985C252.368 477.629 254.064 471.96 256.651 463.963C267.086 431.603 268.073 435.242 270.996 422.869C270.996 422.869 275.979 401.742 271.954 371.268C271.705 369.372 271.293 368.175 270.996 367.447C269.837 364.574 268.495 363.951 265.256 359.805C264.767 359.172 265.352 359.9 261.433 354.068C259.995 351.932 259.133 350.668 259.516 349.289C259.746 348.485 260.417 347.546 261.433 347.374C262.515 347.201 263.732 347.948 264.298 349.289C263.55 346.799 264.863 344.721 266.214 344.51C267.192 344.357 268.37 345.161 269.08 346.426C268.572 344.836 269.003 343.275 270.038 342.604C271.159 341.867 272.587 342.461 272.903 342.604C274.407 343.284 274.915 344.721 275.768 346.426C276.496 347.862 277.675 349.883 279.592 352.162C276.525 344.491 276.822 342.25 277.675 341.647C278.279 341.225 279.266 341.541 279.592 341.647C281.939 342.413 282.945 345.267 283.415 346.426C284.402 348.868 286.434 352.229 291.062 355.983C290.899 352.181 291.944 349.136 293.927 348.341C294.195 348.236 295.125 347.891 295.844 348.341C297.454 349.356 296.016 353.244 295.844 360.762C295.815 361.998 295.834 363.003 295.844 363.626C296.323 364.622 297.061 366.279 297.76 368.405C299.792 374.639 299.744 379.907 299.677 382.741C298.996 408.465 295.853 423.836 295.853 423.836C293.563 435.031 289.816 449.828 283.425 466.836C290.123 467.152 296.811 467.478 303.5 467.794C309.882 456.79 317.222 441.697 322.627 422.878C328.214 403.399 329.938 386.17 330.274 373.183C327.409 371.086 325.099 369.458 323.585 368.405C319.81 365.771 317.816 364.507 317.845 362.668C317.855 361.978 318.152 361.059 318.803 360.753C319.561 360.398 320.461 361.05 321.669 361.71C322.761 362.304 324.342 363.042 326.45 363.626C325.473 361.375 324.476 359.46 323.585 357.889C320.988 353.369 319.043 351.425 319.762 349.289C320.049 348.427 320.768 347.565 321.678 347.374C322.962 347.115 324.563 348.216 325.502 350.237C324.323 348.465 324.965 346.215 326.46 345.458C327.629 344.865 329.248 345.219 330.283 346.416C330.303 345.094 331.088 343.945 332.2 343.552C333.618 343.045 335.372 343.83 336.023 345.468C336.11 344.74 336.34 343.859 336.982 343.552C339.856 342.173 349.717 353.043 354.192 364.574C357.412 372.877 357.019 380.098 356.108 394.195C355.418 404.845 354.719 415.6 350.368 428.596C347.283 437.828 344.408 442.061 333.158 461.09C328.367 469.183 321.065 481.661 312.124 497.406C311.166 503.142 310.208 508.869 309.259 514.606C301.929 513.246 293.592 512.164 284.402 511.742C270.479 511.091 258.184 512.106 248.065 513.658C248.065 506.782 248.573 496.783 250.911 484.985Z" fill="#F9F4F0" stroke="#13233D" stroke-miterlimit="10"/>
<path d="M273.142 406.272C273.133 404.165 272.989 378.968 271.944 371.268C271.743 369.774 271.465 368.625 270.986 367.447C269.827 364.574 268.485 363.951 265.246 359.805C264.757 359.172 265.342 359.9 261.423 354.068C259.985 351.932 259.123 350.668 259.506 349.289C259.736 348.485 260.407 347.546 261.423 347.374C262.505 347.201 263.722 347.948 264.288 349.289C263.54 346.799 264.853 344.721 266.204 344.51C267.182 344.357 268.36 345.161 269.07 346.426C268.562 344.836 268.993 343.275 270.028 342.604C271.149 341.867 272.577 342.461 272.893 342.604C274.397 343.284 274.905 344.721 275.758 346.426C276.486 347.862 277.665 349.883 279.582 352.162C276.515 344.491 276.812 342.25 277.665 341.647C278.269 341.225 279.256 341.541 279.582 341.647C281.929 342.413 282.935 345.267 283.405 346.426C284.392 348.868 286.424 352.229 291.052 355.983C290.889 352.181 291.934 349.136 293.917 348.341C294.185 348.236 295.115 347.891 295.834 348.341C297.444 349.356 296.006 353.244 295.834 360.762C295.805 361.998 295.824 363.003 295.834 363.626C296.313 364.622 297.051 366.279 297.75 368.405C299.552 373.94 299.676 378.566 299.667 382.741C299.628 393.008 298.689 402.489 298.095 407.603C289.787 407.153 281.469 406.712 273.142 406.272Z" fill="#F9F4F0" stroke="#13233D" stroke-miterlimit="10"/>
<path d="M326.996 404.356C327.954 399.194 328.788 393.582 329.382 387.568C329.88 382.502 330.158 377.694 330.283 373.174C327.418 371.077 325.108 369.448 323.594 368.395C319.819 365.761 317.826 364.497 317.854 362.658C317.864 361.969 318.161 361.049 318.813 360.743C319.57 360.389 320.47 361.04 321.678 361.701C322.77 362.294 324.351 363.032 326.459 363.616C325.482 361.366 324.485 359.45 323.594 357.88C320.997 353.359 319.052 351.415 319.771 349.279C320.058 348.418 320.777 347.556 321.687 347.364C322.971 347.105 324.572 348.207 325.511 350.228C324.332 348.456 324.974 346.205 326.469 345.449C327.638 344.855 329.258 345.209 330.292 346.406C330.312 345.085 331.097 343.936 332.209 343.543C333.627 343.035 335.381 343.821 336.032 345.458C336.119 344.73 336.349 343.849 336.991 343.543C339.865 342.164 349.726 353.034 354.201 364.564C357.315 372.58 356.76 379.839 356.118 394.186C355.849 400.133 355.322 405.065 354.891 408.513C345.577 407.134 336.282 405.745 326.996 404.356Z" fill="#F9F4F0" stroke="#13233D" stroke-miterlimit="10"/>
<path d="M298.67 439.743C298.67 435.127 294.923 431.382 290.305 431.382C285.686 431.382 281.939 435.127 281.939 439.743C281.939 441.907 282.773 443.871 284.114 445.355C281.623 452.547 279.141 459.749 276.649 466.942C281.479 467.018 286.299 467.104 291.129 467.181C291.627 460.707 292.125 454.243 292.624 447.769C296.121 446.763 298.67 443.555 298.67 439.743Z" fill="#F9F4F0" stroke="#13233D" stroke-miterlimit="10"/>
<path d="M287.573 439.015C285.916 438.785 284.363 439.628 283.817 440.969C283.146 442.616 284.325 444.158 284.421 444.273C285.59 445.738 287.42 445.633 287.573 445.623C287.765 447.251 287.564 448.257 286.97 448.63C285.801 449.358 283.098 447.644 278.863 443.469C276.505 452.423 272.73 455.689 269.826 457.049C263.195 460.152 258.394 454.616 248.927 458.102C244.049 459.893 241.999 462.594 238.252 461.713C235.358 461.023 232.177 458.37 232.205 455.67C232.272 450.402 244.548 445.805 252.683 444.283C257.216 443.43 259.132 443.785 267.862 442.329C271.983 441.639 275.346 440.931 277.588 440.423C277.722 439.743 278.978 433.729 284.239 431.507C286.098 430.722 287.851 430.664 289.049 430.76C288.58 433.509 288.081 436.257 287.573 439.015Z" fill="url(#paint15_linear)"/>
<path d="M295.805 435.338C297.022 435.433 298.248 435.529 299.465 435.625C298.804 436.19 298.152 436.745 297.491 437.31" fill="#F9F4F0"/>
<path d="M295.805 435.338C297.022 435.433 298.248 435.529 299.465 435.625C298.804 436.19 298.152 436.745 297.491 437.31" stroke="#13233D" stroke-width="0.75" stroke-miterlimit="10" stroke-linecap="round" stroke-linejoin="round"/>
<path d="M285.427 442.07C286.012 442.051 286.587 442.032 287.171 442.013C287.133 441.505 287.095 441.007 287.056 440.5" fill="#F9F4F0"/>
<path d="M285.427 442.07C286.012 442.051 286.587 442.032 287.171 442.013C287.133 441.505 287.095 441.007 287.056 440.5" stroke="#13233D" stroke-width="0.75" stroke-miterlimit="10" stroke-linecap="round"/>
<path d="M287.746 443.114L287.171 442.013" stroke="#13233D" stroke-width="0.75" stroke-miterlimit="10" stroke-linecap="round"/>
<path d="M294.105 436.845C294.381 436.751 294.491 436.343 294.352 435.932C294.213 435.521 293.876 435.264 293.601 435.357C293.325 435.451 293.214 435.859 293.354 436.27C293.493 436.681 293.829 436.938 294.105 436.845Z" fill="#13233D"/>
<path d="M261.154 351.674C260.157 350.831 259.928 349.624 260.407 348.944C260.675 348.561 261.173 348.351 261.643 348.36C262.39 348.379 263.09 348.983 263.291 349.864C262.582 350.467 261.873 351.07 261.154 351.674Z" fill="#F9F4F0" stroke="#13233D" stroke-width="0.75" stroke-miterlimit="10" stroke-linecap="round"/>
<path d="M265.764 348.944C265.045 347.853 265.179 346.627 265.831 346.119C266.205 345.832 266.741 345.765 267.182 345.908C267.891 346.138 268.389 346.924 268.332 347.824C267.47 348.188 266.617 348.571 265.764 348.944Z" fill="#F9F4F0" stroke="#13233D" stroke-width="0.75" stroke-miterlimit="10" stroke-linecap="round"/>
<path d="M270.478 346.512C269.76 345.42 269.894 344.194 270.545 343.687C270.919 343.399 271.456 343.332 271.896 343.476C272.606 343.706 273.104 344.491 273.046 345.391C272.193 345.765 271.331 346.138 270.478 346.512Z" fill="#F9F4F0" stroke="#13233D" stroke-width="0.75" stroke-miterlimit="10" stroke-linecap="round"/>
<path d="M277.665 344.625C278.441 344.482 279.227 344.338 280.003 344.194C280.003 343.993 279.984 343.725 279.869 343.428C279.524 342.576 278.518 341.877 277.962 342.126C277.454 342.346 277.195 343.409 277.665 344.625Z" fill="#F9F4F0" stroke="#13233D" stroke-width="0.75" stroke-miterlimit="10" stroke-linecap="round"/>
<path d="M296.083 351.291C295.307 351.147 294.521 351.003 293.745 350.86C293.745 350.659 293.764 350.39 293.879 350.093C294.224 349.241 295.23 348.542 295.786 348.791C296.284 349.021 296.543 350.084 296.083 351.291Z" fill="#F9F4F0" stroke="#13233D" stroke-width="0.75" stroke-miterlimit="10" stroke-linecap="round"/>
<path d="M264.298 349.28C264.49 350.027 264.873 351.118 265.659 352.239C266.176 352.976 266.722 353.522 267.182 353.915" fill="#F9F4F0"/>
<path d="M264.298 349.28C264.49 350.027 264.873 351.118 265.659 352.239C266.176 352.976 266.722 353.522 267.182 353.915" stroke="#13233D" stroke-width="0.75" stroke-miterlimit="10" stroke-linecap="round"/>
<path d="M269.079 346.416C269.271 347.134 269.587 348.054 270.133 349.04C270.66 349.998 271.245 350.745 271.733 351.281" fill="#F9F4F0"/>
<path d="M269.079 346.416C269.271 347.134 269.587 348.054 270.133 349.04C270.66 349.998 271.245 350.745 271.733 351.281" stroke="#13233D" stroke-width="0.75" stroke-miterlimit="10" stroke-linecap="round"/>
<path d="M323.949 350.256C323.824 348.954 322.962 348.082 322.128 348.082C321.659 348.082 321.199 348.37 320.94 348.762C320.528 349.385 320.624 350.304 321.237 350.974C322.138 350.745 323.039 350.496 323.949 350.256Z" fill="#F9F4F0" stroke="#13233D" stroke-width="0.75" stroke-miterlimit="10" stroke-linecap="round"/>
<path d="M334.768 345.899C334.279 344.683 333.196 344.098 332.401 344.347C331.95 344.481 331.596 344.893 331.462 345.334C331.251 346.052 331.606 346.895 332.382 347.364C333.177 346.876 333.972 346.387 334.768 345.899Z" fill="#F9F4F0" stroke="#13233D" stroke-width="0.75" stroke-miterlimit="10" stroke-linecap="round"/>
<path d="M329.373 347.69C328.884 346.473 327.801 345.889 327.006 346.138C326.555 346.272 326.201 346.684 326.067 347.125C325.856 347.843 326.21 348.686 326.987 349.155C327.782 348.666 328.577 348.178 329.373 347.69Z" fill="#F9F4F0" stroke="#13233D" stroke-width="0.75" stroke-miterlimit="10" stroke-linecap="round"/>
<path d="M339.693 346.837C338.926 347.048 338.16 347.249 337.393 347.46C337.307 347.278 337.201 347.029 337.182 346.703C337.115 345.784 337.729 344.721 338.332 344.702C338.898 344.692 339.588 345.535 339.693 346.837Z" fill="#F9F4F0" stroke="#13233D" stroke-width="0.75" stroke-miterlimit="10" stroke-linecap="round"/>
<path d="M321.122 362.132C320.767 362.84 320.413 363.549 320.058 364.267C319.867 364.219 319.608 364.114 319.359 363.923C318.63 363.358 318.237 362.199 318.63 361.729C318.985 361.308 320.077 361.356 321.122 362.132Z" fill="#F9F4F0" stroke="#13233D" stroke-width="0.75" stroke-miterlimit="10" stroke-linecap="round"/>
<path d="M325.434 350.017C325.942 350.601 326.613 351.53 327.092 352.823C327.398 353.666 327.542 354.422 327.609 355.026" stroke="#13233D" stroke-width="0.75" stroke-miterlimit="10" stroke-linecap="round"/>
<path d="M330.168 346.416C330.648 346.981 331.223 347.766 331.721 348.782C332.21 349.758 332.487 350.668 332.65 351.367" stroke="#13233D" stroke-width="0.75" stroke-miterlimit="10" stroke-linecap="round"/>
<path d="M651.481 243.205C653.11 245.427 653.714 247.601 654.461 250.857C656.043 257.772 657.882 267.713 658.764 280.441C645.77 273.248 634.233 269.609 626.02 267.646C611.397 264.15 597.474 263.853 597.474 263.853C582.123 263.135 575.865 264.926 570.863 260.08C567.385 256.709 566.771 252.189 565.698 243.301C564.452 233.054 565.066 224.032 566.187 216.878C574.073 215.777 583.062 215.001 592.961 214.963C606.041 214.915 617.645 216.16 627.381 217.827C626.739 223.879 626.107 229.932 625.465 235.984C630.352 235.467 645.042 234.423 651.481 243.205Z" fill="url(#paint16_linear)"/>
<path d="M680.995 284.176C680.42 281.992 677.718 281.446 673.07 279.09C671.46 278.276 669.573 277.223 667.522 275.872C669.601 275.192 671.326 274.943 672.562 274.838C673.933 274.723 675.044 274.771 675.485 274.062C675.859 273.459 675.6 272.52 675.236 271.936C674.249 270.394 671.892 270.423 667.292 270.299C665.443 270.251 662.616 270.164 659.07 269.983C652.209 258.95 644.169 243.617 638.123 224.272C632.277 205.587 631.769 198.395 631.051 185.686C631.166 182.641 631.242 178.006 628.214 174.587C625.713 171.762 622.206 171.015 619.897 170.622C606.883 168.381 587.575 169.319 582.505 169.597C580.368 169.463 576.44 169.559 573.594 172.145C572.932 172.748 572.405 173.418 571.984 174.108C554.85 193.942 537.716 213.776 520.592 233.609C518.072 234.308 515.552 235.017 513.032 235.716C509.745 234.385 507.148 233.274 505.442 232.537C501.216 230.708 499.089 229.683 497.546 230.669C496.962 231.043 496.339 231.78 496.425 232.489C496.521 233.322 497.546 233.743 498.744 234.423C499.827 235.036 501.283 235.994 502.884 237.488C500.45 237.842 498.303 238.005 496.492 238.063C491.279 238.235 488.596 237.593 487.159 239.327C486.584 240.026 486.22 241.089 486.536 241.96C486.986 243.186 488.769 243.972 490.982 243.703C488.855 243.627 487.283 245.36 487.418 247.027C487.523 248.329 488.682 249.526 490.244 249.775C489.133 250.484 488.558 251.758 488.807 252.907C489.123 254.372 490.714 255.454 492.448 255.157C491.883 255.617 491.251 256.268 491.327 256.977C491.672 260.185 506.496 262.589 518.273 260.568C523.343 259.697 533.711 256.996 544.501 246.624C553.394 237.555 562.43 227.48 571.351 216.323C578.941 215.586 587.345 215.145 596.477 215.27C600.885 215.327 605.12 215.519 609.174 215.806C609.643 224.243 610.18 228.562 611.818 234.72C615.345 247.965 620.673 257.331 625.953 266.611C632.948 278.899 636.589 285.143 643.843 290.305C653.924 297.478 668.145 301.136 669.783 298.407C670.148 297.803 669.85 296.942 669.534 296.281C670.981 297.286 672.879 296.97 673.779 295.773C674.488 294.835 674.508 293.436 673.799 292.325C675.322 292.756 676.875 292.163 677.517 291.023C678.341 289.567 677.651 287.336 675.686 286.503C677.584 287.671 679.529 287.719 680.458 286.8C681.1 286.168 681.225 285.047 680.995 284.176Z" fill="#F9F4F0" stroke="#13233D" stroke-miterlimit="10"/>
<path d="M609.471 136.835C605.006 135.657 600.435 138.319 599.256 142.782C598.461 145.789 599.419 148.844 601.489 150.874C599.381 156.975 597.273 163.085 595.155 169.185C599.889 169.291 604.622 169.386 609.366 169.492C609.797 163.851 610.238 158.21 610.669 152.569C612.93 151.583 614.742 149.62 615.422 147.044C616.601 142.581 613.937 138.012 609.471 136.835Z" fill="#F9F4F0" stroke="#13233D" stroke-miterlimit="10"/>
<path d="M608.101 138.175C607.018 138.951 605.657 140.426 604.872 143.51C603.329 142.858 601.613 143.28 600.741 144.439C599.668 145.866 600.416 147.647 600.483 147.79C601.24 149.505 603.032 149.869 603.195 149.907C603.041 151.2 602.639 152.205 601.843 152.656C600.281 153.537 598.681 151.439 594.982 150.913C591.724 150.453 590.574 151.966 588.782 150.836C587.537 150.051 586.598 148.413 586.751 146.929C586.923 145.262 588.361 144.889 588.198 143.806C587.949 142.131 584.326 142.504 583.349 140.311C582.535 138.491 583.502 135.599 585.352 134.402C587.91 132.764 590.843 135.178 592.443 133.607C593.871 132.209 591.973 129.853 593.353 127.631C595.078 124.854 600.713 124.27 602.179 126.185C603.54 127.957 601.096 131.605 601.949 132.113C602.84 132.649 605.054 128.359 608.513 128.292C610.554 128.254 612.911 129.748 613.362 131.787C613.783 133.684 612.394 135.369 612.145 135.676C610.899 137.17 609.653 137.064 608.101 138.175Z" fill="url(#paint17_linear)"/>
<path d="M613.774 142.054C614.934 142.456 616.084 142.858 617.243 143.27C616.467 143.644 615.681 144.017 614.905 144.391" fill="#F9F4F0"/>
<path d="M613.774 142.054C614.934 142.456 616.084 142.858 617.243 143.27C616.467 143.644 615.681 144.017 614.905 144.391" stroke="#13233D" stroke-width="0.75" stroke-miterlimit="10" stroke-linecap="round" stroke-linejoin="round"/>
<path d="M602.016 145.913C602.581 146.048 603.146 146.172 603.712 146.306C603.798 145.808 603.894 145.31 603.98 144.822" fill="#F9F4F0"/>
<path d="M602.016 145.913C602.581 146.048 603.146 146.172 603.712 146.306C603.798 145.808 603.894 145.31 603.98 144.822" stroke="#13233D" stroke-width="0.75" stroke-miterlimit="10" stroke-linecap="round"/>
<path d="M604 147.513L603.722 146.306" stroke="#13233D" stroke-width="0.75" stroke-miterlimit="10" stroke-linecap="round"/>
<path d="M611.74 143.084C612.031 143.064 612.242 142.697 612.212 142.264C612.182 141.832 611.923 141.497 611.632 141.517C611.342 141.537 611.131 141.904 611.16 142.337C611.19 142.769 611.45 143.104 611.74 143.084Z" fill="#13233D"/>
<path d="M625.934 266.621C631.339 280.565 639.608 287.393 643.825 290.314C653.647 297.114 668.097 301.184 669.765 298.416C670.129 297.813 669.832 296.951 669.516 296.29C670.963 297.296 672.86 296.98 673.761 295.783C674.47 294.844 674.489 293.446 673.78 292.335C675.303 292.766 676.856 292.172 677.498 291.033C678.322 289.577 677.632 287.346 675.668 286.512C677.565 287.681 679.51 287.729 680.44 286.809C681.091 286.158 681.216 285.037 680.986 284.166C680.411 281.982 677.709 281.437 673.061 279.081C671.451 278.267 669.564 277.213 667.513 275.863C669.592 275.183 671.317 274.934 672.553 274.828C673.924 274.714 675.035 274.761 675.476 274.053C675.85 273.449 675.591 272.511 675.227 271.927C674.24 270.385 671.883 270.414 667.283 270.289C665.433 270.241 662.607 270.155 659.061 269.973C655.688 263.844 652.305 257.715 648.932 251.595C641.266 256.613 633.6 261.622 625.934 266.621Z" fill="#F9F4F0" stroke="#13233D" stroke-miterlimit="10"/>
<path d="M528.872 224.013C526.103 227.212 523.343 230.42 520.574 233.619C518.054 234.318 515.533 235.027 513.013 235.726C509.726 234.395 507.129 233.284 505.424 232.546C501.198 230.717 499.071 229.692 497.528 230.679C496.943 231.052 496.32 231.79 496.407 232.498C496.502 233.332 497.528 233.753 498.726 234.433C499.808 235.046 501.265 236.004 502.865 237.498C500.431 237.852 498.285 238.015 496.474 238.072C491.261 238.245 488.578 237.603 487.14 239.336C486.565 240.036 486.201 241.099 486.517 241.97C486.968 243.196 488.75 243.981 490.964 243.713C488.836 243.636 487.265 245.37 487.399 247.036C487.504 248.339 488.664 249.536 490.226 249.785C489.114 250.494 488.539 251.767 488.788 252.916C489.105 254.382 490.695 255.464 492.43 255.167C491.864 255.627 491.232 256.278 491.309 256.987C491.654 260.195 506.478 262.599 518.255 260.578C523.324 259.707 533.692 257.006 544.482 246.634C539.279 239.087 534.076 231.55 528.872 224.013Z" fill="#F9F4F0" stroke="#13233D" stroke-miterlimit="10"/>
<path d="M275.432 660.702C275.432 660.702 275.432 660.692 275.442 660.692L275.432 660.702Z" fill="url(#paint18_linear)"/>
<path d="M275.442 660.692C275.48 660.683 275.528 660.664 275.576 660.645C275.528 660.664 275.49 660.683 275.442 660.702V660.692Z" fill="url(#paint19_linear)"/>
<path d="M287.937 591.662C287.956 592.485 287.975 593.309 287.994 594.133C287.908 590.723 287.822 587.314 287.726 583.905C287.611 579.509 287.496 575.113 287.372 570.727C287.41 572.202 287.458 573.667 287.496 575.142C287.573 578.053 287.649 580.907 287.726 583.684C287.726 583.79 287.726 583.895 287.736 584C287.755 584.862 287.784 585.734 287.803 586.596C287.851 588.319 287.889 590.005 287.937 591.662Z" fill="url(#paint20_linear)"/>
<path d="M288.417 611.333C288.283 605.596 288.139 599.869 287.995 594.133C288.024 594.947 288.043 595.761 288.062 596.556C288.101 598.126 288.139 599.697 288.177 601.267C288.196 602.043 288.216 602.8 288.235 603.556C288.292 606.152 288.359 608.747 288.417 611.333Z" fill="url(#paint21_linear)"/>
<path d="M485.272 549.964C484.687 548.796 484.036 547.522 483.298 546.105C481.889 543.375 479.685 539.113 476.063 532.036C479.772 535.225 483.48 538.424 487.189 541.613C501.658 530.102 516.128 518.59 530.598 507.079C524.819 500.193 519.041 493.307 513.253 486.421C521.226 480.732 529.208 475.034 537.181 469.346C531.815 462.852 526.458 456.35 521.092 449.856C506.881 461.042 492.679 472.228 478.468 483.414C478.564 484.094 479.11 488.653 475.852 492.254C473.073 495.328 468.598 496.506 464.392 495.27C457.31 501.218 453.218 506.954 450.919 510.747C449.012 513.888 448.149 516.033 447.699 518.379C446.913 522.488 447.622 526.175 449.107 530.638C451.647 538.252 454.665 542.753 457.348 547.512C458.939 550.328 460.817 553.967 462.695 558.43L485.272 549.964Z" fill="#F9F4F0" stroke="#13233D" stroke-miterlimit="10"/>
<path d="M485.272 549.964C487.083 553.239 487.955 556.112 488.405 558.085C488.712 559.426 488.865 560.527 488.932 561.083C489.277 563.956 489.153 566.369 488.98 567.969C483.039 572.747 476.916 577.977 470.677 583.684C465.896 588.051 461.401 592.39 457.185 596.642C460.194 589.287 462.906 581.146 465.004 572.24C465.369 570.708 465.704 569.194 466.011 567.691C464.909 564.674 463.807 561.667 462.714 558.65C470.227 555.758 477.749 552.866 485.272 549.964Z" fill="#F9F4F0" stroke="#13233D" stroke-miterlimit="10"/>
<path d="M454.607 605.05C454.119 611.591 451.742 615.097 449.625 617.089C444.824 621.638 440.952 623.84 440.952 623.84C440.195 624.271 437.292 625.89 436.65 628.246C436.554 628.591 436.314 629.472 436.832 630.018C437.301 630.516 438.154 630.468 438.758 630.439C439.275 630.41 440.042 630.305 441.872 629.424C442.505 629.127 443.357 628.677 444.344 628.073C443.386 630.334 442.754 632.268 442.323 633.724C442.294 633.82 441.767 635.677 441.403 638.196C441.163 639.91 441.134 640.973 441.681 642.075C441.92 642.563 442.332 643.387 443.147 643.598C444.124 643.847 445.408 643.157 446.261 641.826C446.194 641.998 445.504 643.981 446.807 645.456C446.989 645.666 447.622 646.356 448.733 646.557C450.056 646.796 451.052 646.155 451.206 646.049C451.781 645.676 452.078 645.206 452.212 644.948C451.426 646.135 451.455 647.495 452.212 648.242C452.873 648.903 453.917 648.913 454.32 648.913C454.636 648.913 455.642 648.913 456.524 648.242C457.07 647.821 457.329 647.323 457.444 647.064C457.032 647.965 457.214 648.97 457.904 649.593C457.952 649.631 458.718 650.311 459.734 650.187C460.846 650.043 461.794 649.009 461.852 647.658C461.411 645.829 460.75 643.109 459.926 639.815C457.77 631.234 456.802 628.025 456.15 625.277C455.077 620.623 454.052 613.88 454.607 605.05Z" fill="#F9F4F0" stroke="#13233D" stroke-miterlimit="10"/>
<path d="M521.091 449.856C524.714 446.916 527.895 444.733 530.223 443.239C534.114 440.739 536.117 439.465 539.145 438.469C541.483 437.694 545.029 436.525 549.197 437.339C552.58 438 554.851 439.676 556.738 441.103C563.303 446.093 566.589 448.583 571.314 453.16C582.477 463.973 599.084 478.693 601.211 482.035C601.278 482.14 602.419 483.309 603.099 485.176C603.444 486.134 603.779 487.12 603.291 487.877C602.658 488.844 601.125 488.767 600.799 488.758C599.592 488.7 598.758 488.068 598.461 487.81C599.496 488.978 599.822 490.472 599.266 491.535C598.844 492.34 597.991 492.732 597.733 492.847C596.832 493.259 596.017 493.182 595.615 493.144C594.465 493.02 593.651 492.483 593.277 492.196C593.67 492.732 594.225 493.661 594.302 494.906C594.34 495.5 594.417 496.783 593.641 497.32C593.114 497.684 592.424 497.53 591.523 497.32C590.488 497.08 589.722 496.668 589.252 496.372C589.3 496.419 590.191 497.32 589.913 498.488C589.655 499.561 588.648 499.972 588.524 500.02C587.508 500.413 586.435 499.934 585.525 499.436C582.381 497.703 579.123 494.466 577.772 493.077C577.638 495.05 577.581 496.659 577.552 497.76C577.494 500.078 577.542 501.007 576.824 501.783C576.201 502.453 575.195 502.817 574.265 502.664C572.808 502.415 572.061 500.959 571.774 500.394C570.882 498.641 571.208 497.147 571.409 494.399C571.515 492.895 571.611 490.673 571.486 487.886C562.9 479.823 554.314 471.749 545.728 463.686C542.882 465.582 540.046 467.468 537.2 469.365C531.814 462.852 526.458 456.359 521.091 449.856Z" fill="#F9F4F0" stroke="#13233D" stroke-miterlimit="10"/>
<path d="M547.807 671.648C557.553 664.236 567.298 656.833 577.043 649.42C574.993 647.064 571.802 644.191 567.298 642.927C561.721 641.366 558.252 643.416 555.799 640.926C553.135 638.225 556.163 634.672 553.049 630.439C551.477 628.294 549.139 627.068 546.053 625.44C543.485 624.089 541.473 623.429 540.802 623.189C537.554 622.04 532.858 619.128 526.802 611.199C534.171 594.248 541.54 577.306 548.899 560.355C530.836 575.391 512.773 590.417 494.72 605.453C494.308 607.617 493.867 610.71 493.809 614.445C493.79 615.959 493.742 619.32 494.308 622.193C495.093 626.168 497.211 629.989 501.801 634.681C508.174 641.175 524.742 654.946 547.807 671.648Z" fill="url(#paint22_linear)"/>
<path d="M471.53 692.296C468.118 692.325 462.35 692.919 456.696 696.472C455.23 697.391 453.984 698.387 452.92 699.354C472.862 699.354 492.803 699.354 512.744 699.354C510.521 693.216 508.298 687.067 506.075 680.928C493.646 680.928 481.227 680.928 468.799 680.928C469.719 684.711 470.629 688.504 471.53 692.296Z" fill="#F9F4F0" stroke="#13233D" stroke-miterlimit="10"/>
<path d="M547.807 671.648C551.008 674.205 554.209 676.762 557.409 679.319C555.215 680.536 548.986 684.386 546.734 691.798C546.178 693.618 545.968 695.332 545.929 696.826C562.172 685.621 578.424 674.416 594.666 663.211C588.792 658.614 582.918 654.017 577.053 649.411C567.298 656.833 557.553 664.245 547.807 671.648Z" fill="#F9F4F0" stroke="#13233D" stroke-miterlimit="10"/>
<path d="M487.178 541.622C501.648 530.111 516.118 518.6 530.587 507.088C543.38 522.277 552.455 533.731 554.506 537.188C555.445 538.778 555.981 540.435 555.981 540.435C556.135 540.914 557.122 544.065 556.575 547.809C556.575 547.809 555.914 552.32 552.445 556.668C548.018 562.194 523.151 583.301 488.07 610.682C486.987 619.598 488.932 624.425 491.021 627.211C491.883 628.361 494.337 631.253 496.042 635.773C497.154 638.704 497.068 640.006 496.924 640.792C496.483 643.272 494.883 643.856 493.972 646.691C493.8 647.237 493.091 649.602 493.675 652.006C494.538 655.55 497.422 655.971 500.766 659.974C503.555 663.316 504.619 666.688 505.194 668.536C505.931 670.873 506.938 675.24 506.075 680.928C493.647 680.928 481.228 680.928 468.799 680.928C459.36 647.639 453.706 622.94 453.237 617.376C453.122 615.978 453.017 612.051 453.045 608.355C453.064 605.424 453.17 603.94 453.62 602.206C453.62 602.206 454.387 599.304 456.313 596.45C459.006 592.457 477.213 576.55 503.191 556.132C497.863 551.286 492.525 546.449 487.178 541.622Z" fill="url(#paint23_linear)"/>
<path d="M277.847 659.687C280.703 658.461 282.6 657.551 283.424 657.005C284.22 656.478 284.9 655.885 285.456 655.329C284.248 656.364 282.619 657.235 280.099 658.585C279.294 659.007 278.547 659.361 277.847 659.687Z" fill="url(#paint24_linear)"/>
<path d="M287.249 653.175C287.249 653.185 287.239 653.195 287.229 653.205C287.229 653.195 287.249 653.175 287.249 653.175Z" fill="url(#paint25_linear)"/>
<path d="M287.574 652.581C289.155 649.698 289.174 646.787 289.155 645.532C289.155 645.312 289.145 645.044 289.145 644.737C289.136 645.005 289.126 645.264 289.097 645.542C288.925 647.859 288.724 650.33 287.574 652.581Z" fill="url(#paint26_linear)"/>
<path d="M379.998 616.859C378.014 625.248 374.804 631.148 374.258 632.153C368.882 642.056 358.59 663.594 344.619 693.312C348.145 693.11 354.613 693.312 360.871 697.133C362.356 698.043 363.621 699.029 364.694 700.006H306.365C306.844 695.371 307.687 688.762 309.24 680.89C310.811 672.903 311.597 668.91 313.063 665.596C318.2 653.979 324.792 654.429 326.45 645.532C327.6 639.355 324.831 636.961 327.408 631.196C328.587 628.552 329.881 627.461 334.097 622.596C337.863 618.257 340.786 614.57 342.702 612.08C324.217 596.795 305.733 581.501 287.248 566.216C287.286 567.72 287.334 569.223 287.372 570.727C287.497 575.113 287.612 579.509 287.727 583.905C287.823 587.314 287.909 590.723 287.995 594.133C288.139 599.869 288.283 605.596 288.417 611.333C288.656 621.149 288.867 630.966 289.078 640.773C289.088 641.089 289.088 641.395 289.097 641.711C289.097 641.721 289.097 641.721 289.097 641.73C289.116 642.975 289.136 643.981 289.145 644.737C289.136 644.996 289.116 645.264 289.097 645.542C289.049 646.126 289.011 646.71 288.944 647.304C288.762 649.076 288.426 650.886 287.574 652.581C287.526 652.677 287.468 652.772 287.42 652.878C287.363 652.974 287.315 653.079 287.248 653.175C287.257 653.184 287.248 653.194 287.229 653.203C287.162 653.299 286.548 654.238 285.456 655.32C284.67 656 283.712 656.603 282.447 657.302C281.757 657.685 280.981 658.097 280.09 658.576C279.687 658.787 279.294 658.988 278.921 659.17C278.547 659.352 278.192 659.515 277.838 659.677C277.148 659.984 276.381 660.3 275.576 660.645C275.528 660.664 275.48 660.683 275.442 660.693C275.433 660.693 275.433 660.702 275.433 660.702C262.084 666.276 233.94 676.782 198.322 689.49C200.803 692.181 205.202 697.813 205.968 705.733C206.131 707.457 206.103 709.056 205.968 710.512C193.214 695.859 180.469 681.206 167.715 666.554C170.59 664.466 175.668 660.769 182.06 656.038C192.189 648.559 193.387 647.534 196.405 646.49C206.093 643.109 209.064 648.281 216.481 644.575C223.495 641.069 223.121 635.314 230.826 633.111C233.288 632.402 233.835 632.843 240.389 632.153C245.746 631.588 250.048 630.803 252.818 630.238C250.547 611.036 248.831 590.283 248.036 568.122C247.346 548.901 247.432 530.705 248.036 513.648C255.922 512.547 264.911 511.781 274.81 511.743C287.899 511.695 299.504 512.94 309.24 514.606C308.598 520.659 307.965 526.711 307.323 532.764C338.419 560.508 361.206 580.917 371.392 589.143C373.74 591.049 379.221 595.378 380.956 602.522C382.154 607.502 381.119 612.09 379.998 616.859Z" fill="url(#paint27_linear)"/>
<path d="M289.078 640.773C288.867 630.966 288.656 621.149 288.417 611.333C288.359 608.747 288.292 606.152 288.235 603.557C288.666 620.824 288.944 633.858 289.078 640.773Z" fill="url(#paint28_linear)"/>
<path d="M287.248 566.216C287.411 572.039 287.574 577.862 287.727 583.694C287.583 578.12 287.421 572.288 287.248 566.216Z" fill="url(#paint29_linear)"/>
<path d="M207.99 686.617C206.448 687.173 204.895 687.728 203.352 688.284C201.781 688.849 200.2 689.414 198.619 689.979C201.101 692.67 205.508 698.301 206.266 706.221C206.428 707.945 206.4 709.544 206.266 711C193.521 696.347 180.766 681.695 168.021 667.042C172.334 663.891 176.646 660.74 180.958 657.599C189.966 667.262 198.983 676.935 207.99 686.617Z" fill="#F9F4F0" stroke="#13233D" stroke-miterlimit="10"/>
<path d="M349.027 684.75C348.576 685.698 347.455 688.092 347.005 689.05C346.535 690.046 345.395 692.469 344.925 693.474C348.452 693.273 354.92 693.465 361.178 697.296C362.663 698.205 363.928 699.192 365.001 700.159C345.558 700.159 326.115 700.159 306.672 700.159C307.419 694.873 308.176 689.576 308.924 684.29C322.291 684.443 335.659 684.596 349.027 684.75Z" fill="#F9F4F0" stroke="#13233D" stroke-miterlimit="10"/>
<path d="M469.125 472.027C470.399 470.427 471.166 468.397 471.166 466.194C471.166 461.013 466.959 456.819 461.785 456.819C456.6 456.819 452.403 461.023 452.403 466.194C452.403 470.839 455.786 474.68 460.213 475.436C462.293 482.188 464.372 488.94 466.451 495.691C467.199 495.797 470.869 496.218 474.252 493.709C477.998 490.922 478.43 486.727 478.487 486.067C475.363 481.383 472.249 476.7 469.125 472.027Z" fill="#F9F4F0" stroke="#13233D" stroke-miterlimit="10"/>
<path d="M462.35 461.741C462.312 462.527 462.436 463.408 462.839 464.394C462.964 464.366 465.053 464.011 466.375 465.476C467.582 466.808 467.391 468.8 466.576 470.093C465.723 471.443 464.104 472.171 462.446 471.96C462.369 472.276 462.197 473.09 462.542 474.019C462.619 474.211 463.079 475.417 464.209 475.887C466.011 476.634 467.985 474.919 468.339 474.613C469.144 473.914 469.144 473.54 470.4 471.376C472.316 468.062 473.035 467.698 473.351 465.974C473.466 465.362 473.677 464.174 473.255 462.833C472.479 460.41 470.591 460.602 467.649 457.336C466.26 455.785 466.04 455.028 464.506 453.898C462.408 452.356 461.162 452.557 460.875 452.624C460.645 452.672 459.456 452.95 459.006 453.898C458.393 455.2 459.485 457.135 460.779 458.026C461.641 458.619 462.216 458.476 462.551 459.108C462.925 459.807 462.417 460.429 462.35 461.741Z" fill="url(#paint30_linear)"/>
<path d="M454.224 461.866C453.007 461.962 451.78 462.057 450.563 462.153C451.55 462.977 452.527 463.81 453.514 464.634" fill="#F9F4F0"/>
<path d="M454.224 461.866C453.007 461.962 451.78 462.057 450.563 462.153C451.55 462.977 452.527 463.81 453.514 464.634" stroke="#13233D" stroke-width="0.75" stroke-miterlimit="10" stroke-linecap="round" stroke-linejoin="round"/>
<path d="M464.199 467.842C463.615 467.823 463.04 467.803 462.455 467.784C462.493 467.277 462.532 466.779 462.57 466.271" fill="#F9F4F0"/>
<path d="M464.199 467.842C463.615 467.823 463.04 467.803 462.455 467.784C462.493 467.277 462.532 466.779 462.57 466.271" stroke="#13233D" stroke-width="0.75" stroke-miterlimit="10" stroke-linecap="round"/>
<path d="M461.88 468.886L462.455 467.784" stroke="#13233D" stroke-width="0.75" stroke-miterlimit="10" stroke-linecap="round"/>
<path d="M456.245 462.017C456.384 461.607 456.273 461.198 455.998 461.105C455.722 461.011 455.386 461.269 455.246 461.679C455.107 462.09 455.218 462.499 455.493 462.592C455.769 462.685 456.105 462.428 456.245 462.017Z" fill="#13233D"/>
<path fill-rule="evenodd" clip-rule="evenodd" d="M739.903 243.835C746.801 234.515 755.543 225.269 770.342 227.32C785.268 229.388 798.802 241.796 810.678 253.643C823.218 266.153 836.252 279.924 837.082 293.898C837.985 309.098 829.653 321.683 814.926 325.15C801.087 328.409 783.724 319.282 768.055 310.151C753.619 301.739 739.026 291.273 733.187 277.52C727.45 264.004 733.105 253.019 739.903 243.835Z" stroke="url(#paint31_linear)" stroke-width="2"/>
<defs>
<linearGradient id="paint0_linear" x1="431.45" y1="280.343" x2="31.2862" y2="280.343" gradientUnits="userSpaceOnUse">
<stop stop-color="#E25576"/>
<stop offset="1" stop-color="#FEA450"/>
</linearGradient>
<linearGradient id="paint1_linear" x1="41.1714" y1="170.806" x2="101.658" y2="170.806" gradientUnits="userSpaceOnUse">
<stop stop-color="#E25576"/>
<stop offset="1" stop-color="#FEA450"/>
</linearGradient>
<linearGradient id="paint2_linear" x1="153.638" y1="528.107" x2="166.789" y2="528.107" gradientUnits="userSpaceOnUse">
<stop stop-color="#E25576"/>
<stop offset="1" stop-color="#FEA450"/>
</linearGradient>
<linearGradient id="paint3_linear" x1="181.208" y1="528.811" x2="192.769" y2="528.811" gradientUnits="userSpaceOnUse">
<stop stop-color="#E25576"/>
<stop offset="1" stop-color="#FEA450"/>
</linearGradient>
<linearGradient id="paint4_linear" x1="208.624" y1="529.087" x2="220.112" y2="529.087" gradientUnits="userSpaceOnUse">
<stop stop-color="#E25576"/>
<stop offset="1" stop-color="#FEA450"/>
</linearGradient>
<linearGradient id="paint5_linear" x1="173.781" y1="507.089" x2="186.517" y2="507.089" gradientUnits="userSpaceOnUse">
<stop stop-color="#E25576"/>
<stop offset="1" stop-color="#FEA450"/>
</linearGradient>
<linearGradient id="paint6_linear" x1="186.758" y1="554.566" x2="198.78" y2="554.566" gradientUnits="userSpaceOnUse">
<stop stop-color="#E25576"/>
<stop offset="1" stop-color="#FEA450"/>
</linearGradient>
<linearGradient id="paint7_linear" x1="154.36" y1="563.334" x2="166.067" y2="563.334" gradientUnits="userSpaceOnUse">
<stop stop-color="#E25576"/>
<stop offset="1" stop-color="#FEA450"/>
</linearGradient>
<linearGradient id="paint8_linear" x1="414.077" y1="174.132" x2="814.24" y2="174.132" gradientUnits="userSpaceOnUse">
<stop stop-color="#E25576"/>
<stop offset="1" stop-color="#FEA450"/>
</linearGradient>
<linearGradient id="paint9_linear" x1="703.402" y1="142.991" x2="716.553" y2="142.991" gradientUnits="userSpaceOnUse">
<stop stop-color="#E25576"/>
<stop offset="1" stop-color="#FEA450"/>
</linearGradient>
<linearGradient id="paint10_linear" x1="742.533" y1="142.99" x2="754.094" y2="142.99" gradientUnits="userSpaceOnUse">
<stop stop-color="#E25576"/>
<stop offset="1" stop-color="#FEA450"/>
</linearGradient>
<linearGradient id="paint11_linear" x1="742.296" y1="166.745" x2="753.783" y2="166.745" gradientUnits="userSpaceOnUse">
<stop stop-color="#E25576"/>
<stop offset="1" stop-color="#FEA450"/>
</linearGradient>
<linearGradient id="paint12_linear" x1="697.087" y1="106.862" x2="709.823" y2="106.862" gradientUnits="userSpaceOnUse">
<stop stop-color="#E25576"/>
<stop offset="1" stop-color="#FEA450"/>
</linearGradient>
<linearGradient id="paint13_linear" x1="717.89" y1="133.345" x2="729.912" y2="133.345" gradientUnits="userSpaceOnUse">
<stop stop-color="#E25576"/>
<stop offset="1" stop-color="#FEA450"/>
</linearGradient>
<linearGradient id="paint14_linear" x1="730.899" y1="115.18" x2="742.605" y2="115.18" gradientUnits="userSpaceOnUse">
<stop stop-color="#E25576"/>
<stop offset="1" stop-color="#FEA450"/>
</linearGradient>
<linearGradient id="paint15_linear" x1="232.226" y1="446.295" x2="289.079" y2="446.295" gradientUnits="userSpaceOnUse">
<stop stop-color="#E25576"/>
<stop offset="1" stop-color="#FEA450"/>
</linearGradient>
<linearGradient id="paint16_linear" x1="565.012" y1="247.709" x2="658.768" y2="247.709" gradientUnits="userSpaceOnUse">
<stop stop-color="#E25576"/>
<stop offset="1" stop-color="#FEA450"/>
</linearGradient>
<linearGradient id="paint17_linear" x1="583.052" y1="138.958" x2="613.43" y2="138.958" gradientUnits="userSpaceOnUse">
<stop stop-color="#E25576"/>
<stop offset="1" stop-color="#FEA450"/>
</linearGradient>
<linearGradient id="paint18_linear" x1="275.436" y1="660.699" x2="275.446" y2="660.699" gradientUnits="userSpaceOnUse">
<stop stop-color="#E25576"/>
<stop offset="1" stop-color="#FEA450"/>
</linearGradient>
<linearGradient id="paint19_linear" x1="274.785" y1="660.675" x2="276.183" y2="660.675" gradientUnits="userSpaceOnUse">
<stop stop-color="#E25576"/>
<stop offset="1" stop-color="#FEA450"/>
</linearGradient>
<linearGradient id="paint20_linear" x1="284.307" y1="582.431" x2="290.804" y2="582.431" gradientUnits="userSpaceOnUse">
<stop stop-color="#E25576"/>
<stop offset="1" stop-color="#FEA450"/>
</linearGradient>
<linearGradient id="paint21_linear" x1="285.921" y1="602.734" x2="290.32" y2="602.734" gradientUnits="userSpaceOnUse">
<stop stop-color="#E25576"/>
<stop offset="1" stop-color="#FEA450"/>
</linearGradient>
<linearGradient id="paint22_linear" x1="493.811" y1="616.009" x2="577.046" y2="616.009" gradientUnits="userSpaceOnUse">
<stop stop-color="#E25576"/>
<stop offset="1" stop-color="#FEA450"/>
</linearGradient>
<linearGradient id="paint23_linear" x1="453.052" y1="594.006" x2="556.744" y2="594.006" gradientUnits="userSpaceOnUse">
<stop stop-color="#E25576"/>
<stop offset="1" stop-color="#FEA450"/>
</linearGradient>
<linearGradient id="paint24_linear" x1="167.722" y1="657.504" x2="381.493" y2="657.504" gradientUnits="userSpaceOnUse">
<stop stop-color="#E25576"/>
<stop offset="1" stop-color="#FEA450"/>
</linearGradient>
<linearGradient id="paint25_linear" x1="159.349" y1="653.189" x2="330.582" y2="653.189" gradientUnits="userSpaceOnUse">
<stop stop-color="#E25576"/>
<stop offset="1" stop-color="#FEA450"/>
</linearGradient>
<linearGradient id="paint26_linear" x1="167.723" y1="648.659" x2="381.492" y2="648.659" gradientUnits="userSpaceOnUse">
<stop stop-color="#E25576"/>
<stop offset="1" stop-color="#FEA450"/>
</linearGradient>
<linearGradient id="paint27_linear" x1="167.718" y1="611.128" x2="381.493" y2="611.128" gradientUnits="userSpaceOnUse">
<stop stop-color="#E25576"/>
<stop offset="1" stop-color="#FEA450"/>
</linearGradient>
<linearGradient id="paint28_linear" x1="213.849" y1="622.166" x2="346.352" y2="622.166" gradientUnits="userSpaceOnUse">
<stop stop-color="#E25576"/>
<stop offset="1" stop-color="#FEA450"/>
</linearGradient>
<linearGradient id="paint29_linear" x1="167.72" y1="574.951" x2="381.495" y2="574.951" gradientUnits="userSpaceOnUse">
<stop stop-color="#E25576"/>
<stop offset="1" stop-color="#FEA450"/>
</linearGradient>
<linearGradient id="paint30_linear" x1="458.833" y1="464.315" x2="473.511" y2="464.315" gradientUnits="userSpaceOnUse">
<stop stop-color="#E25576"/>
<stop offset="1" stop-color="#FEA450"/>
</linearGradient>
<linearGradient id="paint31_linear" x1="828.88" y1="385.156" x2="898.622" y2="283.813" gradientUnits="userSpaceOnUse">
<stop stop-color="#FEA450"/>
<stop offset="1" stop-color="#E25576"/>
</linearGradient>
</defs>
</svg>
