<svg width="245" height="308" viewBox="0 0 245 308" fill="none" xmlns="http://www.w3.org/2000/svg">
<path fill-rule="evenodd" clip-rule="evenodd" d="M106.309 50.0948C144.861 48.8239 183.588 60.2592 209.092 89.0362C236.134 119.548 249.322 161.289 239.944 200.877C230.636 240.165 199.359 269.686 162.361 286.289C126.583 302.343 83.5893 306.811 50.4391 285.912C20.2508 266.88 19.6154 226.669 12.5312 191.83C5.80088 158.731 -6.9357 123.753 11.7295 95.5423C31.9775 64.9395 69.4906 51.3085 106.309 50.0948Z" fill="#F9F4F0" stroke="url(#paint0_linear)" stroke-width="4"/>
<path d="M63.5984 172.343C62.8069 169.441 60.7147 167.486 59.4623 166.315C56.8819 163.907 55.4547 164.055 53.5445 162.5C52.7659 161.87 49.8037 159.244 49.0917 149.644C48.4968 141.704 50.0107 136.478 50.4575 133.213C51.3697 126.583 49.4618 116.798 36.7894 103.161C45.5412 104.712 49.7845 108.231 52.0321 111.109C55.1696 115.122 54.7701 118.311 60.8321 134.545C62.3901 138.712 63.4231 141.203 66.0192 142.884C69.895 145.395 72.8471 143.25 76.7093 145.932C80.9044 148.844 81.7322 154.391 81.8615 155.216C82.602 160.11 80.1727 161.16 81.0971 165.797C81.7761 169.234 83.6975 171.595 85.899 174.311C89.4643 178.704 90.5508 177.827 93.2214 181.214C96.5553 185.439 97.694 190.407 98.935 195.82C100.032 200.616 99.7616 202.106 101.461 204.44C103.677 207.469 105.442 206.721 108.468 209.628C110.856 211.913 110.953 213.528 114.636 222.168C116.81 227.267 117.896 229.816 118.843 231.418C120.72 234.583 124.085 238.875 130.543 242.836C123.175 238.897 114.038 233.795 104.757 228.056C104.757 228.056 99.9659 225.095 93.6882 220.068C86.5267 214.34 85.4518 212.277 84.9298 211.03C82.9173 206.204 85.3065 204.124 82.8583 200.344C81.4532 198.176 79.1539 196.908 74.5558 194.351C70.012 191.834 69.1608 192.167 67.1325 190.292C66.3964 189.615 63.3697 186.827 62.6808 182.548C61.9095 177.887 64.7403 176.517 63.5984 172.343Z" fill="url(#paint1_linear)"/>
<path d="M97.0598 175.969C100.999 181.404 100.341 182.924 104.737 190.666C106.516 193.794 109.355 198.353 113.591 203.561C119.598 218.29 127.41 236.188 137.308 256.208C143.731 269.206 149.307 279.583 155.437 290.737L151.154 272.446C151.264 266.837 152.093 262.487 152.794 259.662C154.61 252.293 156.648 250.564 156.387 245.462C156.102 239.987 153.417 239.714 153.93 234.951C154.381 230.773 156.358 229.391 158.728 223C159.874 219.909 161.103 216.58 161.391 212.485C162.02 203.369 157.216 200.961 159.178 195.358C160.463 191.693 162.618 192.463 167.306 185.619C170.22 181.369 171.672 179.25 171.618 176.687C171.547 173.366 169.456 172.494 164.889 163.937C163.243 160.858 162.42 159.31 162.262 158.161C161.578 153.15 165.345 150.954 168.285 143.794C168.953 142.177 171.064 136.661 170.876 130.058C170.787 127.036 170.155 121.419 166.318 114.926C166.853 118.747 167.169 124.59 165.337 131.183C163.361 138.297 159.748 143.156 155.604 148.632C146.189 161.07 140.458 162.373 140.472 168.536C140.489 174.725 146.276 176.868 144.89 182.337C143.848 186.437 140.355 186.149 137.147 191.9C136.384 193.268 133.304 198.797 134.59 204.691C136.138 211.76 142.479 212.539 142.439 217.861C142.407 222.578 137.431 222.918 136.346 229.007C135.583 233.281 137.531 235.32 139.433 242.948C140.765 248.32 141.161 252.897 141.284 256.012C136.752 248.232 132.17 239.681 127.713 230.363C122.874 220.244 118.828 210.566 115.434 201.521C115.484 193.297 115.253 186.357 114.992 181.054C114.578 172.932 114.419 168.776 113.304 165.082C111.503 159.139 109.543 157.534 109.762 153.206C110.052 147.534 113.572 147.199 115.155 140.52C116.671 134.117 114.912 128.165 113.677 123.988L113.677 123.988C112.099 118.655 110.647 117.565 109.574 111.902C108.809 107.895 108.343 105.409 108.974 102.407C110.674 94.3433 118.109 93.121 118.042 87.5838C117.999 84.1225 115.07 83.4133 110.474 77.0746C106.1 71.0447 103.917 65.0212 103.08 61.8388C100.546 52.2202 104.914 48.3199 105.491 37.4868C106.33 21.6409 98.1383 7.89776 95.954 8.34448C92.7935 8.98913 105.284 38.7562 91.1288 57.0408C88.2209 60.8055 82.2902 66.5192 80.2054 75.9604C79.4874 79.2304 78.5342 83.8466 80.9118 87.7316C82.9775 91.1114 85.8629 91.1842 86.7286 94.39C87.4871 97.1797 86.02 99.8244 83.9332 103.571C80.7574 109.271 78.8716 109.072 77.5208 112.994C75.6664 118.394 77.6453 123.426 77.8768 123.995C79.4738 127.907 81.3788 127.587 85.1296 132.789L85.1357 132.797C87.5962 136.205 90.4418 140.145 90.1774 144.909C89.971 148.703 88.022 148.806 87.2035 153.698C86.3349 158.941 87.9464 163.265 88.5048 164.733C90.4454 169.801 92.7246 170.004 97.0598 175.969Z" fill="url(#paint2_linear)"/>
<defs>
<linearGradient id="paint0_linear" x1="-68.3766" y1="387.963" x2="330.606" y2="359.673" gradientUnits="userSpaceOnUse">
<stop stop-color="#FEA450"/>
<stop offset="1" stop-color="#E25576"/>
</linearGradient>
<linearGradient id="paint1_linear" x1="164.718" y1="291.441" x2="107.323" y2="316.399" gradientUnits="userSpaceOnUse">
<stop stop-color="#FEA450"/>
<stop offset="1" stop-color="#E25576"/>
</linearGradient>
<linearGradient id="paint2_linear" x1="296.308" y1="335.549" x2="155.973" y2="395.365" gradientUnits="userSpaceOnUse">
<stop stop-color="#FEA450"/>
<stop offset="1" stop-color="#E25576"/>
</linearGradient>
</defs>
</svg>
