<svg width="981" height="774" viewBox="0 0 981 774" fill="none" xmlns="http://www.w3.org/2000/svg">
<path d="M672.192 57.1316C678.682 56.8416 690.432 56.1916 705.872 55.5016C727.882 52.5416 749.892 49.5816 771.902 46.6216C781.382 47.8116 790.862 48.9916 800.342 50.1816C800.492 58.0116 800.652 65.8416 800.802 73.6816C789.932 75.0716 779.052 76.4616 768.182 77.8516C762.872 94.7516 757.562 111.652 752.262 128.552C722.642 129.632 693.012 130.722 663.392 131.802C665.072 118.812 666.742 105.822 668.422 92.8416C661.192 97.4916 653.952 102.142 646.722 106.802C635.972 102.332 625.222 97.8616 614.462 93.3916C623.762 85.1716 633.062 76.9616 642.372 68.7416C645.002 66.2916 647.432 64.7216 649.172 63.7416C650.922 62.7616 652.392 62.1416 654.262 61.3516C655.922 60.6516 658.362 59.6116 661.142 58.8116C665.872 57.4316 669.762 57.2416 672.192 57.1316Z" fill="#F9F4F0" stroke="#13233D" stroke-miterlimit="10" stroke-linejoin="round"/>
<path d="M852.369 686.627C769.372 735.914 659.797 750.763 577.613 700.56C549.768 683.551 532.318 658.949 520.592 630.296C518.398 624.935 510.946 623.939 507.447 628.555C486.355 656.378 459.518 678.848 425.07 684.548C375.474 692.756 319.5 679.225 289.125 639.315C287.582 637.287 284.397 637.354 283.027 639.504C276.978 649.005 269.598 658.284 260.906 667.48C225.233 705.222 187 724.812 136.249 713.796C88.5515 703.444 60.1194 675.255 44.3882 629.052C29.7639 586.099 33.9054 551.249 59.6234 513.868C83.8804 478.61 120.276 468.391 154.408 458.866C158.914 457.609 163.359 456.262 167.766 454.928C193.408 447.161 217.736 439.792 245.214 452.638C265.33 462.041 277.392 475.563 285.609 492.508C287.159 495.704 292.192 495.21 292.814 491.712C299.284 455.305 305.851 418.354 335.698 397.053C372.799 370.576 422.683 365.127 464.933 382.249C468.047 383.511 471.513 380.933 471.028 377.609C463.652 327.017 463.757 277.712 491.897 234.676C539.794 161.423 625.231 116.87 712.76 118.022C798.059 119.144 871.306 172.417 922.563 240.342C971.244 304.853 987.068 384.96 974.498 464.874C960.719 552.481 928.787 641.247 852.369 686.627Z" fill="#F9F4F0"/>
<path d="M581.185 658.902L582.237 657.202L581.185 658.902ZM834.025 645.918L832.994 644.204L834.025 645.918ZM514.102 631.54L512.515 630.323L514.102 631.54ZM394.002 686.626L393.652 688.596L394.002 686.626ZM324.336 617.05L322.591 618.026L324.336 617.05ZM311.968 595.609L310.264 596.656L311.968 595.609ZM298.174 587.884L300.151 588.184L298.174 587.884ZM238.546 658.101L237.572 656.354L238.546 658.101ZM112.464 658.101L113.384 656.326L112.464 658.101ZM39.3649 558.709L37.3697 558.849L39.3649 558.709ZM90.4963 454.381L89.3366 452.751L90.4963 454.381ZM196.168 437.887L196.801 435.99L196.168 437.887ZM274.074 491.42L272.114 491.019L274.074 491.42ZM352.125 399.508L352.84 401.375L352.125 399.508ZM467.149 417.498L468.204 415.799L467.149 417.498ZM492.486 410.428L490.523 410.813L492.486 410.428ZM502.305 224.733L500.625 223.648L502.305 224.733ZM705.552 116.02L705.526 118.02L705.552 116.02ZM898.621 230.014L900.224 228.819L898.621 230.014ZM946.413 439.261L944.437 438.954L946.413 439.261ZM494.049 439.652L495.514 438.291L494.049 439.652ZM272.638 507.176L274.638 507.136L272.638 507.176ZM298.576 584.828L296.588 584.609L298.576 584.828ZM539.476 615.521L537.75 616.531L539.476 615.521ZM523.675 616.27L525.461 617.169L523.675 616.27ZM580.133 660.603C656.601 707.908 758.271 693.809 835.056 647.632L832.994 644.204C757.025 689.891 657.025 703.467 582.237 657.202L580.133 660.603ZM537.75 616.531C547.987 634.024 561.593 649.134 580.133 660.603L582.237 657.202C564.322 646.119 551.153 631.516 541.202 614.511L537.75 616.531ZM515.689 632.757C519.5 627.788 522.738 622.576 525.461 617.169L521.888 615.37C519.274 620.561 516.169 625.559 512.515 630.323L515.689 632.757ZM393.652 688.596C440.085 696.849 487.031 670.129 515.689 632.757L512.515 630.323C484.425 666.953 438.835 692.564 394.352 684.657L393.652 688.596ZM322.591 618.026C331.367 633.724 340.339 649.788 351.442 662.671C362.582 675.595 375.978 685.454 393.652 688.596L394.352 684.657C377.863 681.726 365.226 672.536 354.472 660.059C343.683 647.54 334.904 631.853 326.082 616.074L322.591 618.026ZM310.264 596.656C314.477 603.513 318.514 610.733 322.591 618.026L326.082 616.074C322.013 608.795 317.936 601.502 313.672 594.562L310.264 596.656ZM302.567 584.386C305.169 588.491 307.756 592.574 310.264 596.656L313.672 594.562C311.147 590.452 308.545 586.346 305.946 582.245L302.567 584.386ZM296.588 584.609C296.479 585.589 296.35 586.58 296.197 587.583L300.151 588.184C300.312 587.128 300.449 586.082 300.563 585.047L296.588 584.609ZM296.197 587.583C290.908 622.344 268.769 638.963 237.572 656.354L239.52 659.848C270.896 642.357 294.563 624.914 300.151 588.184L296.197 587.583ZM237.572 656.354C216.254 668.239 196.031 673.798 175.784 673.634C155.527 673.47 135.101 667.575 113.384 656.326L111.544 659.877C133.664 671.335 154.711 677.463 175.752 677.634C196.804 677.804 217.704 672.01 239.52 659.848L237.572 656.354ZM113.384 656.326C92.2624 645.385 75.0989 632.769 62.8013 617.014C50.5263 601.288 43.0217 582.335 41.36 558.57L37.3697 558.849C39.0837 583.361 46.8546 603.085 59.6481 619.475C72.4192 635.837 90.1173 648.778 111.544 659.877L113.384 656.326ZM41.36 558.57C39.7948 536.186 43.3464 517.009 51.7488 500.234C60.1558 483.45 73.4823 468.945 91.656 456.01L89.3366 452.751C70.7629 465.97 56.9374 480.944 48.1724 498.443C39.4028 515.951 35.7623 535.861 37.3697 558.849L41.36 558.57ZM91.656 456.01C108.552 443.985 124.771 436.709 141.585 434.031C158.395 431.354 175.944 433.249 195.535 439.785L196.801 435.99C176.734 429.296 158.527 427.282 140.956 430.08C123.39 432.878 106.602 440.463 89.3366 452.751L91.656 456.01ZM195.535 439.785C232.16 452.001 250.25 481.224 267.52 509.334L270.928 507.24C253.746 479.272 234.987 448.728 196.801 435.99L195.535 439.785ZM272.114 491.019C270.988 496.519 270.532 501.914 270.638 507.216L274.638 507.136C274.537 502.121 274.968 497.022 276.033 491.821L272.114 491.019ZM351.41 397.64C311.536 412.906 280.77 448.751 272.114 491.019L276.033 491.821C284.412 450.904 314.231 416.157 352.84 401.375L351.41 397.64ZM468.204 415.799C433.142 394.042 390.457 382.69 351.41 397.64L352.84 401.375C390.274 387.043 431.611 397.8 466.095 419.198L468.204 415.799ZM495.514 438.291C487.555 429.728 478.444 422.153 468.204 415.799L466.095 419.198C476.026 425.361 484.863 432.706 492.584 441.014L495.514 438.291ZM490.523 410.813C492.324 419.998 494.117 429.147 495.77 438.241L499.705 437.526C498.047 428.4 496.248 419.223 494.448 410.043L490.523 410.813ZM500.625 223.648C464.652 279.364 477.838 346.11 490.523 410.813L494.448 410.043C481.685 344.938 469.043 279.938 503.986 225.818L500.625 223.648ZM705.579 114.02C624.35 112.938 545.08 154.797 500.625 223.648L503.986 225.818C547.685 158.136 625.659 116.956 705.526 118.02L705.579 114.02ZM900.224 228.819C852.856 165.25 784.937 115.078 705.579 114.02L705.526 118.02C783.158 119.055 850.048 168.176 897.017 231.209L900.224 228.819ZM948.389 439.568C960.026 364.643 945.388 289.429 900.224 228.819L897.017 231.209C941.449 290.837 955.934 364.931 944.437 438.954L948.389 439.568ZM835.056 647.632C906.179 604.86 935.688 521.344 948.389 439.568L944.437 438.954C931.777 520.463 902.516 602.395 832.994 644.204L835.056 647.632ZM492.584 441.014C493.978 442.513 495.971 442.604 497.423 441.912C498.886 441.216 500.079 439.585 499.705 437.526L495.77 438.241C495.775 438.271 495.772 438.277 495.773 438.266C495.775 438.257 495.779 438.248 495.781 438.244C495.783 438.241 495.765 438.272 495.704 438.301C495.643 438.329 495.592 438.331 495.568 438.328C495.559 438.327 495.555 438.325 495.552 438.323C495.551 438.322 495.537 438.315 495.514 438.291L492.584 441.014ZM267.52 509.334C268.586 511.068 270.519 511.343 271.924 510.879C273.316 510.419 274.677 509.09 274.638 507.136L270.638 507.216C270.638 507.203 270.641 507.177 270.652 507.144C270.663 507.113 270.677 507.091 270.687 507.079C270.702 507.059 270.699 507.071 270.67 507.081C270.641 507.09 270.658 507.074 270.724 507.094C270.761 507.104 270.806 507.125 270.849 507.157C270.893 507.191 270.919 507.224 270.928 507.24L267.52 509.334ZM305.946 582.245C304.626 580.163 302.264 579.769 300.455 580.262C298.656 580.752 296.847 582.254 296.588 584.609L300.563 585.047C300.603 584.691 300.904 584.285 301.507 584.121C302.098 583.96 302.427 584.166 302.567 584.386L305.946 582.245ZM541.202 614.511C539.078 610.882 535.053 609.389 531.337 609.579C527.624 609.77 523.757 611.659 521.888 615.37L525.461 617.169C526.542 615.023 528.92 613.709 531.542 613.574C534.161 613.44 536.562 614.501 537.75 616.531L541.202 614.511Z" fill="url(#paint0_linear)"/>
<path d="M691.599 156.66C691.869 158.6 690.509 160.38 688.579 160.65C686.649 160.92 684.859 159.56 684.589 157.63C684.859 159.57 683.499 161.35 681.569 161.62C679.639 161.89 677.849 160.53 677.579 158.6C677.399 156.97 676.919 153.38 675.589 150.15C675.079 148.9 674.559 148.01 674.089 147.31C673.519 146.46 672.799 145.39 671.699 144.62C670.179 143.55 668.509 143.45 667.659 143.42C643.019 142.42 618.119 142.97 618.119 142.97C618.119 142.97 613.979 143.06 607.049 142.22C600.559 141.44 598.829 140.6 597.619 139.83C596.819 139.32 592.769 136.61 591.629 131.6C591.429 130.73 590.979 128.37 592.079 124.27C593.709 118.16 597.189 114.1 598.809 112.19C603.689 106.47 608.799 100.29 614.839 93C625.589 97.47 636.339 101.94 647.079 106.39C645.439 107.79 643.789 109.2 642.139 110.6C653.509 110.76 664.869 110.91 676.239 111.07C678.079 111.27 680.799 111.79 683.789 113.21C684.449 113.52 687.549 115.03 690.779 118.24C693.929 121.38 695.509 124.44 696.929 127.28C697.629 128.67 698.789 131.93 701.119 138.46C701.939 140.76 702.719 143.02 703.539 146.01C703.839 147.11 704.229 148.45 704.609 150.03C704.909 151.24 705.269 152.83 705.619 154.74C705.889 156.68 704.529 158.46 702.599 158.73C700.659 159 698.879 157.64 698.609 155.71C698.879 157.65 697.519 159.43 695.589 159.7C693.649 159.95 691.859 158.6 691.599 156.66Z" fill="#F9F4F0" stroke="#13233D" stroke-miterlimit="10" stroke-linejoin="round"/>
<path d="M144.22 526.73C138.76 525.06 133.31 523.4 127.85 521.73C114.16 547.88 100.48 574.02 86.7897 600.17C82.1397 599.88 79.2597 598.46 77.4597 597.15C76.2897 596.3 75.1797 595.21 72.7897 593.86C70.8397 592.75 69.5897 592.06 67.8497 591.94C67.4397 591.91 66.7097 591.89 62.6297 593.04C59.0297 594.05 59.3197 594.15 57.9597 594.41C56.4497 594.71 53.8297 595.22 51.0997 594.41C48.6497 593.68 48.2297 592.52 46.4297 591.66C44.4397 590.71 35.7397 593.03 35.7397 593.03L38 623.5C38 623.5 76.6597 630.22 98.3597 633.45C101.04 630.64 103.71 627.83 106.39 625.02C96.6797 635.21 86.9697 645.4 77.2597 655.59C75.4597 655.85 72.2497 656.59 69.2997 659.03C62.6197 664.54 63.3897 673.61 63.4897 674.53C70.5897 683.21 77.6997 691.89 84.7997 700.58C102.14 677.48 119.49 654.38 136.83 631.28C149.44 599.52 162.06 567.77 174.67 536.01C164.53 532.93 154.38 529.83 144.22 526.73Z" fill="url(#paint1_linear)"/>
<path d="M25 595C24.386 611.728 23.5624 626.907 22.9485 643.636C24.2518 642.59 25.7244 641.171 27.0726 639.269C30.7553 634.093 31 622 31 622C31 622 35.6373 623.339 37.4964 623.001C37.0606 611.796 35.928 604.676 35.4982 593.463C31.9239 594.147 28.5742 594.316 25 595Z" fill="#F9F4F0" stroke="#13233D" stroke-miterlimit="10" stroke-linecap="round" stroke-linejoin="round"/>
<path d="M142.49 559.67C139.88 557.84 137.28 556.01 134.67 554.18M134.67 554.18C132.06 552.35 129.46 550.52 126.85 548.69L134.67 554.18ZM134.67 554.18C125.25 577.8 115.83 601.41 106.41 625.03L97 634" stroke="#F9F4F0" stroke-miterlimit="10" stroke-linecap="round" stroke-linejoin="round"/>
<path d="M56.1699 682.65C65.7599 696.37 75.3399 710.08 84.9299 723.8C85.3399 722.18 85.6599 720.16 85.5899 717.83C85.4099 711.48 82.4699 706.85 80.9399 704.78C82.2299 703.39 83.5199 701.99 84.7999 700.6C77.6999 691.92 70.5899 683.24 63.4899 674.55C61.0499 677.25 58.6099 679.95 56.1699 682.65Z" fill="#F9F4F0" stroke="#13233D" stroke-miterlimit="10" stroke-linecap="round" stroke-linejoin="round"/>
<path d="M230.6 468.98L220.74 494.22C194.99 492.29 169.24 490.36 143.49 488.43C123.87 482.7 110.7 485.87 104.75 487.88C96.2699 490.73 85.5999 496.89 80.7199 499.7C75.9099 502.48 72.0299 504.97 69.3799 506.73C73.5399 512.78 77.6999 518.83 81.8499 524.88C87.4999 520.71 94.9799 515.99 104.3 511.95C115.3 507.18 125.4 504.87 133.35 503.72L127.85 521.73L174.68 536.03L184.68 512.39C198.54 513.67 212.41 514.96 226.27 516.24C226.9 516.33 230.36 516.74 233.18 514.35C234.58 513.16 235.25 511.77 235.56 510.95C240.36 499.48 245.15 488.02 249.95 476.55L230.6 468.98Z" fill="#F9F4F0" stroke="#13233D" stroke-miterlimit="10" stroke-linecap="round" stroke-linejoin="round"/>
<path d="M230.6 468.98C232.06 464.36 233.53 459.75 234.99 455.13C233.77 452.59 232.87 450.35 232.22 448.55C231.71 447.13 230.88 444.71 231.18 441.97C231.28 441.09 231.48 440.25 232.13 439.89C232.87 439.48 233.83 439.9 234.19 440.06C234.96 440.4 235.4 440.91 235.99 441.61C236.36 442.04 236.83 442.67 237.28 443.5C237.24 440.77 237.47 438.56 237.71 436.97C237.71 436.97 237.93 435.5 238.83 433.1C239.32 431.79 239.69 431.13 240.38 430.87C240.81 430.71 241.42 430.69 241.93 430.96C242.38 431.2 242.6 431.58 242.79 431.91C242.98 432.24 243.06 432.5 243.31 433.54C243.44 434.1 243.56 434.59 243.65 435C243.8 433.79 244.14 432.86 244.42 432.25C244.83 431.37 245.11 430.77 245.71 430.62C246.46 430.43 247.22 431.05 247.43 431.22C247.63 431.38 248.02 431.7 248.2 432.25C248.34 432.67 248.24 432.9 248.29 433.8C248.31 434.21 248.35 434.54 248.38 434.75C248.84 433.67 249.43 432.95 249.84 432.52C250.48 431.85 250.88 431.71 251.04 431.66C251.59 431.5 252.41 431.51 252.93 432C253.22 432.28 253.3 432.6 253.45 433.2C253.56 433.67 253.68 434.38 253.62 435.26C253.61 435.17 253.49 433.7 254.57 432.94C254.69 432.86 255.4 432.35 256.2 432.6C256.95 432.83 257.27 433.57 257.4 433.89C257.84 434.91 257.62 435.91 257.57 436.12C257.22 437.79 256.86 442.99 256.48 450.41C256.62 453.31 256.68 455.81 256.71 457.78C256.76 462.04 256.64 463.29 256.23 464.77C255.66 466.8 254.75 468.53 254.48 469.04C253.88 470.17 253.53 470.6 252.5 472.22C251.88 473.21 250.98 474.68 249.95 476.55C243.5 474.03 237.05 471.5 230.6 468.98Z" fill="#F9F4F0" stroke="#13233D" stroke-miterlimit="10" stroke-linecap="round" stroke-linejoin="round"/>
<path d="M69.3699 506.74C59.7699 513.07 50.1799 519.39 40.5799 525.72C40.2299 525.89 39.2599 526.41 38.7499 527.55C38.6399 527.8 37.9699 529.29 38.7499 530.29C39.2599 530.95 40.1299 531.05 40.4599 531.09C41.1899 531.18 41.7699 530.98 42.0599 530.86C41.8099 531.03 40.7099 531.82 40.4599 533.26C40.4099 533.56 40.1899 534.85 41.0299 535.78C41.5599 536.35 42.2299 536.5 42.6299 536.58C43.9499 536.86 45.0499 536.35 45.4899 536.12C45.1699 536.36 44.2499 537.12 43.9999 538.41C43.9199 538.84 43.7299 539.82 44.3399 540.58C44.9299 541.32 45.8799 541.37 46.1699 541.38C47.3399 541.44 48.1499 540.75 48.3399 540.58C48.0699 540.75 47.1699 541.36 46.8499 542.52C46.7599 542.84 46.4899 543.87 47.0799 544.69C47.5899 545.4 48.4399 545.53 48.9099 545.6C50.4099 545.83 51.5999 545.07 51.9999 544.8C54.3999 543.12 56.7999 541.45 59.1999 539.77C59.2399 540.85 59.1099 541.7 58.9699 542.29C58.6899 543.49 58.2999 544.06 58.3999 545.15C58.4399 545.63 58.4999 546.27 58.9699 546.64C59.7699 547.26 61.1099 546.6 61.2599 546.53C61.9799 546.16 62.4699 545.56 63.1999 544.13C63.9999 542.57 64.2599 541.64 64.6899 540.59C65.5799 538.37 66.6499 536.85 67.3199 535.9C67.9699 534.98 69.0799 533.43 70.8599 531.9C72.2199 530.73 73.2399 530.2 74.8599 529.27C76.5199 528.31 78.9199 526.87 81.8199 524.9C77.6899 518.83 73.5299 512.78 69.3699 506.74Z" fill="#F9F4F0" stroke="#13233D" stroke-miterlimit="10" stroke-linecap="round" stroke-linejoin="round"/>
<path d="M184.38 469.67C184.38 465.36 180.88 461.86 176.57 461.86C172.26 461.86 168.76 465.36 168.76 469.67C168.76 471.64 169.5 473.44 170.71 474.82C167.56 479.8 164.42 484.78 161.27 489.77C165.5 490.09 169.72 490.4 173.95 490.72C175.42 486.24 176.9 481.75 178.37 477.27C181.81 476.46 184.38 473.37 184.38 469.67Z" fill="#F9F4F0" stroke="#13233D" stroke-miterlimit="10" stroke-linecap="round" stroke-linejoin="round"/>
<path d="M181.79 461.98C179.8 463.71 177.82 465.44 175.83 467.17C175.51 467.12 174.23 466.95 173.18 467.76C171.67 468.91 171.95 471.03 172 471.44C172.29 473.62 174.06 474.79 174.36 474.98C174.07 475.82 173.77 476.65 173.48 477.49C173.02 477.45 170.77 477.23 169.06 475.28C167.46 473.45 167.43 471.36 167.44 470.86C166.92 472.23 166.2 474.31 165.52 476.9C164.37 481.34 164.2 484.1 163.9 485.89C162.42 494.63 154.16 500.56 153.44 501.07C151.43 502.47 143.54 507.99 134.58 505.2C128.87 503.42 124.32 498.76 122.35 493.71C119.14 485.45 123.77 481.2 119.99 476.17C115.98 470.83 108.64 473.24 105.6 467.38C103.74 463.81 104.95 459.98 105.11 459.52C107.65 451.88 119.75 448.31 128.83 449.94C136.42 451.31 142.41 456.42 144.3 458.04C149.91 462.83 151.21 466.75 156.24 468.21C160.37 469.41 164.35 468.19 167 467.03C167.06 466.8 168.56 461.67 173.66 460.32C177.98 459.16 181.38 461.66 181.79 461.98Z" fill="url(#paint2_linear)"/>
<path d="M241.47 613.61C233.54 650.49 231.1 663.08 231.04 664.9C231.03 665.15 231.03 666.44 230.46 667.98C230.32 668.36 229.89 669.46 228.92 670.67C227.59 672.34 226.06 673.22 225.07 673.75C221.02 675.94 217.19 677.24 216.03 677.62C213.81 678.36 210.92 679.29 207.47 680.25C207.35 680.26 206 680.36 205.39 681.46C205.29 681.64 204.79 682.53 205.28 683.32C205.76 684.1 206.76 684.09 206.82 684.09C206.73 684.18 205.99 684.94 206.16 685.95C206.34 687.03 207.41 687.47 207.7 687.6C209.01 688.15 210.26 687.48 210.44 687.38C210.32 687.62 210.02 688.28 210.22 689.03C210.51 690.1 211.6 690.53 211.98 690.68C213.89 691.42 215.81 690.08 216.04 689.91C216.08 690.27 216.21 690.79 216.59 691.23C217.41 692.17 218.83 692.09 220.1 692C221.22 691.92 223.08 691.63 225.26 690.46C227.89 689.4 230.53 688.34 233.16 687.28C232.95 687.72 232.69 688.4 232.61 689.25C232.55 689.91 232.44 690.97 232.94 691.66C233.75 692.8 235.86 692.56 236.89 692.43C239.6 692.08 241.34 690.95 243.36 689.8C249.2 686.47 249.7 687.31 253.56 684.53C256.89 682.13 257.94 680.48 258.28 679.92C259.21 678.36 259.58 676.95 260.14 674.76C261.05 671.21 261.22 668.42 261.24 668.18C261.47 664.89 263.15 653.55 268.74 621.63C259.65 618.96 250.56 616.28 241.47 613.61Z" fill="#F9F4F0" stroke="#13233D" stroke-miterlimit="10" stroke-linecap="round" stroke-linejoin="round"/>
<path d="M365.54 582.37C366.24 581.12 369.44 575.31 375.05 568.9C379.74 563.54 382.46 561.94 383.76 561.24C385.07 560.54 389.39 558.4 395.38 558.34C397.3 558.32 402.47 558.33 407.53 561.24C410.9 563.19 413.07 565.76 417.04 572.33C422.74 581.76 426.57 590.18 430.51 599.26C434.69 608.92 436.32 612.99 436.32 612.99C440.35 623.02 444.36 633.08 448.37 643.18C451.09 650.02 453.79 656.86 456.48 663.68C441.29 665.99 426.1 668.29 410.9 670.6C410.87 668.14 410.65 664.36 409.63 659.9C406.99 648.35 401.33 642.56 397.6 635.43C394.42 629.35 391.3 619.74 392.87 605C388.92 614.17 384.97 623.33 381.03 632.5C369.45 637.53 357.87 642.55 346.29 647.58C347.52 634.82 348.75 622.06 349.99 609.29C356.45 598.34 361.4 589.79 365.54 582.37Z" fill="url(#paint3_linear)"/>
<path d="M285.84 643.61C305.91 628.02 325.99 612.43 346.06 596.84C347.36 600.99 348.66 605.15 349.96 609.3C348.73 622.06 347.5 634.82 346.26 647.59C366.08 638.99 385.91 630.38 405.73 621.78C411.15 619.52 415.86 618.12 419.4 617.23C423.5 616.2 426.92 615.32 431.55 615.12C435.23 614.96 439.53 615.2 445.04 616.44C456.1 618.92 464.07 623.61 465.35 624.36C473.54 629.11 492.67 637.4 539.28 652.88C530.83 664.15 522.38 675.41 513.93 686.68C502.7 686.81 496.87 683.65 493.6 680.61C492.09 679.2 491.23 677.91 488.85 676.12C482.93 671.67 476.67 670.92 474.94 670.65C469.13 669.72 459.49 665.3 442.64 649.98C423.54 657.75 404.76 665.21 385.61 672.69C379.71 674.99 369.95 678.74 356.57 681.14C343.8 683.43 337.41 684.57 329.64 682.72C314.85 679.21 305.16 668.05 296.37 657.9C291.55 652.32 288.1 647.24 285.84 643.61Z" fill="url(#paint4_linear)" stroke="#F9F4F0" stroke-miterlimit="10"/>
<path d="M410.89 670.6C412.62 675.18 414.35 679.77 416.07 684.35C438.61 684.35 461.15 684.35 483.7 684.35C482.69 683.07 481.43 681.75 479.87 680.52C472.84 674.98 464.48 675.1 461.16 675.34C459.6 671.46 458.03 667.57 456.47 663.69C441.27 665.99 426.08 668.3 410.89 670.6Z" fill="#F9F4F0" stroke="#13233D" stroke-miterlimit="10" stroke-linecap="round" stroke-linejoin="round"/>
<path d="M513.93 686.66C520.65 688.56 527.38 690.46 534.1 692.36C545.33 677.37 556.55 662.38 567.78 647.38C566.21 647.4 564.26 647.6 562.14 648.28C555.95 650.27 552.54 654.96 551.32 656.85C547.3 655.52 543.29 654.19 539.27 652.87C530.83 664.13 522.38 675.4 513.93 686.66Z" fill="#F9F4F0" stroke="#13233D" stroke-miterlimit="10" stroke-linecap="round" stroke-linejoin="round"/>
<path d="M295.78 561.91C291.44 555.08 287.11 548.24 282.77 541.41C283.87 539.75 284.51 537.75 284.51 535.61C284.51 529.78 279.78 525.05 273.95 525.05C268.12 525.05 263.39 529.78 263.39 535.61C263.39 541.16 267.68 545.7 273.12 546.12C274.71 551.91 276.31 557.7 277.9 563.48C283.86 562.96 289.82 562.43 295.78 561.91Z" fill="#F9F4F0" stroke="#13233D" stroke-miterlimit="10" stroke-linecap="round" stroke-linejoin="round"/>
<path d="M356.01 552.01C360.14 551.46 364.27 550.91 368.4 550.36C374.26 539.18 378.58 530.07 381.21 524.39C381.21 524.39 398.41 487.17 422.34 456.41C423.27 455.21 423.99 455.12 424.32 455.14C425.49 455.18 426.11 456.45 426.3 456.84C426.9 458.06 426.68 459.29 426.58 459.81C425.83 463.76 420.14 471.77 419.78 472.28C420.24 472.15 421.39 471.91 422.61 472.42C423.35 472.73 423.79 473.17 423.88 473.27C424.61 474.02 424.81 474.89 424.87 475.25C425.73 474.78 426.77 474.87 427.45 475.46C427.98 475.92 428.08 476.62 428.17 477.21C428.29 478 428.17 478.66 428.07 479.07C428.49 478.96 429.14 478.86 429.72 479.17C430.56 479.62 430.83 480.71 430.96 482.16C431.24 485.33 430.66 488.04 430.13 490C429.18 493.52 428.67 495.29 427.14 495.88C426.2 496.24 425.23 496.02 424.56 495.78C415.79 518.02 407.03 540.26 398.26 562.5C397.71 564.63 396.45 568.32 393.41 571.88C392.49 572.96 390.38 575.39 386.91 577.14C383.1 579.06 379.74 579.1 376.18 579.2C371.85 579.33 365.66 579.6 357.65 580.27C357.12 570.85 356.56 561.43 356.01 552.01Z" fill="#F9F4F0" stroke="#13233D" stroke-miterlimit="10" stroke-linecap="round" stroke-linejoin="round"/>
<path d="M356.01 552.01C346.46 552.57 336.91 553.13 327.36 553.68C321 553.62 313.51 554.02 305.2 555.35C298.17 556.48 291.93 558.07 286.59 559.74C279.93 559.73 273.27 559.72 266.61 559.71C264.95 559.64 262.3 559.79 259.49 561.13C252.29 564.58 251.01 572.43 250.91 573.11L241.48 613.59C250.57 616.27 259.66 618.94 268.74 621.62C268.85 620.35 268.96 619.08 269.06 617.81C274.65 626.4 280.24 635 285.84 643.59C305.91 628 325.99 612.41 346.06 596.82C343.67 591.3 341.27 585.78 338.88 580.25H357.68C357.12 570.85 356.56 561.43 356.01 552.01Z" fill="#F9F4F0" stroke="#13233D" stroke-miterlimit="10" stroke-linecap="round" stroke-linejoin="round"/>
<path d="M408.04 478.96C409.66 478.04 411.09 477.43 412.13 477.03C415.62 475.69 416.85 475.97 417.36 476.12C417.8 476.25 418.94 476.59 419.41 477.6C420.02 478.89 419.09 480.38 418.84 480.78C418.16 481.88 417.24 482.42 415.32 483.39C413.89 484.11 412.1 484.97 409.98 485.89C410.26 486.54 410.62 487.6 410.66 488.96C410.68 489.58 410.7 490.46 410.32 491.46C409.75 492.95 408.63 493.81 408.05 494.19" fill="#F9F4F0"/>
<path d="M408.04 478.96C409.66 478.04 411.09 477.43 412.13 477.03C415.62 475.69 416.85 475.97 417.36 476.12C417.8 476.25 418.94 476.59 419.41 477.6C420.02 478.89 419.09 480.38 418.84 480.78C418.16 481.88 417.24 482.42 415.32 483.39C413.89 484.11 412.1 484.97 409.98 485.89C410.26 486.54 410.62 487.6 410.66 488.96C410.68 489.58 410.7 490.46 410.32 491.46C409.75 492.95 408.63 493.81 408.05 494.19" stroke="#13233D" stroke-miterlimit="10" stroke-linecap="round" stroke-linejoin="round"/>
<path d="M413.27 477.37C413.23 477.41 412.34 478.48 412.7 479.42C413.12 480.51 414.98 480.76 416.22 480.22C417.38 479.71 417.82 478.58 417.93 478.29" fill="#F9F4F0"/>
<path d="M413.27 477.37C413.23 477.41 412.34 478.48 412.7 479.42C413.12 480.51 414.98 480.76 416.22 480.22C417.38 479.71 417.82 478.58 417.93 478.29" stroke="#13233D" stroke-miterlimit="10" stroke-linecap="round" stroke-linejoin="round"/>
<path d="M415.89 484.64C415.82 484.8 415.35 485.87 415.89 487.03C415.93 487.11 416.55 488.39 417.94 488.62C419.14 488.82 420.41 488.13 421.01 486.91C421.84 484.83 422.68 482.74 423.51 480.66" fill="#F9F4F0"/>
<path d="M415.89 484.64C415.82 484.8 415.35 485.87 415.89 487.03C415.93 487.11 416.55 488.39 417.94 488.62C419.14 488.82 420.41 488.13 421.01 486.91C421.84 484.83 422.68 482.74 423.51 480.66" stroke="#13233D" stroke-miterlimit="10" stroke-linecap="round" stroke-linejoin="round"/>
<path d="M427.44 484.08C426.61 486.16 425.77 488.25 424.94 490.33C424.34 491.55 423.07 492.23 421.87 492.04C420.48 491.81 419.86 490.52 419.82 490.45" fill="#F9F4F0"/>
<path d="M427.44 484.08C426.61 486.16 425.77 488.25 424.94 490.33C424.34 491.55 423.07 492.23 421.87 492.04C420.48 491.81 419.86 490.52 419.82 490.45" stroke="#13233D" stroke-miterlimit="10" stroke-linecap="round" stroke-linejoin="round"/>
<path d="M421.35 485.54C421.35 485.48 421.26 484.1 420.36 483.66C419.31 483.15 417.78 484.25 417.25 485.5C416.76 486.66 417.21 487.79 417.34 488.08" fill="#F9F4F0"/>
<path d="M421.35 485.54C421.35 485.48 421.26 484.1 420.36 483.66C419.31 483.15 417.78 484.25 417.25 485.5C416.76 486.66 417.21 487.79 417.34 488.08" stroke="#13233D" stroke-miterlimit="10" stroke-linecap="round" stroke-linejoin="round"/>
<path d="M425.24 489.17C425.24 489.11 425.15 487.73 424.25 487.29C423.2 486.78 421.67 487.88 421.14 489.13C420.65 490.29 421.1 491.42 421.23 491.71" fill="#F9F4F0"/>
<path d="M425.24 489.17C425.24 489.11 425.15 487.73 424.25 487.29C423.2 486.78 421.67 487.88 421.14 489.13C420.65 490.29 421.1 491.42 421.23 491.71" stroke="#13233D" stroke-miterlimit="10" stroke-linecap="round" stroke-linejoin="round"/>
<path d="M428.95 492.73C428.95 492.67 428.86 491.29 427.96 490.85C426.91 490.34 425.38 491.44 424.85 492.69C424.36 493.85 424.81 494.98 424.94 495.27" fill="#F9F4F0"/>
<path d="M428.95 492.73C428.95 492.67 428.86 491.29 427.96 490.85C426.91 490.34 425.38 491.44 424.85 492.69C424.36 493.85 424.81 494.98 424.94 495.27" stroke="#13233D" stroke-miterlimit="10" stroke-linecap="round" stroke-linejoin="round"/>
<path d="M621.541 296C623.083 296.466 624.626 296.943 626.169 297.409C627.45 319.277 628.719 341.144 630 363C604.274 363 578.549 363 552.823 363C551.356 362.559 549.191 361.689 547.126 359.925C544.887 358.014 543.481 355.649 541.926 351.227C540.334 346.682 539.364 342.272 538.294 333.818C537.896 330.756 537.411 326.566 537 321.531C538.144 320.796 539.6 320.796 540.632 321.531C541.901 322.425 541.926 323.932 541.926 324.091C544.203 329.763 546.479 335.423 548.756 341.095C568.261 340.985 587.779 340.887 607.285 340.777C612.024 325.868 616.776 310.934 621.541 296Z" fill="#F9F4F0" stroke="#13233D" stroke-miterlimit="10" stroke-linecap="round" stroke-linejoin="round"/>
<path d="M626.502 362.306C618.516 370.4 606.017 382.654 589.884 396.776C566.407 417.334 561.759 418.633 545.885 433.981C530.246 449.105 527.514 454.848 505.162 479.949C489.709 497.301 476.543 510.804 468 519.344C478.026 532.563 488.04 545.794 498.066 559.012C505.879 553.108 510.713 547.279 513.643 543.145C518.625 536.103 519.33 532.253 524.844 525.904C529.752 520.26 532.447 519.579 538.777 514.418C550.546 504.826 550.917 499.331 564.466 484.318C568.175 480.208 573.899 474.255 581.687 467.633C603.829 446.469 625.958 425.317 648.1 404.152C645.454 429.636 643.822 457.757 643.996 488.154C644.268 533.021 648.434 573.32 654.108 608C672.059 608 690.01 608 707.948 608C708.133 603.817 707.935 597.418 705.488 590.214C703.485 584.335 701.841 583.358 700.839 578.444C699.319 570.968 701.902 567.23 702.755 559.012C703.312 553.591 702.31 548.281 700.295 537.674C698.75 529.543 696.216 518.651 691.827 505.94C694.386 448.623 696.945 391.317 699.504 334C674.754 334 650.004 334 625.254 334C625.674 343.444 626.094 352.875 626.502 362.306Z" fill="url(#paint5_linear)" stroke="url(#paint6_linear)" stroke-miterlimit="10"/>
<path d="M559 356C558.649 354.847 557.972 353.415 556.642 352.299C555.252 351.122 553.753 350.818 551.42 350.345C550.174 350.09 548.579 349.86 546.705 349.835C544.613 341.632 543.029 335.504 542.304 332.349C542.123 331.536 541.712 329.715 540.358 329.157C539.475 328.805 538.532 329.121 538 329.363" fill="#F9F4F0"/>
<path d="M559 356C558.649 354.847 557.972 353.415 556.642 352.299C555.252 351.122 553.753 350.818 551.42 350.345C550.174 350.09 548.579 349.86 546.705 349.835C544.613 341.632 543.029 335.504 542.304 332.349C542.123 331.536 541.712 329.715 540.358 329.157C539.475 328.805 538.532 329.121 538 329.363" stroke="#13233D" stroke-miterlimit="10" stroke-linecap="round" stroke-linejoin="round"/>
<path d="M690.97 260H643.184C633.956 260 626.4 267.346 625.682 276.695H625.67C624.109 282.94 622.561 289.197 621 295.442C622.536 295.937 624.072 296.419 625.608 296.913V334H700V269.312C699.988 264.167 695.95 260 690.97 260Z" fill="#F9F4F0" stroke="#13233D" stroke-miterlimit="10" stroke-linecap="round" stroke-linejoin="round"/>
<path d="M481.964 575C465.643 554.667 449.321 534.333 433 514C435.523 514.594 438.333 515.472 441.304 516.758C449.321 520.221 454.878 525.144 458.334 528.829C461.479 525.948 464.624 523.066 467.769 520.172C477.85 533.381 487.919 546.603 498 559.812C492.655 564.883 487.31 569.941 481.964 575Z" fill="#F9F4F0" stroke="#13233D" stroke-miterlimit="10" stroke-linecap="round" stroke-linejoin="round"/>
<path d="M669.772 284C679.177 286.091 688.595 288.182 698 290.273C689.244 315.803 680.489 341.332 671.733 366.861C671.208 368.094 670.234 369.973 668.473 371.803C667.499 372.811 665.675 374.716 662.865 375.575C659.78 376.521 657.144 375.724 654.122 374.79C648.938 373.21 645.541 370.434 645.116 370.11C639.321 365.592 622.584 353.518 599.789 336.976C597.266 335.569 595.005 334.723 593.332 334.212C591.721 333.727 588.286 332.818 583.877 332.831C581.304 332.843 580.017 332.843 578.568 333.515C576.907 334.287 575.558 335.619 573.722 337.424C572.973 338.158 572.386 338.805 571.986 339.241C571.611 339.49 570.837 339.913 569.8 339.963C569.251 340 567.889 340.075 567.065 339.141C566.315 338.307 566.253 336.913 566.877 335.681C566.378 335.781 565.466 335.893 564.417 335.594C563.755 335.407 562.456 335.021 561.856 333.777C561.144 332.283 562.044 330.739 562.131 330.59C561.669 330.603 560.582 330.553 559.483 329.868C559.146 329.657 557.897 328.847 557.472 327.229C556.935 325.163 558.234 323.508 558.384 323.321C558.134 323.371 556.785 323.62 555.549 322.773C554.012 321.715 554 319.898 554 319.674C554.012 317.52 555.911 316.363 556.011 316.301C557.722 314.67 560.145 312.616 563.318 310.662C569.575 306.816 575.183 305.546 576.832 305.198C578.356 304.887 585.5 303.492 594.643 305.472C598.765 306.368 601.45 307.538 606.609 309.841C616.651 314.322 620.436 317.359 629.803 322.213C633.475 324.118 638.871 326.756 645.691 329.495C653.71 314.346 661.741 299.173 669.772 284Z" fill="#F9F4F0" stroke="#13233D" stroke-miterlimit="10" stroke-linecap="round" stroke-linejoin="round"/>
<path d="M558 324C559.18 322.257 562.112 318.457 567.509 316.039C571.378 314.313 574.918 314.016 577 314" stroke="#13233D" stroke-width="0.75" stroke-miterlimit="10" stroke-linecap="round"/>
<path d="M562 331C563.118 329.257 565.896 325.457 571.008 323.039C574.674 321.312 578.027 321.016 580 321" stroke="#13233D" stroke-width="0.75" stroke-miterlimit="10" stroke-linecap="round"/>
<path d="M566.615 336.221C567.303 334.912 569.047 332.038 572.537 330.004C575.041 328.55 577.409 328.133 578.813 328" stroke="#13233D" stroke-width="0.75" stroke-miterlimit="10" stroke-linecap="round"/>
<path d="M658.481 260.017C658.28 259.649 658.04 259.367 657.813 259.159C653.124 254.326 648.447 249.506 643.758 244.674C644.136 243.435 644.338 242.135 644.338 240.786C644.338 233.169 637.997 227 630.169 227C622.341 227 616 233.169 616 240.786C616 248.402 622.341 254.572 630.169 254.572C630.736 254.572 631.291 254.535 631.833 254.474C635.854 259.048 639.875 263.635 643.897 268.21C645.712 271.264 650.439 271.914 654.473 269.645C658.141 267.585 659.969 262.679 658.481 260.017Z" fill="#F9F4F0" stroke="#13233D" stroke-miterlimit="10" stroke-linecap="round" stroke-linejoin="round"/>
<path d="M708.598 608C709.065 615.671 709.533 623.329 710 631C682.671 631 655.329 631 628 631C629.734 629.634 631.714 628.255 633.928 626.977C642.206 622.189 650.286 620.697 655.993 620.271C655.674 616.185 655.354 612.099 655.034 608.013C672.88 608 690.739 608 708.598 608Z" fill="#F9F4F0" stroke="#13233D" stroke-miterlimit="10" stroke-linecap="round" stroke-linejoin="round"/>
<path d="M800.812 73.6717C800.662 65.8417 800.502 58.0117 800.352 50.1717C805.602 45.9717 815.682 38.9317 828.012 36.6917C835.532 35.3217 839.432 36.5417 841.752 37.6917C842.462 38.0417 846.012 39.8617 848.752 43.9417C851.832 48.5217 851.962 53.1217 852.002 55.4317C852.092 60.7517 850.342 64.8217 849.252 66.9217C830.742 111.602 816.412 143.922 813.022 149.882C812.702 150.452 810.722 153.172 806.772 158.632C806.772 158.632 805.172 160.842 801.272 163.882C800.632 164.382 799.642 165.122 798.272 165.132C797.962 165.132 796.512 165.152 795.572 164.052C794.732 163.082 794.602 161.592 795.212 160.272C794.692 160.652 793.842 161.192 792.692 161.532C791.842 161.782 790.562 162.172 789.092 161.712C788.572 161.552 787.422 161.192 786.752 160.092C785.732 158.422 786.672 156.482 786.752 156.312C786.702 156.422 785.582 158.952 783.152 159.192C782.932 159.212 780.622 159.412 779.732 157.752C779.092 156.552 779.642 155.252 779.732 155.052C777.492 158.182 776.052 160.462 775.052 162.262C774.752 162.792 774.092 164.022 772.712 164.782C772.222 165.052 771.232 165.582 770.012 165.322C768.512 165.002 767.772 163.712 767.672 163.522C767.202 162.662 767.062 161.552 767.672 159.382C768.442 156.642 769.642 154.922 770.552 153.432C771.542 151.812 772.832 149.422 773.972 146.222C773.262 145.992 771.992 145.472 771.092 144.242C769.702 142.352 770.112 140.072 770.372 138.662C771.142 134.412 774.002 131.702 775.232 130.552C778.472 127.562 782.062 126.472 784.062 126.052C792.232 108.212 800.392 90.3817 808.562 72.5417C805.962 72.9017 803.382 73.2917 800.812 73.6717Z" fill="#F9F4F0" stroke="#13233D" stroke-miterlimit="10" stroke-linejoin="round"/>
<path d="M729.723 52.4816C729.723 49.7216 728.703 47.2116 727.033 45.2816C725.593 41.4216 731.163 37.1316 729.723 33.2716C732.293 30.2316 726.833 26.7316 726.833 22.4416C726.833 12.8016 719.023 4.99158 709.383 4.99158C699.743 4.99158 691.933 12.8016 691.933 22.4416C691.933 30.1116 696.883 36.6016 703.753 38.9416C705.163 44.3616 706.573 49.7916 707.993 55.2116C709.213 59.9916 713.523 63.5216 718.683 63.5216C724.783 63.5216 729.723 58.5716 729.723 52.4816Z" fill="#F9F4F0" stroke="#13233D" stroke-miterlimit="10" stroke-linejoin="round"/>
<path d="M698.902 7.27161C698.902 7.27161 713.742 12.7316 719.862 15.6616C719.942 18.2316 720.022 20.7916 720.102 23.3616C723.442 23.1116 726.352 24.7316 727.322 27.2116C728.242 29.5716 727.072 31.8216 726.842 32.2616C724.812 36.1516 719.872 36.3516 719.622 36.3516C719.432 37.5316 719.292 39.2216 719.622 41.1616C721.202 50.3916 731.962 56.9616 740.322 58.9716C755.672 62.6616 759.192 50.0916 780.032 49.8216C793.652 49.6516 796.392 54.9716 811.322 52.9516C818.432 51.9916 827.892 50.5716 832.022 43.0816C834.642 38.3216 835.292 30.7716 831.542 26.7116C826.272 21.0216 817.572 27.8616 808.202 22.1416C801.412 17.9916 803.382 12.8016 795.932 6.74162C787.692 0.0416164 777.262 -0.0183833 773.552 0.00161669C751.032 0.131617 738.302 19.3316 728.302 13.4816C725.162 11.6416 725.422 9.44162 720.362 6.26162C719.672 5.83162 710.604 2.49609 704.722 4.31162C702.286 5.06376 698.902 7.27161 698.902 7.27161Z" fill="url(#paint7_linear)"/>
<path d="M625.214 234.099C626.243 234.831 627.543 235.423 629.228 235.73C629.297 235.535 630.635 232.388 633.767 231.858C636.618 231.368 639.146 233.352 640.186 235.578C641.271 237.906 640.847 240.738 639.12 242.81C639.481 243.187 640.432 244.126 641.989 244.461C642.314 244.522 644.347 244.941 645.965 243.809C648.542 242.006 647.94 237.838 647.834 237.091C647.589 235.392 647.083 235.068 645.247 231.489C642.432 226.016 642.565 224.724 640.508 222.802C639.779 222.116 638.356 220.802 636.175 220.215C632.223 219.174 630.84 221.907 623.864 223.082C620.557 223.629 619.341 223.274 616.479 224.381C612.568 225.901 611.757 227.769 611.598 228.218C611.462 228.572 610.805 230.428 611.695 231.861C612.924 233.821 616.491 234.01 618.821 233.021C620.374 232.362 620.68 231.456 621.827 231.547C623.097 231.643 623.498 232.873 625.214 234.099Z" fill="url(#paint8_linear)"/>
<path d="M274.03 527.753C273.094 529.026 272.102 531.189 272.349 534.958C270.371 534.788 268.593 535.892 268.036 537.519C267.35 539.523 268.846 541.26 268.974 541.398C270.456 543.055 272.609 542.81 272.807 542.793C273.108 544.309 273.024 545.591 272.293 546.391C270.856 547.958 268.283 546.176 263.922 546.937C260.082 547.612 259.342 549.741 256.908 549.122C255.216 548.692 253.557 547.187 253.185 545.456C252.767 543.512 254.25 542.563 253.669 541.401C252.773 539.601 248.829 541.35 246.923 539.232C245.337 537.477 245.366 533.857 247.011 531.829C249.293 529.043 253.483 530.693 254.71 528.333C255.805 526.232 252.803 524.268 253.542 521.254C254.466 517.487 260.601 514.764 262.956 516.389C265.14 517.89 263.725 522.904 264.873 523.164C266.074 523.443 266.993 517.789 270.867 516.446C273.153 515.655 276.357 516.478 277.613 518.616C278.784 520.602 277.837 523.013 277.669 523.45C276.814 525.593 275.371 525.931 274.03 527.753Z" fill="url(#paint9_linear)"/>
<line x1="549.067" y1="340.36" x2="534.651" y2="303.048" stroke="#13233D" stroke-width="2"/>
<line x1="549" y1="340" x2="589" y2="340" stroke="#13233D" stroke-width="2"/>
<path d="M909.778 429.496C921.883 440.228 933.978 450.96 946.083 461.692C937.655 477.22 929.226 492.748 920.809 508.287C886.741 508.22 852.683 508.165 818.615 508.098C818.859 515.176 819.667 520.713 820.409 524.59C820.996 527.669 821.539 529.74 820.764 532.476C820.199 534.48 819.346 535.344 814.672 541.081C810.098 546.685 809.522 547.572 808.935 548.967C807.495 552.412 807.495 555.535 807.506 557.218C807.54 562.501 809.279 563.044 809.301 567.973C809.323 572.569 807.839 576.08 807.152 577.653C805.701 580.975 803.84 583.345 802.489 584.818C788.025 581.706 773.571 578.605 759.106 575.493C767.712 544.891 776.318 514.301 784.923 483.699C785.322 482.171 786.053 480.022 787.46 477.707C787.958 476.888 789.409 474.617 791.536 472.779C796.298 468.659 802.401 468.404 804.483 468.404C820.188 467.529 835.904 466.643 851.609 465.768C835.838 454.892 820.055 444.015 804.284 433.139C790.417 432.63 779.917 431.101 775.099 429.894C770.924 428.842 768.842 428.31 767.756 427.79C765.896 426.904 764.19 425.763 761.665 425.686C759.882 425.641 758.819 426.151 758.519 426.317C757.534 426.837 757.334 427.347 756.626 427.79C755.064 428.765 753.026 428.155 751.797 427.79C748.662 426.848 741.408 422.285 732.481 415.197C733.954 400.356 735.416 385.526 736.889 370.685C761.986 376.422 792.743 385.736 826.113 401.342C854.677 414.688 878.312 429.451 897.074 442.908C901.294 438.445 905.536 433.97 909.778 429.496Z" fill="url(#paint10_linear)"/>
<path d="M949.749 422.385C959.817 422.241 969.895 422.108 979.963 421.964C978.745 405.728 976.795 393.899 975.433 390.698C974.569 388.682 973.284 386.866 973.284 386.866C972.509 385.77 971.512 384.396 969.829 383.244C968.433 382.292 967.171 381.915 966.362 381.672C961.256 380.154 952.595 380.653 951.421 380.73C942.749 380.93 933.246 381.793 923.112 383.743C920.642 384.219 918.228 384.74 915.891 385.293C904.528 384.474 893.164 383.665 881.801 382.846C878.91 392.991 876.03 403.125 873.14 413.27C885.356 412.794 897.561 412.306 909.777 411.83C909.777 417.711 909.777 423.604 909.777 429.485C921.883 440.217 933.977 450.949 946.083 461.681C947.047 459.643 948.01 457.605 948.974 455.578C949.228 444.525 949.483 433.45 949.749 422.385Z" fill="#F9F4F0" stroke="#13233D" stroke-miterlimit="10" stroke-linecap="round" stroke-linejoin="round"/>
<path d="M749.696 219.013C747.966 214.73 751.52 210.181 756.094 210.824L904.905 231.738C909.478 232.38 911.641 237.733 908.798 241.373L816.28 359.79C813.437 363.43 807.719 362.626 805.989 358.344L749.696 219.013Z" fill="url(#paint11_linear)"/>
<path d="M979.963 421.964C980.096 433.283 979.852 442.587 979.564 449.498C979.387 453.839 979.165 457.483 977.936 462.146C976.762 466.609 975.256 469.711 971.789 476.422C965.465 488.705 962.928 493.224 962.928 493.224C959.418 499.515 954.854 507.611 949.372 517.081C946.78 521.599 944.565 525.332 942.915 528.045C942.018 529.541 943.015 527.868 937.964 535.854C937.964 535.854 935.162 540.284 930.2 545.035C929.558 545.644 928.362 546.752 927.188 546.453C926.49 546.276 925.925 545.633 925.682 545.035C925.382 544.304 925.526 543.64 925.682 542.997C925.892 542.078 926.213 541.724 926.745 540.605C926.988 540.095 927.321 539.309 927.631 538.301C927.033 538.689 926.08 539.376 925.117 540.439C923.433 542.277 923.178 543.64 921.772 543.983C920.687 544.249 919.701 543.706 919.557 543.629C918.615 543.097 918.261 542.233 918.139 541.945C917.486 540.328 918.272 538.811 918.405 538.567C918.006 538.921 916.987 539.741 915.481 539.896C914.85 539.963 913.399 540.107 912.557 539.187C911.76 538.323 911.959 537.005 912.114 535.986C912.28 534.846 912.712 533.993 913 533.506C912.336 534.513 911.272 535.067 910.253 534.923C909.467 534.812 908.758 534.303 908.415 533.672C907.617 532.165 908.969 530.072 910.054 528.256C911.372 526.052 913.111 522.94 914.949 518.853C913.188 519.705 911.671 519.938 910.685 520.005C909.445 520.082 908.437 520.137 907.85 519.473C907.041 518.565 907.551 516.97 907.673 516.638C908.359 514.699 910.253 513.747 911.582 513.082C914.03 511.853 916.932 510.347 920.819 508.287C929.248 492.759 937.676 477.231 946.094 461.692C947.057 459.654 948.021 457.616 948.984 455.589C949.239 444.525 949.505 433.461 949.76 422.396C959.816 422.252 969.884 422.108 979.963 421.964Z" fill="#F9F4F0" stroke="#13233D" stroke-miterlimit="10" stroke-linecap="round" stroke-linejoin="round"/>
<path d="M732.459 415.208C727.873 413.802 723.288 412.384 718.714 410.977C719.722 388.339 720.73 365.701 721.737 343.062C723.144 345.222 724.606 347.858 725.869 350.97C728.516 357.494 729.213 363.43 729.324 367.628C731.838 368.658 734.353 369.677 736.867 370.707C735.405 385.537 733.932 400.378 732.459 415.208Z" fill="#F9F4F0" stroke="#13233D" stroke-miterlimit="10" stroke-linecap="round" stroke-linejoin="round"/>
<path d="M759.084 575.504C758.253 578.605 757.434 581.695 756.603 584.797C752.871 583.999 746.059 583.146 738.539 585.838C736.158 586.69 734.131 587.743 732.458 588.795C755.097 592.383 777.746 595.972 800.385 599.56C801.082 594.654 801.769 589.736 802.467 584.83C788.013 581.718 773.549 578.605 759.084 575.504Z" fill="#F9F4F0" stroke="#13233D" stroke-miterlimit="10" stroke-linecap="round" stroke-linejoin="round"/>
<path d="M873.14 413.281C871.058 413.159 867.868 412.982 863.948 412.816C855.397 412.461 853.082 412.561 849.671 411.343C848.242 410.833 844.809 409.604 842.018 406.78C837.887 402.593 837.433 397.166 836.813 388.117C835.794 373.243 835.284 365.811 835.251 364.372C835.118 358.369 834.874 348.766 834.509 336.483C845.108 323.082 855.707 309.681 866.296 296.279C866.052 324.921 865.808 353.562 865.565 382.203C870.98 382.414 876.385 382.635 881.801 382.845C878.911 393.002 876.02 403.147 873.14 413.281Z" fill="#F9F4F0" stroke="#13233D" stroke-miterlimit="10" stroke-linecap="round" stroke-linejoin="round"/>
<path d="M847.267 325.53C847.289 324.677 847.466 322.55 848.951 320.479C849.383 319.881 850.767 318.01 853.325 317.223C854.422 316.891 855.385 316.858 856.017 316.891C855.995 314.842 855.828 313.192 855.684 312.062C855.463 310.367 855.241 308.606 854.787 305.095C854.588 303.556 854.477 302.537 855.12 301.729C855.851 300.82 857.113 300.732 857.368 300.721C858.498 300.665 859.317 301.197 859.949 301.618C860.436 301.95 861.366 302.648 862.872 305.095C863.459 306.048 864.19 307.366 864.899 309.027" fill="#F9F4F0"/>
<path d="M847.267 325.53C847.289 324.677 847.466 322.55 848.951 320.479C849.383 319.881 850.767 318.01 853.325 317.223C854.422 316.891 855.385 316.858 856.017 316.891C855.995 314.842 855.828 313.192 855.684 312.062C855.463 310.367 855.241 308.606 854.787 305.095C854.588 303.556 854.477 302.537 855.12 301.729C855.851 300.82 857.113 300.732 857.368 300.721C858.498 300.665 859.317 301.197 859.949 301.618C860.436 301.95 861.366 302.648 862.872 305.095C863.459 306.048 864.19 307.366 864.899 309.027" stroke="#13233D" stroke-miterlimit="10" stroke-linecap="round" stroke-linejoin="round"/>
<path d="M951.82 349.364C945.928 349.364 941.154 354.138 941.154 360.03C941.154 361.99 941.686 363.806 942.605 365.39C940.578 370.419 938.552 375.447 936.525 380.486C936.314 380.896 936.137 381.328 936.004 381.782C935.805 382.469 935.683 383.189 935.683 383.942C935.683 388.128 939.072 391.517 943.259 391.517C947.102 391.517 950.258 388.66 950.757 384.961C950.757 384.961 950.757 384.961 950.757 384.95C950.768 384.861 950.79 384.783 950.79 384.695C951.488 380.01 952.197 375.325 952.894 370.629C958.277 370.086 962.475 365.545 962.475 360.019C962.497 354.138 957.712 349.364 951.82 349.364Z" fill="#F9F4F0" stroke="#13233D" stroke-miterlimit="10"/>
<path d="M952.554 350.308C952.582 351.212 952.501 351.892 952.359 353.033C952.284 353.636 952.168 354.44 951.991 355.38C954.031 354.627 956.195 355.313 957.152 356.855C958.563 359.129 956.46 361.837 956.3 362.04C954.427 364.373 951.372 364.088 951.122 364.06C951.181 364.291 951.252 364.548 951.335 364.833C951.335 364.833 951.412 365.091 951.542 365.477C951.542 365.477 951.775 366.164 952.062 366.875C952.346 367.574 953.121 369.206 954.332 371.295C955.038 371.333 960.226 371.514 964.127 367.28C968.037 363.031 967.465 357.797 967.373 357.095C968.078 357.723 969.084 357.855 969.909 357.434C970.796 356.978 971.295 355.962 971.109 354.943C970.972 354.845 970.032 354.222 968.838 354.54C967.803 354.816 967.284 355.611 967.176 355.791C966.48 352.521 965.016 350.619 964.124 349.671C962.215 347.636 959.664 346.468 958.635 345.999C956.745 345.137 955.686 345.004 954.162 343.824C952.945 342.884 952.158 341.839 951.685 341.108C951.422 341.318 950.161 342.355 949.99 344.11C949.82 345.81 950.745 347.514 952.342 348.434C952.434 348.883 952.528 349.525 952.554 350.308Z" fill="url(#paint12_linear)"/>
<path d="M757.544 308.761C757.544 308.761 765.387 271.382 771.943 262.244C788.53 239.124 820.846 281.038 837.288 257.814C850.882 238.614 844.487 198.006 844.487 198.006" stroke="#F9F4F0" stroke-width="2"/>
<path d="M767.018 334.235C767.018 334.235 765.819 309.27 774.217 297.132C781.556 286.526 789.074 274.353 801.352 278.304C810.164 281.139 806.912 294.382 815.75 297.132C827.897 300.911 838.714 293.139 846.762 283.288C860.608 266.338 853.961 223.48 853.961 223.48" stroke="#F9F4F0" stroke-width="2"/>
<path d="M790.771 351.956C790.771 351.956 795.556 318.48 811.814 314.853C825.038 311.903 822.505 325.221 843.38 329.251" stroke="#F9F4F0" stroke-width="2"/>
<path d="M734.84 273.32C734.84 273.32 768.62 234.555 802.875 243.885C837.13 253.215 824.085 234.219 829.382 222.654C838.495 202.755 821.233 162.968 821.233 162.968" stroke="#F9F4F0" stroke-width="2"/>
<path d="M182 466C183.217 466.096 184.444 466.192 185.661 466.287C184.999 466.852 184.348 467.408 183.687 467.973" fill="#F9F4F0"/>
<path d="M182 466C183.217 466.096 184.444 466.192 185.661 466.287C184.999 466.852 184.348 467.408 183.687 467.973" stroke="#13233D" stroke-width="0.75" stroke-miterlimit="10" stroke-linecap="round" stroke-linejoin="round"/>
<path d="M173 470.882C173.585 470.863 174.159 470.844 174.744 470.825C174.706 470.317 174.667 469.819 174.629 469.312" fill="#F9F4F0"/>
<path d="M173 470.882C173.585 470.863 174.159 470.844 174.744 470.825C174.706 470.317 174.667 469.819 174.629 469.312" stroke="#13233D" stroke-width="0.75" stroke-miterlimit="10" stroke-linecap="round"/>
<path d="M175.319 471.926L174.744 470.825" stroke="#13233D" stroke-width="0.75" stroke-miterlimit="10" stroke-linecap="round"/>
<path d="M180.004 467.657C180.279 467.563 180.39 467.155 180.251 466.744C180.111 466.333 179.775 466.076 179.499 466.169C179.223 466.262 179.113 466.671 179.252 467.082C179.391 467.493 179.728 467.75 180.004 467.657Z" fill="#13233D"/>
<path d="M283 532L285.5 529L281.212 529.293" fill="#F9F4F0"/>
<path d="M283 532L285.5 529L281.212 529.293" stroke="#13233D" stroke-width="0.75" stroke-miterlimit="10" stroke-linecap="round" stroke-linejoin="round"/>
<path d="M270.14 539.919C270.689 539.718 271.23 539.521 271.779 539.32C271.584 538.85 271.392 538.389 271.197 537.918" fill="#F9F4F0"/>
<path d="M270.14 539.919C270.689 539.718 271.23 539.521 271.779 539.32C271.584 538.85 271.392 538.389 271.197 537.918" stroke="#13233D" stroke-width="0.75" stroke-miterlimit="10" stroke-linecap="round"/>
<path d="M272.669 540.187L271.778 539.32" stroke="#13233D" stroke-width="0.75" stroke-miterlimit="10" stroke-linecap="round"/>
<path d="M278.004 531.656C278.279 531.563 278.39 531.154 278.251 530.743C278.111 530.333 277.775 530.075 277.499 530.169C277.223 530.262 277.113 530.671 277.252 531.081C277.391 531.492 277.728 531.749 278.004 531.656Z" fill="#13233D"/>
<path d="M942.5 355.837L940 352.838L944.288 353.13" fill="#F9F4F0"/>
<path d="M942.5 355.837L940 352.838L944.288 353.13" stroke="#13233D" stroke-width="0.75" stroke-miterlimit="10" stroke-linecap="round" stroke-linejoin="round"/>
<path d="M955.528 360.037C954.979 359.836 954.439 359.638 953.89 359.438C954.085 358.967 954.277 358.506 954.472 358.036" fill="#F9F4F0"/>
<path d="M955.528 360.037C954.979 359.836 954.439 359.638 953.89 359.438C954.085 358.967 954.277 358.506 954.472 358.036" stroke="#13233D" stroke-width="0.75" stroke-miterlimit="10" stroke-linecap="round"/>
<path d="M953 360.304L953.89 359.438" stroke="#13233D" stroke-width="0.75" stroke-miterlimit="10" stroke-linecap="round"/>
<path d="M947.499 354.657C947.224 354.563 947.113 354.155 947.252 353.744C947.392 353.333 947.728 353.076 948.004 353.169C948.279 353.262 948.39 353.671 948.251 354.082C948.111 354.493 947.775 354.75 947.499 354.657Z" fill="#13233D"/>
<path d="M617.478 246C616.288 248.807 615.806 250.068 614.617 252.875C616.777 252.154 618.903 251.442 621.064 250.72" fill="#F9F4F0"/>
<path d="M617.478 246C616.288 248.807 615.806 250.068 614.617 252.875C616.777 252.154 618.903 251.442 621.064 250.72" stroke="#13233D" stroke-miterlimit="10" stroke-linecap="round" stroke-linejoin="round"/>
<path d="M638.1 235.602C637.117 236.021 636.15 236.432 635.167 236.852C634.839 235.981 634.518 235.127 634.19 234.256" fill="#F9F4F0"/>
<path d="M638.1 235.602C637.117 236.021 636.15 236.432 635.167 236.852C634.839 235.981 634.518 235.127 634.19 234.256" stroke="#13233D" stroke-miterlimit="10" stroke-linecap="round"/>
<path d="M635.064 239.119L635.167 236.851" stroke="#13233D" stroke-miterlimit="10" stroke-linecap="round"/>
<path d="M622.488 244.876C622.062 245.195 621.332 244.938 620.858 244.302C620.384 243.667 620.345 242.894 620.771 242.576C621.198 242.258 621.927 242.515 622.401 243.15C622.875 243.785 622.914 244.558 622.488 244.876Z" fill="#13233D"/>
<path d="M697.5 20L697 22" stroke="#13233D" stroke-width="2" stroke-linecap="round"/>
<path d="M708.5 22L708 24" stroke="#13233D" stroke-width="2" stroke-linecap="round"/>
<path d="M702 20.5L697 28H700.5" stroke="#13233D" stroke-linecap="round" stroke-linejoin="round"/>
<path d="M725.043 29.7237C723.985 29.5762 722.944 29.4306 721.885 29.2832C722.053 28.3683 722.218 27.4708 722.386 26.556" fill="#F9F4F0"/>
<path d="M725.043 29.7237C723.985 29.5762 722.944 29.4306 721.885 29.2832C722.053 28.3683 722.218 27.4708 722.386 26.556" stroke="#13233D" stroke-miterlimit="10" stroke-linecap="round"/>
<path d="M720.628 31.173L721.885 29.2826" stroke="#13233D" stroke-miterlimit="10" stroke-linecap="round"/>
<circle cx="674.5" cy="702.5" r="71.5" fill="#F9F4F0"/>
<path fill-rule="evenodd" clip-rule="evenodd" d="M737.266 668.228C742.578 677.935 745.703 689.01 745.98 700.789C739.858 701.549 733.53 702.047 727.153 702.548L726.584 702.593C714.035 703.579 701.319 704.612 689.866 707.777C678.391 710.947 668.106 716.278 660.459 725.912C650.48 738.481 648.1 754.464 648.725 769.213C640.08 765.871 632.248 760.897 625.606 754.669C628.377 746.699 631.761 740.515 634.877 735.783C649.558 713.488 671.466 703.529 693.586 693.474C694.368 693.119 695.151 692.763 695.934 692.406C710.487 685.778 725.011 678.92 737.266 668.228ZM669.635 773.837C663.061 773.395 656.73 772.065 650.762 769.965C650.023 755.285 652.256 739.46 662.026 727.155C669.327 717.956 679.184 712.803 690.398 709.704C701.634 706.599 714.154 705.576 726.741 704.586L727.407 704.534C733.652 704.043 739.908 703.552 745.999 702.802C745.981 707.289 745.549 711.677 744.74 715.933C744.132 716.11 743.524 716.286 742.917 716.462C742.012 716.724 741.109 716.984 740.206 717.244L739.453 717.461C719.652 723.164 700.388 728.869 684.968 746.722C679.72 752.799 673.922 761.435 669.635 773.837ZM671.715 773.947C672.639 773.982 673.567 774 674.5 774C684.975 774 694.924 771.747 703.889 767.7C705.026 765.643 706.169 763.776 707.282 762.088C715.977 748.881 727.155 739.911 739.302 732.755C741.463 728.135 743.145 723.244 744.282 718.149C743.248 718.449 742.216 718.746 741.188 719.042L740.968 719.106L740.877 719.132L740.006 719.383C720.168 725.097 701.467 730.68 686.482 748.029C681.472 753.831 675.897 762.082 671.715 773.947ZM737.626 736.106C730.761 748.975 720.075 759.499 707.082 766.162C707.711 765.112 708.337 764.122 708.952 763.188C716.801 751.267 726.717 742.873 737.626 736.106ZM736.261 666.451C733.653 661.993 730.576 657.842 727.097 654.066C716.805 661.279 705.416 666.616 694.009 671.811C693.226 672.168 692.443 672.523 691.66 672.879C669.54 682.934 647.632 692.893 632.952 715.188C628.15 722.478 622.715 733.217 619.86 748.618C621.183 750.185 622.573 751.694 624.025 753.141C626.794 745.424 630.12 739.369 633.207 734.683C648.211 711.896 670.603 701.721 692.616 691.718C693.446 691.341 694.276 690.964 695.105 690.586C709.799 683.894 724.207 677.065 736.261 666.451ZM718.569 646.192C721.089 648.167 723.474 650.308 725.706 652.598C715.666 659.592 704.508 664.832 693.18 669.991C692.677 670.22 692.173 670.449 691.669 670.678L690.83 671.059L690.69 671.123C668.677 681.126 646.285 691.301 631.282 714.088C626.523 721.313 621.196 731.789 618.213 746.597C610.087 736.238 604.758 723.581 603.364 709.762C605.729 705.917 608.165 702.711 610.482 700.029C625.467 682.68 644.168 677.097 664.006 671.383L664.877 671.132C682.714 665.997 701.393 660.619 718.569 646.192ZM716.937 644.95C714.677 643.28 712.315 641.741 709.863 640.343C703.439 645.912 695.659 649.37 687.153 651.642C676.101 654.594 663.731 655.566 651.407 656.534L650.741 656.586C638.782 657.527 626.883 658.498 616.088 661.255C607.844 672.909 603 687.139 603 702.5C603 703.825 603.036 705.142 603.107 706.45C605.067 703.494 607.054 700.938 608.968 698.722C624.388 680.869 643.652 675.164 663.453 669.461L664.206 669.244C681.975 664.127 700.188 658.883 716.937 644.95ZM674.5 631C686.6 631 697.998 634.006 707.989 639.311C701.965 644.35 694.694 647.558 686.637 649.71C675.763 652.614 663.551 653.574 651.153 654.548L650.584 654.593C639.506 655.464 628.299 656.37 617.945 658.748C631.023 641.867 651.493 631 674.5 631Z" fill="url(#paint13_linear)"/>
<path d="M679.5 140C679.5 140 681.609 144.474 682.5 147.5C683.344 150.365 684 155 684 155" stroke="#13233D" stroke-linecap="round" stroke-linejoin="round"/>
<path d="M687 139C687 139 689.109 143.474 690 146.5C690.844 149.365 691.5 154 691.5 154" stroke="#13233D" stroke-linecap="round" stroke-linejoin="round"/>
<path d="M693 138C693 138 695.109 142.474 696 145.5C696.844 148.365 697.5 153 697.5 153" stroke="#13233D" stroke-linecap="round" stroke-linejoin="round"/>
<path d="M771.653 163.889C771.434 164.056 771.12 164.014 770.952 163.794C770.785 163.575 770.828 163.261 771.047 163.094L771.653 163.889ZM772.329 158.172L772.473 157.693L772.329 158.172ZM769.523 159.841C769.365 160.068 769.053 160.122 768.827 159.964C768.601 159.806 768.546 159.494 768.704 159.268L769.523 159.841ZM771.047 163.094C772.648 161.874 773.262 160.809 773.33 160.077C773.363 159.726 773.273 159.443 773.096 159.217C772.915 158.984 772.616 158.781 772.185 158.651L772.473 157.693C773.053 157.868 773.548 158.17 773.885 158.601C774.227 159.039 774.381 159.579 774.326 160.17C774.219 161.32 773.332 162.61 771.653 163.889L771.047 163.094ZM772.185 158.651C771.602 158.475 771.175 158.483 770.8 158.64C770.411 158.803 770.001 159.16 769.523 159.841L768.704 159.268C769.23 158.517 769.773 157.986 770.413 157.717C771.068 157.443 771.748 157.475 772.473 157.693L772.185 158.651Z" fill="#13233D"/>
<defs>
<linearGradient id="paint0_linear" x1="-227.146" y1="889.391" x2="1268.75" y2="714.108" gradientUnits="userSpaceOnUse">
<stop stop-color="#FEA450"/>
<stop offset="1" stop-color="#E25576"/>
</linearGradient>
<linearGradient id="paint1_linear" x1="-4.83882" y1="763.509" x2="225.615" y2="750.339" gradientUnits="userSpaceOnUse">
<stop stop-color="#FEA450"/>
<stop offset="1" stop-color="#E25576"/>
</linearGradient>
<linearGradient id="paint2_linear" x1="82.023" y1="525.829" x2="209.233" y2="513.022" gradientUnits="userSpaceOnUse">
<stop stop-color="#FEA450"/>
<stop offset="1" stop-color="#E25576"/>
</linearGradient>
<linearGradient id="paint3_linear" x1="314.106" y1="710.1" x2="496.532" y2="696.927" gradientUnits="userSpaceOnUse">
<stop stop-color="#FEA450"/>
<stop offset="1" stop-color="#E25576"/>
</linearGradient>
<linearGradient id="paint4_linear" x1="211.815" y1="718.296" x2="616.174" y2="634.38" gradientUnits="userSpaceOnUse">
<stop stop-color="#FEA450"/>
<stop offset="1" stop-color="#E25576"/>
</linearGradient>
<linearGradient id="paint5_linear" x1="397.901" y1="704.407" x2="795.656" y2="678.776" gradientUnits="userSpaceOnUse">
<stop stop-color="#FEA450"/>
<stop offset="1" stop-color="#E25576"/>
</linearGradient>
<linearGradient id="paint6_linear" x1="397.901" y1="704.407" x2="795.656" y2="678.776" gradientUnits="userSpaceOnUse">
<stop stop-color="#FEA450"/>
<stop offset="1" stop-color="#E25576"/>
</linearGradient>
<linearGradient id="paint7_linear" x1="659.393" y1="80.6369" x2="878.411" y2="44.0972" gradientUnits="userSpaceOnUse">
<stop stop-color="#FEA450"/>
<stop offset="1" stop-color="#E25576"/>
</linearGradient>
<linearGradient id="paint8_linear" x1="625.636" y1="241.109" x2="638.402" y2="221.149" gradientUnits="userSpaceOnUse">
<stop stop-color="#E25576"/>
<stop offset="1" stop-color="#FEA450"/>
</linearGradient>
<linearGradient id="paint9_linear" x1="244.794" y1="567.807" x2="299.927" y2="544.858" gradientUnits="userSpaceOnUse">
<stop stop-color="#FEA450"/>
<stop offset="1" stop-color="#E25576"/>
</linearGradient>
<linearGradient id="paint10_linear" x1="670.092" y1="660.162" x2="1023.66" y2="634.215" gradientUnits="userSpaceOnUse">
<stop stop-color="#FEA450"/>
<stop offset="1" stop-color="#E25576"/>
</linearGradient>
<linearGradient id="paint11_linear" x1="859.895" y1="497.056" x2="1042.23" y2="224.613" gradientUnits="userSpaceOnUse">
<stop stop-color="#FEA450"/>
<stop offset="1" stop-color="#E25576"/>
</linearGradient>
<linearGradient id="paint12_linear" x1="971.132" y1="385.617" x2="934.09" y2="374.624" gradientUnits="userSpaceOnUse">
<stop stop-color="#FEA450"/>
<stop offset="1" stop-color="#E25576"/>
</linearGradient>
<linearGradient id="paint13_linear" x1="561.233" y1="824.315" x2="797.931" y2="806.901" gradientUnits="userSpaceOnUse">
<stop stop-color="#FEA450"/>
<stop offset="1" stop-color="#E25576"/>
</linearGradient>
</defs>
</svg>
