<svg width="25" height="27" viewBox="0 0 25 27" fill="none" xmlns="http://www.w3.org/2000/svg">
<path d="M21.1383 13.6892C21.0338 13.5851 21.0338 13.4153 21.1383 13.3111C21.4203 13.0303 21.6859 12.7503 21.9329 12.4714C24.4933 9.58418 24.331 7.76667 23.7443 6.75019C23.1576 5.73371 21.6646 4.68493 17.8837 5.45821C17.5185 5.53307 17.1431 5.62275 16.7589 5.72649C16.6164 5.76487 16.4694 5.68013 16.4314 5.53763C16.3291 5.15308 16.2193 4.78297 16.1015 4.42957C14.8818 0.768725 13.2265 0 12.0531 0C10.8797 0 9.22442 0.768345 8.00426 4.42919C7.88646 4.78259 7.77665 5.1527 7.67443 5.53725C7.63643 5.68013 7.48975 5.76487 7.34688 5.72611C6.9627 5.62237 6.58727 5.53269 6.2221 5.45784C2.44155 4.68417 0.948559 5.73333 0.361471 6.74981C-0.225238 7.76629 -0.387115 9.5838 2.1729 12.471C2.42027 12.7499 2.68551 13.0299 2.96746 13.3108C3.07196 13.4149 3.07196 13.5847 2.96746 13.6889C2.68551 13.9697 2.41989 14.2497 2.1729 14.5286C-0.387115 17.4162 -0.225238 19.2337 0.361471 20.2502C0.948179 21.2667 2.44117 22.3154 6.2221 21.5422C6.58727 21.4673 6.9627 21.3776 7.34688 21.2739C7.48937 21.2355 7.63643 21.3202 7.67443 21.4627C7.77665 21.8473 7.88646 22.2174 8.00426 22.5708C9.22442 26.2317 10.8797 27.0004 12.0531 27C13.2265 27 14.8817 26.2317 16.1019 22.5708C16.2197 22.2174 16.3295 21.8473 16.4317 21.4627C16.4697 21.3199 16.6164 21.2351 16.7593 21.2739C17.1435 21.3776 17.5189 21.4673 17.8841 21.5422C21.6646 22.3158 23.1576 21.2667 23.7447 20.2502C24.3314 19.2337 24.4933 17.4162 21.9333 14.529C21.6859 14.2501 21.4203 13.9697 21.1383 13.6892ZM18.3716 7.84077C20.5303 7.39922 21.5046 7.73437 21.6384 7.96579C21.7722 8.19758 21.5753 9.20912 20.1135 10.8575C19.8585 11.1452 19.5807 11.4351 19.2828 11.7262C19.1867 11.8201 19.0362 11.8277 18.931 11.7444C18.4294 11.3489 17.9004 10.9575 17.3487 10.5737C17.2833 10.5281 17.2415 10.4559 17.2347 10.3765C17.1784 9.70691 17.1039 9.05333 17.012 8.42064C16.9926 8.28764 17.0747 8.16148 17.2039 8.125C17.6048 8.01329 17.995 7.91791 18.3716 7.84077ZM10.3112 5.1983C11.0081 3.10834 11.7856 2.43195 12.0531 2.43195C12.2252 2.43195 12.609 2.71239 13.0464 3.47009C13.2884 3.88923 13.5468 4.45427 13.795 5.19868C13.9394 5.63149 14.0705 6.09394 14.189 6.58109C14.3216 7.12676 14.4372 7.70397 14.5356 8.30626C14.5713 8.5259 14.3372 8.68929 14.1427 8.581C13.4454 8.19378 12.7466 7.83431 12.0535 7.50524C11.4067 7.1982 10.7653 6.91777 10.1345 6.66659C10.0099 6.61681 9.94108 6.48268 9.97452 6.35272C10.0775 5.94879 10.1896 5.56309 10.3112 5.1983ZM5.73457 19.1592C3.57583 19.6008 2.60153 19.2656 2.46777 19.0342C2.33401 18.8024 2.53085 17.7909 3.99268 16.1425C4.24766 15.8548 4.52543 15.5649 4.82334 15.2738C4.91948 15.1799 5.06996 15.1723 5.17522 15.2556C5.67681 15.6511 6.20576 16.0425 6.75751 16.4263C6.82287 16.4719 6.86466 16.5441 6.8715 16.6235C6.92774 17.2931 7.00222 17.9467 7.09418 18.5794C7.11356 18.7124 7.03148 18.8385 6.90228 18.875C6.50139 18.9867 6.11114 19.0825 5.73457 19.1592ZM13.795 21.8017C13.0981 23.892 12.3206 24.568 12.0531 24.568C11.8809 24.568 11.4972 24.2876 11.0598 23.5299C10.8177 23.1108 10.5593 22.5457 10.3112 21.8013C10.1668 21.3685 10.0357 20.9061 9.91715 20.4189C9.78453 19.8732 9.66901 19.296 9.57059 18.6937C9.53487 18.4741 9.76895 18.3107 9.9635 18.419C10.6608 18.8062 11.3596 19.1657 12.0527 19.4948C12.6995 19.8018 13.3409 20.0822 13.9717 20.3334C14.0963 20.3832 14.1651 20.5173 14.1316 20.6473C14.0287 21.0516 13.9166 21.4369 13.795 21.8017ZM21.6384 19.0342C21.5046 19.266 20.5303 19.6012 18.3716 19.1596C17.9244 19.068 17.4585 18.9506 16.9778 18.8096C16.279 18.6044 15.5486 18.3487 14.7985 18.047L14.642 17.9835C13.7973 17.6377 12.9286 17.2346 12.0535 16.7812C11.5747 16.5331 11.094 16.2705 10.6141 15.9931C10.1752 15.7397 9.74615 15.4798 9.32854 15.2149C9.2552 15.1685 9.2096 15.0891 9.2058 15.0025C9.18528 14.5085 9.17464 14.0069 9.17464 13.5C9.17464 12.9456 9.18718 12.398 9.21188 11.8596C9.24456 11.138 9.27876 10.4939 9.34298 9.84561C9.373 9.54352 9.05342 9.33034 8.78553 9.4736L8.21212 9.78025C7.35448 10.2393 6.80425 11.1186 6.76853 12.091C6.75941 12.3425 6.75257 12.5952 6.74839 12.8495C6.74459 13.0721 6.48619 13.1933 6.31367 13.0524C5.84096 12.6663 5.39941 12.2776 4.99282 11.89C4.63031 11.5442 4.29553 11.1991 3.99268 10.8579C3.47209 10.2708 3.11186 9.76467 2.87018 9.34554C2.43281 8.58783 2.38189 8.11512 2.46777 7.96617C2.60153 7.73437 3.57583 7.39922 5.73457 7.84077C6.18182 7.93235 6.64769 8.04977 7.12838 8.19074C7.82719 8.39594 8.55753 8.65167 9.30764 8.95339L9.46419 9.01685C10.3089 9.36264 11.1776 9.76581 12.0527 10.2191C12.5315 10.4673 13.0122 10.7299 13.4921 11.0072C13.931 11.2607 14.36 11.5206 14.7776 11.7855C14.851 11.8318 14.8966 11.9113 14.9004 11.9979C14.9209 12.4919 14.9315 12.9935 14.9315 13.5004C14.9315 14.0548 14.919 14.6024 14.8943 15.1408C14.8616 15.8624 14.8274 16.5065 14.7632 17.1548C14.7332 17.4569 15.0527 17.67 15.3206 17.5268L15.894 17.2201C16.7517 16.7611 17.3019 15.8818 17.3376 14.9094C17.3468 14.6578 17.3536 14.4051 17.3578 14.1509C17.3616 13.9283 17.62 13.807 17.7925 13.948C18.2652 14.3341 18.7068 14.7228 19.1133 15.1104C19.4759 15.4562 19.8106 15.8012 20.1135 16.1425C20.6341 16.7296 20.9943 17.2357 21.236 17.6548C21.6734 18.4125 21.7247 18.8849 21.6384 19.0342Z" fill="#232323"/>
</svg>
