<svg width="88" height="21" viewBox="0 0 88 21" fill="none" xmlns="http://www.w3.org/2000/svg">
<path d="M0.847544 20.4324C0.693617 20.4324 0.573895 20.3897 0.48838 20.3042C0.402865 20.2187 0.360107 20.0947 0.360107 19.9322V7.34861C0.360107 7.19469 0.402865 7.07496 0.48838 6.98945C0.573895 6.89538 0.693617 6.84835 0.847544 6.84835H3.51562C3.66955 6.84835 3.78927 6.89538 3.87478 6.98945C3.96885 7.07496 4.01588 7.19469 4.01588 7.34861V7.51537C4.01588 7.78902 4.09712 7.92584 4.2596 7.92584C4.35367 7.92584 4.45201 7.87881 4.55463 7.78474C5.44399 6.98945 6.58134 6.5918 7.96668 6.5918C9.50596 6.5918 10.6946 7.04076 11.5327 7.93867C12.3707 8.82803 12.7897 10.115 12.7897 11.7997V19.9322C12.7897 20.0947 12.7427 20.2187 12.6486 20.3042C12.5631 20.3897 12.4434 20.4324 12.2895 20.4324H9.6214C9.46748 20.4324 9.34776 20.3897 9.26224 20.3042C9.17672 20.2187 9.13397 20.0947 9.13397 19.9322V12.4539C9.13397 11.4362 8.92018 10.7179 8.4926 10.2989C8.06503 9.87131 7.4707 9.65752 6.70961 9.65752C5.89722 9.65752 5.24303 9.92262 4.74704 10.4528C4.2596 10.983 4.01588 11.7569 4.01588 12.7746V19.9322C4.01588 20.0947 3.96885 20.2187 3.87478 20.3042C3.78927 20.3897 3.66955 20.4324 3.51562 20.4324H0.847544Z" fill="#232323"/>
<path d="M22.8207 20.689C21.3156 20.689 19.9901 20.3811 18.8442 19.7654C17.6983 19.1412 16.809 18.2946 16.1761 17.2256C15.5519 16.1481 15.2398 14.9552 15.2398 13.6468C15.2398 12.3042 15.5647 11.0985 16.2146 10.0295C16.8645 8.95202 17.7667 8.1097 18.9212 7.50254C20.0756 6.89538 21.3712 6.5918 22.8078 6.5918C24.1846 6.5918 25.4289 6.86973 26.5406 7.42558C27.6608 7.98143 28.5502 8.75961 29.2087 9.76014C29.8757 10.7521 30.2477 11.8809 30.3246 13.1465C30.3503 13.3261 30.3631 13.5014 30.3631 13.6725C30.3631 13.7922 30.3588 13.8777 30.3503 13.929C30.3417 14.2198 30.175 14.3651 29.85 14.3651H19.5369C19.3915 14.3651 19.2761 14.4036 19.1906 14.4806C19.1136 14.549 19.0751 14.6431 19.0751 14.7628C19.0751 14.797 19.0837 14.8483 19.1008 14.9167C19.2461 15.464 19.4984 15.9514 19.8576 16.379C20.2167 16.798 20.6486 17.123 21.1531 17.3539C21.6662 17.5848 22.2178 17.7002 22.8078 17.7002C23.415 17.7002 23.9794 17.5762 24.501 17.3282C25.0312 17.0717 25.4674 16.7168 25.8094 16.2636C25.9463 16.0754 26.0874 15.9814 26.2327 15.9814C26.3011 15.9814 26.3867 16.0028 26.4893 16.0455L28.8752 17.0717C29.0975 17.1743 29.2087 17.2983 29.2087 17.4437C29.2087 17.5121 29.183 17.5805 29.1317 17.6489C28.4818 18.5639 27.6181 19.2994 26.5406 19.8552C25.4631 20.4111 24.2231 20.689 22.8207 20.689ZM25.7966 11.9023C25.942 11.9023 26.0574 11.8724 26.1429 11.8125C26.2285 11.7526 26.2712 11.6714 26.2712 11.5688C26.2712 11.5175 26.2498 11.4491 26.2071 11.3636C25.8821 10.7735 25.4289 10.2989 24.8474 9.93972C24.2659 9.58056 23.586 9.40098 22.8078 9.40098C22.0468 9.40098 21.3712 9.57201 20.7811 9.91407C20.1996 10.2476 19.7464 10.7179 19.4214 11.3251C19.3787 11.402 19.3573 11.4833 19.3573 11.5688C19.3573 11.6714 19.3958 11.7526 19.4728 11.8125C19.5497 11.8724 19.6523 11.9023 19.7806 11.9023H25.7966Z" fill="#232323"/>
<path d="M41.0098 20.689C40.2914 20.689 39.6073 20.5821 38.9574 20.3683C38.3075 20.1545 37.7217 19.8381 37.2001 19.4191C37.0718 19.3165 36.9649 19.2652 36.8794 19.2652C36.7169 19.2652 36.6357 19.402 36.6357 19.6756V19.9322C36.6357 20.0947 36.5886 20.2187 36.4946 20.3042C36.409 20.3897 36.2893 20.4324 36.1354 20.4324H33.4673C33.3134 20.4324 33.1937 20.3897 33.1082 20.3042C33.0226 20.2187 32.9799 20.0947 32.9799 19.9322V1.23C32.9799 1.06752 33.0226 0.943524 33.1082 0.858009C33.1937 0.772494 33.3134 0.729736 33.4673 0.729736H36.1354C36.2893 0.729736 36.409 0.772494 36.4946 0.858009C36.5886 0.943524 36.6357 1.06752 36.6357 1.23V7.61799C36.6357 7.74626 36.657 7.8446 36.6998 7.91301C36.7511 7.98143 36.8152 8.01563 36.8922 8.01563C36.9777 8.01563 37.0803 7.9686 37.2001 7.87453C38.2604 7.01938 39.5303 6.5918 41.0098 6.5918C42.2925 6.5918 43.464 6.90393 44.5244 7.5282C45.5848 8.1439 46.4186 8.99051 47.0258 10.068C47.6415 11.1369 47.9493 12.3256 47.9493 13.634C47.9493 14.9424 47.6415 16.1353 47.0258 17.2128C46.4186 18.2903 45.5848 19.1412 44.5244 19.7654C43.464 20.3811 42.2925 20.689 41.0098 20.689ZM40.3812 17.5591C41.0995 17.5591 41.758 17.3924 42.3566 17.0589C42.9552 16.7254 43.4256 16.2636 43.7676 15.6735C44.1182 15.0749 44.2935 14.3951 44.2935 13.634C44.2935 12.8814 44.1182 12.2102 43.7676 11.6201C43.4256 11.0215 42.9552 10.5554 42.3566 10.2219C41.758 9.88842 41.0995 9.72166 40.3812 9.72166C39.6629 9.72166 39.0044 9.89269 38.4058 10.2348C37.8072 10.5683 37.3326 11.0343 36.982 11.6329C36.6399 12.223 36.4689 12.89 36.4689 13.634C36.4689 14.378 36.6399 15.0493 36.982 15.6479C37.3326 16.2465 37.8072 16.7168 38.4058 17.0589C39.0044 17.3924 39.6629 17.5591 40.3812 17.5591Z" fill="#232323"/>
<path d="M56.5949 20.689C55.2951 20.689 54.1748 20.4795 53.2342 20.0604C52.302 19.6329 51.588 19.0257 51.092 18.239C50.596 17.4437 50.348 16.503 50.348 15.417V7.34861C50.348 7.19469 50.3908 7.07496 50.4763 6.98945C50.5618 6.89538 50.6815 6.84835 50.8355 6.84835H53.5035C53.666 6.84835 53.79 6.89538 53.8755 6.98945C53.961 7.07496 54.0038 7.19469 54.0038 7.34861V15.1348C54.0038 15.9386 54.239 16.5458 54.7093 16.9562C55.1796 17.3582 55.8082 17.5591 56.5949 17.5591C57.3816 17.5591 58.0102 17.3582 58.4805 16.9562C58.9508 16.5458 59.186 15.9386 59.186 15.1348V7.34861C59.186 7.19469 59.2288 7.07496 59.3143 6.98945C59.3998 6.89538 59.5195 6.84835 59.6735 6.84835H62.3415C62.4955 6.84835 62.6152 6.89538 62.7007 6.98945C62.7948 7.07496 62.8418 7.19469 62.8418 7.34861V15.417C62.8418 16.503 62.5938 17.4437 62.0978 18.239C61.6018 19.0257 60.8835 19.6329 59.9428 20.0604C59.0107 20.4795 57.8947 20.689 56.5949 20.689Z" fill="#232323"/>
<path d="M69.4991 19.9322C69.4991 20.0947 69.4521 20.2187 69.358 20.3042C69.2725 20.3897 69.1528 20.4324 68.9989 20.4324H66.3308C66.1769 20.4324 66.0572 20.3897 65.9716 20.3042C65.8861 20.2187 65.8434 20.0947 65.8434 19.9322V1.23C65.8434 1.06752 65.8861 0.943524 65.9716 0.858009C66.0572 0.772494 66.1769 0.729736 66.3308 0.729736H68.9989C69.1528 0.729736 69.2725 0.772494 69.358 0.858009C69.4521 0.943524 69.4991 1.06752 69.4991 1.23V19.9322Z" fill="#232323"/>
<path d="M79.0042 20.689C77.7214 20.689 76.5499 20.3811 75.4895 19.7654C74.4291 19.1412 73.591 18.2903 72.9753 17.2128C72.3682 16.1353 72.0646 14.9424 72.0646 13.634C72.0646 12.3256 72.3682 11.1369 72.9753 10.068C73.591 8.99051 74.4291 8.1439 75.4895 7.5282C76.5499 6.90393 77.7214 6.5918 79.0042 6.5918C80.4836 6.5918 81.7535 7.01938 82.8139 7.87453C82.9421 7.97715 83.0533 8.02846 83.1474 8.02846C83.2158 8.02846 83.2714 7.99853 83.3141 7.93867C83.3569 7.87026 83.3783 7.78047 83.3783 7.6693V7.34861C83.3783 7.19469 83.421 7.07496 83.5065 6.98945C83.6006 6.89538 83.7246 6.84835 83.8785 6.84835H86.5466C86.7005 6.84835 86.8203 6.89538 86.9058 6.98945C86.9913 7.07496 87.034 7.19469 87.034 7.34861V19.9322C87.034 20.0947 86.9913 20.2187 86.9058 20.3042C86.8203 20.3897 86.7005 20.4324 86.5466 20.4324H83.8785C83.7246 20.4324 83.6006 20.3897 83.5065 20.3042C83.421 20.2187 83.3783 20.0947 83.3783 19.9322V19.6756C83.3783 19.402 83.297 19.2652 83.1345 19.2652C83.049 19.2652 82.9421 19.3165 82.8139 19.4191C82.2922 19.8381 81.7064 20.1545 81.0565 20.3683C80.4066 20.5821 79.7225 20.689 79.0042 20.689ZM79.6327 17.5591C80.351 17.5591 81.0095 17.3924 81.6081 17.0589C82.2067 16.7168 82.677 16.2465 83.0191 15.6479C83.3697 15.0493 83.545 14.378 83.545 13.634C83.545 12.89 83.3697 12.223 83.0191 11.6329C82.677 11.0343 82.2067 10.5683 81.6081 10.2348C81.0095 9.89269 80.351 9.72166 79.6327 9.72166C78.9144 9.72166 78.2559 9.88842 77.6573 10.2219C77.0587 10.5554 76.5841 11.0215 76.2335 11.6201C75.8914 12.2102 75.7204 12.8814 75.7204 13.634C75.7204 14.3951 75.8914 15.0749 76.2335 15.6735C76.5841 16.2636 77.0587 16.7254 77.6573 17.0589C78.2559 17.3924 78.9144 17.5591 79.6327 17.5591Z" fill="#232323"/>
</svg>
