<svg id="f1a3512c-954b-43cd-b4a7-b2a657bfa049" xmlns="http://www.w3.org/2000/svg" xmlns:xlink="http://www.w3.org/1999/xlink" viewBox="0 0 1135.18 814.22"><defs><style>.cls-1{fill:url(#linear-gradient);}.cls-2{opacity:0.7;}.cls-3{fill:url(#linear-gradient-2);}.cls-4{opacity:0.2;}.cls-17,.cls-4{isolation:isolate;}.cls-5{fill:#fff;}.cls-6{fill:url(#linear-gradient-3);}.cls-7{opacity:0.1;}.cls-8{fill:#6c63ff;}.cls-17,.cls-9{opacity:0.1;}.cls-10{fill:#e0e0e0;}.cls-11{fill:url(#linear-gradient-4);}.cls-12{fill:url(#linear-gradient-5);}.cls-13{fill:url(#linear-gradient-6);}.cls-14{fill:url(#linear-gradient-7);}.cls-15{fill:#eee;}.cls-16{fill:url(#linear-gradient-8);}.cls-18{fill:url(#linear-gradient-9);}.cls-19{fill:none;}</style><linearGradient id="linear-gradient" x1="57.44" y1="25.99" x2="820.35" y2="788.9" gradientUnits="userSpaceOnUse"><stop offset="0" stop-color="#fe6a50"/><stop offset="1" stop-color="#e25576"/></linearGradient><linearGradient id="linear-gradient-2" x1="297.92" y1="126.5" x2="297.92" y2="152.74" gradientTransform="matrix(1, 0, 0, -1, 0, 814)" gradientUnits="userSpaceOnUse"><stop offset="0" stop-color="gray" stop-opacity="0.25"/><stop offset="0.54" stop-color="gray" stop-opacity="0.12"/><stop offset="1" stop-color="gray" stop-opacity="0.1"/></linearGradient><linearGradient id="linear-gradient-3" x1="745.28" y1="250" x2="745.28" y2="271.9" xlink:href="#linear-gradient-2"/><linearGradient id="linear-gradient-4" x1="470.12" y1="189.93" x2="470.12" y2="128.72" gradientTransform="matrix(1, 0, 0, -1, -32.41, 771.11)" gradientUnits="userSpaceOnUse"><stop offset="0" stop-color="#e0e0e0"/><stop offset="0.31" stop-color="#fccc63"/><stop offset="0.77" stop-color="#f55f44"/></linearGradient><linearGradient id="linear-gradient-5" x1="543.4" y1="189.93" x2="543.4" y2="128.72" xlink:href="#linear-gradient-4"/><linearGradient id="linear-gradient-6" x1="589.3" y1="189.93" x2="589.3" y2="128.72" xlink:href="#linear-gradient-4"/><linearGradient id="linear-gradient-7" x1="663.39" y1="189.93" x2="663.39" y2="128.72" xlink:href="#linear-gradient-4"/><linearGradient id="linear-gradient-8" x1="763.91" y1="397.93" x2="763.91" y2="463.19" gradientTransform="matrix(1, 0, 0, -1, -32.41, 771.11)" xlink:href="#linear-gradient-2"/><linearGradient id="linear-gradient-9" x1="350.33" y1="237.72" x2="350.33" y2="283.26" gradientTransform="matrix(1, 0, 0, -1, -32.41, 771.11)" xlink:href="#linear-gradient-2"/></defs><path class="cls-1" d="M976.09,698.19a133.91,133.91,0,0,1-26.33-.35c-96.11-10.63-227-7.61-333.66,58.49-147.55,91.41-378.77,13.16-480.77-29.41C57.39,694.41,16.93,614.77,41.23,540c.35-1.06.7-2.11,1.07-3.17,15.29-44.42,45.48-79.18,82.86-97.61,32.58-16.07,80.15-49.61,101.31-114,8.75-26.62,20.74-51.65,36.32-73.47,41.71-58.44,129-145.47,279.22-144.93a241.93,241.93,0,0,1,77.37,13.1c54.87,18.69,104.43,56.7,142.22,109.39,24.11,33.61,60.24,64.85,112,67.39,71.8,3.56,140.31,37,191.71,96.47,1.49,1.71,3,3.43,4.41,5.17C1161.21,507.33,1097.65,687.56,976.09,698.19Z"/><g class="cls-2"><circle class="cls-3" cx="297.92" cy="674.38" r="13.12"/></g><circle class="cls-4" cx="297.92" cy="674.38" r="12.53"/><circle class="cls-5" cx="227.26" cy="418.56" r="4.85"/><circle class="cls-5" cx="573.21" cy="699.88" r="4.85"/><circle class="cls-5" cx="368.87" cy="724.59" r="2.71"/><circle class="cls-5" cx="968.59" cy="593.43" r="2.71"/><circle class="cls-5" cx="813.67" cy="350.13" r="2.71"/><circle class="cls-5" cx="1033.22" cy="468.93" r="2.71"/><circle class="cls-5" cx="312.8" cy="259.84" r="4.85"/><polygon class="cls-5" points="179.58 587.8 175.26 587.8 175.26 583.48 173.5 583.48 173.5 587.8 169.19 587.8 169.19 589.55 173.5 589.55 173.5 593.86 175.26 593.86 175.26 589.55 179.58 589.55 179.58 587.8"/><polygon class="cls-5" points="287.93 585.9 283.61 585.9 283.61 581.58 281.85 581.58 281.85 585.9 277.54 585.9 277.54 587.65 281.85 587.65 281.85 591.96 283.61 591.96 283.61 587.65 287.93 587.65 287.93 585.9"/><polygon class="cls-5" points="442.84 673.33 438.53 673.33 438.53 669.02 436.77 669.02 436.77 673.33 432.46 673.33 432.46 675.09 436.77 675.09 436.77 679.4 438.53 679.4 438.53 675.09 442.84 675.09 442.84 673.33"/><polygon class="cls-5" points="658.62 149.18 656.65 149.18 656.65 147.21 655.85 147.21 655.85 149.18 653.88 149.18 653.88 149.98 655.85 149.98 655.85 151.94 656.65 151.94 656.65 149.98 658.62 149.98 658.62 149.18"/><polygon class="cls-5" points="938.99 329.76 937.02 329.76 937.02 327.79 936.23 327.79 936.23 329.76 934.26 329.76 934.26 330.56 936.23 330.56 936.23 332.52 937.02 332.52 937.02 330.56 938.99 330.56 938.99 329.76"/><polygon class="cls-5" points="773.62 447.61 771.65 447.61 771.65 445.64 770.85 445.64 770.85 447.61 768.89 447.61 768.89 448.41 770.85 448.41 770.85 450.38 771.65 450.38 771.65 448.41 773.62 448.41 773.62 447.61"/><polygon class="cls-5" points="100.72 521.74 98.75 521.74 98.75 519.77 97.95 519.77 97.95 521.74 95.99 521.74 95.99 522.54 97.95 522.54 97.95 524.51 98.75 524.51 98.75 522.54 100.72 522.54 100.72 521.74"/><polygon class="cls-5" points="181.51 683.31 179.54 683.31 179.54 681.35 178.74 681.35 178.74 683.31 176.77 683.31 176.77 684.11 178.74 684.11 178.74 686.08 179.54 686.08 179.54 684.11 181.51 684.11 181.51 683.31"/><polygon class="cls-5" points="435.27 172.94 433.3 172.94 433.3 170.97 432.5 170.97 432.5 172.94 430.54 172.94 430.54 173.74 432.5 173.74 432.5 175.7 433.3 175.7 433.3 173.74 435.27 173.74 435.27 172.94"/><polygon class="cls-5" points="315.52 457.11 313.55 457.11 313.55 455.15 312.75 455.15 312.75 457.11 310.78 457.11 310.78 457.91 312.75 457.91 312.75 459.88 313.55 459.88 313.55 457.91 315.52 457.91 315.52 457.11"/><polygon class="cls-5" points="341.18 375.38 339.21 375.38 339.21 373.41 338.41 373.41 338.41 375.38 336.44 375.38 336.44 376.18 338.41 376.18 338.41 378.14 339.21 378.14 339.21 376.18 341.18 376.18 341.18 375.38"/><g class="cls-2"><circle class="cls-6" cx="745.28" cy="553.05" r="10.95"/></g><circle class="cls-4" cx="745.28" cy="553.05" r="10.14"/><circle class="cls-4" cx="772.58" cy="624.44" r="11.34"/><g class="cls-7"><path d="M671,316.76a147.09,147.09,0,0,0-16.63-68.43c-5.22-9.93-10-16.09-13.65-19.88a9.74,9.74,0,0,0-11.15-2.15,10.21,10.21,0,0,0-3.91,2.52c-5,5.14-9.43,11.92-13.31,19.13a147.77,147.77,0,0,0-17.46,70.34V333h-9.43V161.91c0-35.85-8-71.21-23.76-102.58-7.46-14.86-14.26-24.1-19.48-29.77a13.49,13.49,0,0,0-20.29,0c-7.07,7.69-13.46,17.86-19,28.66C486.36,90.27,478,126.65,478,163.55V332.93h-8.15V317.51a147.78,147.78,0,0,0-17.46-70.29c-3.91-7.21-8.38-14-13.31-19.13a9.74,9.74,0,0,0-11.4-2.07l.34.18a10.24,10.24,0,0,0-3.18,2.22c-3.66,3.81-8.43,10-13.64,19.88a147.1,147.1,0,0,0-16.64,68.43V572.39h29.13l-3.22,21v62.86h23.82V593.4l-3.18-21h28.7V339.53h8.15V571.37h23.26l-3.34,22v62.86h23.82V593.4l-3.33-22.06H549.7l-3.36,22.06v62.86h23.82V593.4l-3.33-22.06H585.4V339.56h9.44v233.2h7.65v-.35h25.3l-3.18,21v62.86h23.82V593.4l-3.18-21H671Z"/></g><polygon class="cls-8" points="448.98 581.18 426.43 581.18 430.46 553.8 444.95 553.8 448.98 581.18"/><g class="cls-9"><polygon points="429.34 564.67 446.07 564.67 444.95 557.02 430.46 557.02 429.34 564.67"/></g><polygon class="cls-8" points="642.25 581.18 619.71 581.18 623.73 553.8 638.23 553.8 642.25 581.18"/><g class="cls-9"><polygon points="622.61 564.67 639.35 564.67 638.23 557.02 623.73 557.02 622.61 564.67"/></g><polygon class="cls-8" points="522.26 581.18 499.72 581.18 503.74 553.8 518.24 553.8 522.26 581.18"/><g class="cls-9"><polygon points="502.62 564.67 519.36 564.67 518.24 557.02 503.74 557.02 502.62 564.67"/></g><polygon class="cls-8" points="568.17 581.18 545.62 581.18 549.64 553.8 564.14 553.8 568.17 581.18"/><g class="cls-9"><polygon points="548.52 564.67 565.27 564.67 564.14 557.02 549.64 557.02 548.52 564.67"/></g><rect class="cls-8" x="448.98" y="327.51" width="161.06" height="6.44"/><path class="cls-10" d="M634.93,225.74a9.08,9.08,0,0,0-12.82-.63q-.33.3-.63.63c-4.69,5-8.93,11.61-12.63,18.63a147.19,147.19,0,0,0-16.52,68.43V560.71h71.28v-249a146.6,146.6,0,0,0-15.75-66.67C642.91,235.44,638.4,229.39,634.93,225.74Z"/><path class="cls-10" d="M430.53,225.74a9.08,9.08,0,0,1,12.82-.63q.33.3.63.63c4.7,5,8.93,11.61,12.64,18.63a147.19,147.19,0,0,1,16.52,68.43V560.71H401.86v-249a146.6,146.6,0,0,1,15.75-66.67C422.55,235.44,427.06,229.39,430.53,225.74Z"/><polygon class="cls-8" points="402.27 317.04 419.19 317.13 419.19 337.98 402.27 337.98 402.27 317.04"/><polygon class="cls-8" points="456.23 317.04 473.14 317.13 473.14 337.98 456.23 337.98 456.23 317.04"/><polygon class="cls-8" points="592.33 317.04 609.23 317.13 609.23 337.98 592.33 337.98 592.33 317.04"/><polygon class="cls-8" points="646.28 317.04 663.19 317.13 663.19 337.98 646.28 337.98 646.28 317.04"/><g class="cls-9"><path d="M456.62,244.05c-3.71-7-7.94-13.63-12.64-18.63a9,9,0,0,0-10.76-2,9.28,9.28,0,0,1,2.71,2c4.69,5,8.93,11.61,12.63,18.63a147,147,0,0,1,16.52,68.43V560.37h8.06V312.49A147.21,147.21,0,0,0,456.62,244.05Z"/></g><g class="cls-9"><path d="M615.3,244.73c3.69-7,7.93-13.63,12.62-18.63a9.57,9.57,0,0,1,3.12-2.22,9.07,9.07,0,0,0-10.36,2.22c-4.7,5-8.94,11.61-12.63,18.63a147.08,147.08,0,0,0-16.53,68.43V561.09h7.25V313.18A147.13,147.13,0,0,1,615.3,244.73Z"/></g><path class="cls-11" d="M438,642.39h-.62a11,11,0,0,1-11-11V581.18H449v50.24A11,11,0,0,1,438,642.39Z"/><path class="cls-12" d="M511.3,642.39h-.62a11,11,0,0,1-11-11V581.18h22.54v50.24A11,11,0,0,1,511.3,642.39Z"/><path class="cls-13" d="M557.2,642.39h-.64a11,11,0,0,1-10.94-11V581.18h22.55v50.24A11,11,0,0,1,557.2,642.39Z"/><path class="cls-14" d="M631.29,642.39h-.6a11,11,0,0,1-11-10.95V581.18h22.54v50.24A11,11,0,0,1,631.29,642.39Z"/><path class="cls-15" d="M541.68,31.36A12.55,12.55,0,0,0,524,29.83a13.82,13.82,0,0,0-1.53,1.53c-6.65,7.49-12.74,17.39-18.06,27.92-15.64,31.21-23.59,66.64-23.59,102.57V559.7h101.7V160.25c0-34.91-7.61-69.38-22.47-99.89C553.06,45.89,546.63,36.89,541.68,31.36Z"/><rect class="cls-8" x="504.48" y="75.56" width="53.07" height="24.32" rx="10.45"/><g class="cls-9"><rect x="481.37" y="175.45" width="100.66" height="3.91"/></g><path class="cls-16" d="M757.53,320.84h0a32.91,32.91,0,0,0-9.72-8.55h0a32.63,32.63,0,1,0-16.31,60.89,20.16,20.16,0,0,0,2.06-.07,32.62,32.62,0,0,0,24-52.21Z"/><path class="cls-4" d="M762.33,340.5a30.84,30.84,0,0,1-28.9,30.77c-.63,0-1.29.07-1.94.07a30.85,30.85,0,1,1,15.42-57.56h0a30.84,30.84,0,0,1,9.18,8.14h0A30.62,30.62,0,0,1,762.33,340.5Z"/><path class="cls-17" d="M723.89,320.93a32.55,32.55,0,0,0-4.6,2.42,7.24,7.24,0,0,0-2.46,2.21,2.85,2.85,0,0,0-.06,3.14c.75,1,2.2,1.18,3.47,1.26a9,9,0,0,0,4-.4,8.72,8.72,0,0,0,2.31-1.68l2.66-2.41c.95-.84,1.9-2,1.53-3.16a2.85,2.85,0,0,0-2.26-1.52,9.44,9.44,0,0,0-6.65,1.16"/><g class="cls-9"><circle cx="712.82" cy="352.67" r="1.63"/></g><g class="cls-9"><circle cx="745.82" cy="342.39" r="5.95"/></g><g class="cls-9"><path d="M756.15,321.92h0a8.12,8.12,0,1,1-9.19-8.14h0A30.88,30.88,0,0,1,756.15,321.92Z"/></g><g class="cls-9"><path d="M756.7,358.25a30.75,30.75,0,0,1-23.26,13c0-.43-.06-.85-.06-1.29a14.62,14.62,0,0,1,23.32-11.73Z"/></g><path class="cls-18" d="M336.23,496.91h0a22.85,22.85,0,0,0-6.79-6h0A22.81,22.81,0,1,0,318,533.39a14.05,14.05,0,0,0,1.45,0,22.81,22.81,0,0,0,16.73-36.43Z"/><path class="cls-4" d="M339.57,510.62a21.51,21.51,0,0,1-20.16,21.47h-1.36a21.52,21.52,0,1,1,10.76-40.15h0a21.46,21.46,0,0,1,6.41,5.7h0A21.42,21.42,0,0,1,339.57,510.62Z"/><path class="cls-17" d="M312.75,497a22.73,22.73,0,0,0-3.2,1.69,5.18,5.18,0,0,0-1.72,1.54,2,2,0,0,0,0,2.19,3.09,3.09,0,0,0,2.41.88A6.25,6.25,0,0,0,313,503a6.07,6.07,0,0,0,1.62-1.18l1.85-1.67c.64-.59,1.35-1.39,1.06-2.21a1.91,1.91,0,0,0-1.57-1.06,6.53,6.53,0,0,0-4.63.82"/><g class="cls-9"><circle cx="305.02" cy="519.11" r="1.13"/></g><g class="cls-9"><circle cx="328.05" cy="511.94" r="4.15"/></g><g class="cls-9"><path d="M335.23,497.66h0a5.71,5.71,0,1,1-6.42-5.7h0A21.62,21.62,0,0,1,335.23,497.66Z"/></g><g class="cls-9"><path d="M335.65,523a21.48,21.48,0,0,1-16.24,9.08v-1A10.19,10.19,0,0,1,335.68,523Z"/></g><polyline class="cls-19" points="830.38 537.62 851.1 548.65 834.92 566.75"/><circle class="cls-5" cx="941.78" cy="431.95" r="1.75"/></svg>
