<svg width="258" height="297" viewBox="0 0 258 297" fill="none" xmlns="http://www.w3.org/2000/svg">
<path fill-rule="evenodd" clip-rule="evenodd" d="M128.112 5.01218C164.649 5.65931 192.089 34.0488 215.018 62.5034C238.146 91.2051 261.57 124.461 253.312 160.385C245.065 196.266 209.22 215.38 176.156 231.574C142.703 247.958 105.887 263.668 71.4567 249.454C35.0967 234.442 10.4001 198.981 3.43512 160.265C-3.17343 123.531 13.8874 88.4568 37.2577 59.355C60.5046 30.4069 90.9904 4.35472 128.112 5.01218Z" fill="#F9F4F0" stroke="url(#paint0_linear)" stroke-width="4"/>
<g clip-path="url(#clip0)">
<path d="M166.396 6.89908C168.582 4.78843 172.226 1.36333 177.96 0.465742C179.214 0.270451 186.446 -0.863739 190.842 3.42515C192.661 5.20155 194.554 8.45014 193.761 18.5339C192.728 31.6973 191.672 45.1461 180.762 52.7774C174.432 57.2053 163.33 60.683 157.319 55.9772C149.388 49.7692 154.58 32.6587 157.597 22.7101C160.08 14.5117 163.086 10.0951 166.396 6.89908Z" fill="url(#paint1_linear)"/>
<path d="M163.856 122.511C163.044 120.656 161.763 119.296 161.763 119.296C159.858 117.283 157.604 116.521 156.59 116.194C141.528 111.323 128.007 109.558 128.007 109.558C124.261 109.07 119.67 108.495 114.407 107.887V95.9554H67.0692C67.3885 102.614 67.8732 112.544 68.5081 124.637C69.1806 137.485 69.5751 144.219 70.0334 152.691C70.612 163.361 71.3859 178.579 72.1861 197.42C67.3058 208.124 67.3397 213.566 68.4179 216.574C68.6847 217.321 69.4398 219.101 69.0791 221.34C68.6621 223.901 67.2044 224.431 65.2508 227.799C64.0335 229.899 62.4782 232.58 62.527 235.953C62.5495 237.365 62.9703 239.04 63.8156 242.39C64.4618 244.944 64.8037 245.616 64.7737 246.934C64.7136 249.364 63.6578 251.283 62.8576 252.436C72.5355 252.436 82.2097 252.436 91.8876 252.436C94.9533 225.771 97.1549 207.613 98.545 197.755C98.8004 195.952 99.4842 191.186 99.8787 184.753C100.044 182.041 100.303 176.716 100.044 168.247C99.8336 161.374 99.4429 157.543 98.0415 142.074C97.7485 138.844 97.2976 133.812 96.7341 127.472C103.395 128.64 110.398 130.075 117.698 131.836C126.335 133.921 134.409 136.23 141.893 138.634C141.371 143.475 140.071 146.904 138.944 149.184C138.046 151.001 137.035 152.541 137.336 154.648C137.535 156.034 138.38 157.232 140.067 159.628C142.047 162.437 142.55 162.475 143.283 164.127C143.519 164.664 144.286 166.512 144.248 168.949C144.226 170.463 143.91 170.925 143.121 173.929C142.201 177.441 141.739 179.198 141.836 180.839C141.912 182.135 142.291 184.111 143.861 186.465C153.581 186.465 163.3 186.465 173.019 186.465C168.995 151.452 165.362 125.97 163.856 122.511Z" fill="url(#paint2_linear)"/>
<path d="M62.8502 252.436C62.3242 253.893 61.7757 255.876 61.5766 258.272C61.3286 261.217 61.6968 263.673 62.0913 265.37C76.6345 265.37 91.1739 265.37 105.717 265.37C104.962 264.518 104.008 263.624 102.824 262.805C98.2933 259.677 93.3417 259.733 91.1739 259.899C91.4106 257.412 91.6435 254.926 91.8802 252.44C82.2023 252.436 72.5281 252.436 62.8502 252.436Z" fill="#F9F4F0" stroke="#13233D" stroke-miterlimit="10"/>
<path d="M143.857 186.465C144.425 187.446 145.022 188.696 145.477 190.206C146.371 193.188 146.281 195.802 146.078 197.462C160.174 197.462 174.27 197.462 188.366 197.462C187.611 196.609 186.657 195.715 185.473 194.897C180.942 191.768 175.991 191.825 173.823 191.99C173.556 190.15 173.286 188.306 173.015 186.465C163.3 186.465 153.58 186.465 143.857 186.465Z" fill="#F9F4F0" stroke="#13233D" stroke-miterlimit="10"/>
<path d="M136.622 55.1735C125.866 56.5405 115.113 57.9038 104.357 59.2708H92.7893C98.9094 55.4739 105.029 51.677 111.15 47.8801C108.136 42.7537 105.123 37.6273 102.114 32.4972C91.8764 41.289 81.6387 50.0809 71.4047 58.8727C70.5068 59.7365 69.1881 61.2237 68.2151 63.4095C67.4862 65.0507 67.1894 66.5417 67.0654 67.6195V95.9592H114.403V77.2076C122.394 76.1447 130.385 75.0781 138.38 74.0153C137.79 67.7322 137.208 61.4528 136.622 55.1735Z" fill="#F9F4F0" stroke="#13233D" stroke-miterlimit="10"/>
<path d="M102.114 32.4971C105.127 37.6235 108.14 42.7499 111.149 47.88C116.432 44.4287 121.714 40.9735 126.996 37.5221C131.647 35.8396 135.502 34.6716 138.199 33.9092C142.415 32.7149 146.446 30.8559 150.729 29.9358C152.412 29.5753 154.557 29.1847 156.056 27.3782C157.33 25.8422 157.574 23.9607 157.597 22.71C159.163 20.5055 160.771 19.5591 161.932 19.0972C164.13 18.2296 165.475 18.8117 167.474 17.4109C168.131 16.949 169.345 16.0701 169.641 14.5191C169.886 13.2535 169.393 12.1869 169.16 11.7512C167.549 11.5522 165.422 11.5259 163.074 12.1718C162.533 12.3221 162.026 12.4911 161.556 12.6788C163.168 10.756 164.78 8.82936 166.395 6.90649C161.868 7.76277 155.515 9.07723 147.986 11.0189C136.892 13.8806 129.994 15.6721 121.92 19.5366C116.815 21.9739 109.744 25.9699 102.114 32.4971Z" fill="#F9F4F0" stroke="#13233D" stroke-miterlimit="10"/>
<path d="M136.622 55.1734C137.208 61.4528 137.794 67.7322 138.38 74.0153C141.119 73.6773 144.068 73.174 147.182 72.4454C153.697 70.9207 159.261 68.795 163.792 66.6693C168.041 63.8564 172.328 60.9533 176.648 57.9601C183.7 53.0741 190.493 48.188 197.033 43.3245C197.161 43.2081 198.345 42.1152 198.146 40.5754C198.052 39.8732 197.71 39.3699 197.503 39.1145C197.668 38.9117 198.66 37.6273 198.345 35.9335C198.157 34.9158 197.586 34.2473 197.315 33.9694C197.597 33.4886 198.273 32.1854 198.157 30.4166C198.037 28.5388 197.097 27.2844 196.752 26.8638C196.988 26.1915 197.349 24.8433 197.033 23.2171C196.47 20.3328 194.216 18.8305 193.757 18.5414C193.851 18.9545 193.983 19.807 193.663 20.7872C193.536 21.1816 193.194 22.1805 192.168 22.8453C191.364 23.3673 190.556 23.4086 190.203 23.4049C190.376 21.7862 190.402 20.4417 190.391 19.4765C190.369 17.5499 190.192 17.0504 189.831 16.6711C189.178 15.9913 187.949 15.7209 187.213 16.2016C186.901 16.4082 186.664 16.7537 186.371 18.3536C186.12 19.7319 186.15 20.2539 185.996 21.6285C185.781 23.5588 185.443 24.9935 185.248 25.7446C185.071 26.4169 184.902 26.9652 184.778 27.3332C184.053 27.9717 182.956 28.9218 181.596 30.0448C177.726 33.2445 175.679 34.589 168.777 39.584C162.188 44.3536 160.388 45.7807 158.393 47.5346C156.368 49.311 154.775 50.8658 153.716 51.9286C151.146 52.0375 148.178 52.3305 144.921 52.9576C141.772 53.5585 138.988 54.3547 136.622 55.1734Z" fill="#F9F4F0" stroke="#13233D" stroke-miterlimit="10"/>
<path d="M119.693 197.462H208" stroke="#13233D" stroke-miterlimit="10"/>
<path d="M137.948 197.462V232.392" stroke="#13233D" stroke-miterlimit="10"/>
<path d="M108.58 232.392H186.766" stroke="#13233D" stroke-miterlimit="10"/>
<path d="M46 265.37H142.238" stroke="#13233D" stroke-miterlimit="10"/>
<path d="M96.0005 40.7069C96.0005 36.6171 92.6832 33.3009 88.5918 33.3009C84.5005 33.3009 81.1831 36.6171 81.1831 40.7069C81.1831 43.9968 83.3283 46.7797 86.2963 47.7487C86.0446 51.677 85.7929 55.6054 85.5412 59.53H94.4527C93.9793 55.2298 93.5097 50.9259 93.0363 46.6258C94.8321 45.2737 96.0005 43.1293 96.0005 40.7069Z" fill="#F9F4F0" stroke="#13233D" stroke-miterlimit="10"/>
<path d="M94.1143 36.7034C94.8919 36.7635 95.6659 36.8273 96.4436 36.8874C96.0228 37.2442 95.6058 37.6009 95.185 37.9577" fill="#F9F4F0"/>
<path d="M94.1143 36.7034C94.8919 36.7635 95.6659 36.8273 96.4436 36.8874C96.0228 37.2442 95.6058 37.6009 95.185 37.9577" stroke="#13233D" stroke-width="0.75" stroke-miterlimit="10" stroke-linecap="round" stroke-linejoin="round"/>
<path d="M92.8776 37.1905C92.8723 37.1923 92.867 37.1939 92.8618 37.1953C92.8668 37.1933 92.872 37.1914 92.8773 37.1896C92.8826 37.1878 92.8878 37.1862 92.893 37.1847C92.888 37.1868 92.8829 37.1887 92.8776 37.1905Z" fill="#13233D" stroke="#13233D"/>
<path d="M90.4438 35.8434C90.2935 36.403 90.2447 36.8386 90.1658 37.571C90.1245 37.9578 90.0794 38.4761 90.0531 39.0882C88.8772 38.3221 87.4119 38.4348 86.5817 39.2572C85.3569 40.4703 86.2849 42.4645 86.3562 42.6147C87.194 44.3423 89.1627 44.609 89.3242 44.6277C89.2529 44.7629 89.1702 44.9132 89.0763 45.0784C89.0763 45.0784 88.9899 45.2286 88.8509 45.4502C88.8509 45.4502 88.6029 45.8446 88.3174 46.2464C88.0356 46.6407 87.3067 47.5458 86.236 48.6725C85.7852 48.5937 82.4866 47.9514 80.6494 44.7442C78.8085 41.5256 79.9394 38.3446 80.1009 37.9202C79.5637 38.2094 78.91 38.1456 78.4516 37.7625C77.9594 37.3494 77.7941 36.6433 78.0609 36.0349C78.1623 35.9936 78.8461 35.742 79.5524 36.1138C80.1648 36.4368 80.3752 37.0076 80.4165 37.1353C81.3369 35.1974 82.5392 34.2247 83.2417 33.7628C84.7445 32.7713 86.5253 32.4145 87.2429 32.2718C88.5616 32.0089 89.2491 32.0803 90.3837 31.5658C91.2891 31.1564 91.9391 30.6194 92.3448 30.2325C92.4801 30.4015 93.1225 31.2315 92.9722 32.3507C92.8295 33.4361 91.9954 34.3637 90.8533 34.7055C90.7293 34.9721 90.5753 35.3589 90.4438 35.8434Z" fill="url(#paint3_linear)"/>
<path d="M87.7021 41.5594C88.0703 41.5481 88.4423 41.5331 88.8105 41.5219C88.7842 41.2026 88.7616 40.8796 88.7353 40.5604" fill="#F9F4F0"/>
<path d="M87.7021 41.5594C88.0703 41.5481 88.4423 41.5331 88.8105 41.5219C88.7842 41.2026 88.7616 40.8796 88.7353 40.5604" stroke="#13233D" stroke-miterlimit="10" stroke-linecap="round"/>
<path d="M89.1825 42.2241L88.8105 41.5219" stroke="#13233D" stroke-miterlimit="10" stroke-linecap="round"/>
</g>
<defs>
<linearGradient id="paint0_linear" x1="-71.8976" y1="342.963" x2="346.831" y2="311.787" gradientUnits="userSpaceOnUse">
<stop stop-color="#FEA450"/>
<stop offset="1" stop-color="#E25576"/>
</linearGradient>
<linearGradient id="paint1_linear" x1="141.195" y1="78.6442" x2="208.958" y2="75.1374" gradientUnits="userSpaceOnUse">
<stop stop-color="#FEA450"/>
<stop offset="1" stop-color="#E25576"/>
</linearGradient>
<linearGradient id="paint2_linear" x1="30.2531" y1="307.494" x2="213.64" y2="297.967" gradientUnits="userSpaceOnUse">
<stop stop-color="#FEA450"/>
<stop offset="1" stop-color="#E25576"/>
</linearGradient>
<linearGradient id="paint3_linear" x1="73.5351" y1="55.1607" x2="98.509" y2="53.6601" gradientUnits="userSpaceOnUse">
<stop stop-color="#FEA450"/>
<stop offset="1" stop-color="#E25576"/>
</linearGradient>
<clipPath id="clip0">
<rect width="162" height="297" fill="white" transform="translate(46)"/>
</clipPath>
</defs>
</svg>
