<svg width="338" height="341" viewBox="0 0 338 341" fill="none" xmlns="http://www.w3.org/2000/svg">
<path fill-rule="evenodd" clip-rule="evenodd" d="M88.2044 74.9325C119.029 50.293 161.271 58.6149 197.646 68.1275C229.694 76.5089 256.341 94.7967 272.218 123.055C289.623 154.033 302.103 191.273 285.89 225.19C269.429 259.628 231.5 279.173 194.151 286.372C160.336 292.89 128.668 280.366 102.673 260.505C77.0009 240.89 58.9009 213.904 56.3416 181.079C53.3981 143.327 57.1186 99.781 88.2044 74.9325Z" fill="#F9F4F0" stroke="url(#paint0_linear)" stroke-width="4"/>
<path fill-rule="evenodd" clip-rule="evenodd" d="M265.786 146.327C261.751 139.325 257.471 131.899 255.291 122.841C255.202 122.471 255.113 122.1 255.024 121.729C250.387 102.442 245.576 82.4308 229.797 70.4622C213.983 58.4669 195.631 58.6149 173.359 60.6927C150.605 62.8155 135.128 65.6436 118.659 81.4898C100.687 98.7831 88.9129 117.291 96.002 141.205C100.522 156.452 111.576 162.127 124.154 168.584C129.804 171.485 135.761 174.543 141.571 178.697C148.096 183.362 153.64 188.209 158.888 192.796C171.94 204.206 183.157 214.012 203.055 215.427C233.433 217.586 264.077 211.017 273.545 182.069C278.193 167.857 272.308 157.645 265.786 146.327ZM160.338 72.6205C159.716 71.7613 158.36 72.3336 158.542 73.3784L160.487 84.5398C160.595 85.1654 160.101 85.7329 159.467 85.7109L149.769 85.3746C148.736 85.3388 148.334 86.7041 149.223 87.2333L159.52 93.3649C160.106 93.7136 160.179 94.5329 159.664 94.9795L153.422 100.396C152.578 101.128 153.388 102.483 154.433 102.086L164.407 98.2941C165.057 98.0469 165.755 98.5229 165.762 99.2187L165.872 110.081C165.883 111.169 167.377 111.459 167.795 110.454L171.958 100.435C172.19 99.8774 172.859 99.6508 173.382 99.953L180.741 104.208C181.597 104.703 182.576 103.787 182.139 102.9L178.318 95.1405C178.086 94.6701 178.257 94.1005 178.71 93.8356L188.065 88.3593C188.975 87.8271 188.549 86.4322 187.498 86.4982L174.607 87.3066C173.917 87.3499 173.392 86.696 173.584 86.0314L176.473 76.0138C176.767 74.9972 175.487 74.281 174.774 75.0629L168.538 81.9015C168.111 82.3702 167.361 82.3278 166.989 81.814L160.338 72.6205ZM230.325 183.408C231.297 182.986 231.03 181.539 229.971 181.491L221.181 181.1C220.547 181.072 220.099 180.467 220.257 179.852L222.12 172.606C222.377 171.604 221.13 170.918 220.422 171.672L213.989 178.524C213.523 179.02 212.707 178.915 212.381 178.317L209.529 173.067C208.996 172.085 207.498 172.585 207.661 173.69L208.83 181.618C208.931 182.306 208.316 182.885 207.635 182.742L199.523 181.04C198.459 180.817 197.853 182.214 198.745 182.838L205.562 187.611C206.057 187.958 206.134 188.66 205.726 189.105L201.295 193.948C200.628 194.677 201.311 195.83 202.272 195.594L208.798 193.992C209.307 193.867 209.827 194.157 209.988 194.656L212.585 202.694C212.909 203.697 214.363 203.581 214.525 202.54L216.083 192.521C216.189 191.838 216.941 191.466 217.549 191.796L224.585 195.621C225.515 196.126 226.49 195.03 225.88 194.165L221.82 188.411C221.454 187.893 221.657 187.17 222.239 186.917L230.325 183.408ZM237.414 105.326C238.267 104.696 239.384 105.655 238.893 106.594L230.139 123.329C229.845 123.891 230.141 124.581 230.751 124.755L245.987 129.085C247.005 129.375 246.935 130.84 245.894 131.031L228.567 134.212C227.887 134.337 227.536 135.099 227.883 135.697L238.501 154.028C239.029 154.94 237.97 155.943 237.088 155.367L222.051 145.539C221.612 145.252 221.026 145.353 220.709 145.77L211.992 157.22C211.393 158.007 210.137 157.54 210.198 156.553L211.078 142.309C211.116 141.707 210.614 141.209 210.012 141.25L191.683 142.509C190.598 142.584 190.191 141.116 191.16 140.621L207.651 132.19C208.271 131.874 208.385 131.037 207.874 130.565L194.219 117.967C193.398 117.209 194.249 115.879 195.281 116.308L209.203 122.092C209.832 122.354 210.533 121.923 210.584 121.243L212.051 101.614C212.128 100.583 213.529 100.333 213.958 101.274L220.727 116.122C220.99 116.699 221.718 116.889 222.229 116.512L237.414 105.326Z" fill="url(#paint1_linear)"/>
<path d="M66.9644 248.975C72.0414 250.439 79.4563 253.113 87.3961 258.228C91.0217 260.563 94.5701 263.513 101.661 269.409C111.768 277.813 113.658 280.123 119.779 284.444C125.273 288.323 130.11 290.951 133.272 292.539C141.65 286.149 147.2 279.935 150.618 275.577C153.092 272.426 155.439 269.393 157.558 264.782C159.451 260.662 159.577 258.719 161.514 253.54C162.607 250.615 164.407 246.318 167.292 241.262C168.061 241.176 169.173 240.969 170.386 240.419C173.394 239.054 175.389 236.311 177.881 229.949C180.025 224.476 179.46 224.173 182.455 213.579C184.231 207.294 185.167 204.796 184.141 201.302C183.811 200.178 182.909 197.266 180.049 195.283C176.35 192.719 172.156 193.652 171.384 193.837C171.708 193 172.181 191.413 171.866 189.504C171.52 187.422 170.417 186.082 169.271 184.695C168.123 183.302 166.943 181.872 164.818 181.023C162.53 180.105 160.417 180.374 159.346 180.6C159.451 179.584 159.602 176.813 157.901 174.101C156.094 171.217 153.327 170.207 152.122 169.768C149.797 168.919 147.746 168.946 146.585 169.045C153.475 158.618 158.978 149.887 162.953 143.527C163.499 142.656 165.772 138.947 167.045 133.656C168.302 128.424 167.511 126.083 167.286 125.472C167.184 125.197 165.297 120.292 161.029 119.452C159.222 119.097 157.193 119.508 153.327 122.099C147.391 126.077 143.84 130.682 141.051 134.376C134.328 143.28 131.181 147.858 131.181 147.858C126.345 154.893 121.987 161.277 118.183 166.874C110.475 167.847 104.7 170.16 101.092 171.93C97.6954 173.595 94.357 175.272 90.9816 178.669C86.4017 183.287 84.5796 188.244 83.2795 191.91C81.1239 197.976 80.8491 202.735 80.392 211.89C80.1851 216.023 80.0646 221.61 80.392 228.259C75.9171 235.166 71.4392 242.069 66.9644 248.975Z" fill="#F9F4F0" stroke="black" stroke-miterlimit="10"/>
<path d="M145.993 132.767C146.237 133.456 146.91 135.059 148.559 136.309C150.909 138.098 153.516 137.86 154.18 137.777C156.82 137.446 158.454 135.818 159.677 134.598C162.49 131.797 163.463 128.477 163.83 126.655" stroke="black" stroke-miterlimit="10" stroke-linecap="round"/>
<path d="M144.689 169.997C142.305 173.237 139.921 176.476 137.537 179.716" stroke="black" stroke-miterlimit="10" stroke-linecap="round"/>
<path d="M154.043 188.519C155.387 186.502 156.733 184.485 158.077 182.465" stroke="black" stroke-miterlimit="10" stroke-linecap="round"/>
<path d="M174.583 217.314C172.687 224.161 170.794 231.008 168.898 237.856" stroke="black" stroke-miterlimit="10" stroke-linecap="round"/>
<path d="M115.166 169.997C113.504 174.151 111.256 178.907 108.196 183.935C104.406 190.162 100.379 195.144 96.8247 198.974" stroke="black" stroke-miterlimit="10" stroke-linecap="round"/>
<defs>
<linearGradient id="paint0_linear" x1="166.685" y1="447.554" x2="437.855" y2="193.816" gradientUnits="userSpaceOnUse">
<stop stop-color="#FEA450"/>
<stop offset="1" stop-color="#E25576"/>
</linearGradient>
<linearGradient id="paint1_linear" x1="40.9567" y1="270.758" x2="340.491" y2="245.179" gradientUnits="userSpaceOnUse">
<stop stop-color="#FEA450"/>
<stop offset="1" stop-color="#E25576"/>
</linearGradient>
</defs>
</svg>
