<svg id="f1a3512c-954b-43cd-b4a7-b2a657bfa049" xmlns="http://www.w3.org/2000/svg" xmlns:xlink="http://www.w3.org/1999/xlink" viewBox="0 0 224.79 750.47"><defs><style>.cls-1{fill:url(#linear-gradient);}.cls-2{opacity:0.7;}.cls-3{fill:url(#linear-gradient-2);}.cls-4{opacity:0.2;}.cls-4,.cls-8{isolation:isolate;}.cls-5{fill:#fff;}.cls-6{fill:url(#linear-gradient-3);}.cls-7{fill:url(#linear-gradient-4);}.cls-8,.cls-9{opacity:0.1;}.cls-10{fill:none;}.cls-11{opacity:0.1;}.cls-12{fill:#6c63ff;}.cls-13{fill:#e0e0e0;}.cls-14{fill:url(#linear-gradient-5);}.cls-15{fill:url(#linear-gradient-6);}.cls-16{fill:#eee;}</style><linearGradient id="linear-gradient" x1="174.12" y1="20.56" x2="258.43" y2="476.36" gradientUnits="userSpaceOnUse"><stop offset="0" stop-color="#fe6a50"/><stop offset="1" stop-color="#e25576"/></linearGradient><linearGradient id="linear-gradient-2" x1="-301.02" y1="-1094.93" x2="-301.02" y2="-1077.36" gradientTransform="translate(1188.99 257.57) rotate(-90)" gradientUnits="userSpaceOnUse"><stop offset="0" stop-color="gray" stop-opacity="0.25"/><stop offset="0.54" stop-color="gray" stop-opacity="0.12"/><stop offset="1" stop-color="gray" stop-opacity="0.1"/></linearGradient><linearGradient id="linear-gradient-3" x1="-1.37" y1="-1012.21" x2="-1.37" y2="-997.54" xlink:href="#linear-gradient-2"/><linearGradient id="linear-gradient-4" x1="-255.22" y1="-1034.6" x2="-255.22" y2="-1004.1" gradientTransform="translate(1231.88 289.98) rotate(-90)" xlink:href="#linear-gradient-2"/><linearGradient id="linear-gradient-5" x1="161.84" y1="388.2" x2="161.84" y2="326.99" gradientTransform="matrix(1, 0, 0, -1, -32.41, 991.28)" gradientUnits="userSpaceOnUse"><stop offset="0" stop-color="#e0e0e0"/><stop offset="0.31" stop-color="#fccc63"/><stop offset="0.77" stop-color="#f55f44"/></linearGradient><linearGradient id="linear-gradient-6" x1="235.12" y1="388.2" x2="235.12" y2="326.99" xlink:href="#linear-gradient-5"/></defs><path class="cls-1" d="M287.76,41.64c1.16,1,2.32,2,3.46,3C331.07,79,353.46,124.92,355.84,173c1.7,34.65,22.63,58.85,45.14,75,35.29,25.32,60.75,58.51,73.27,95.26A162.08,162.08,0,0,1,483,395.1c.36,100.59-57.93,159.09-97.08,187-14.62,10.43-31.38,18.46-49.21,24.32-43.17,14.18-65.63,46-76.39,67.86-12.35,25-35.63,45.26-65.39,55.5-.71.25-1.41.49-2.12.72-50.07,16.28-103.41-10.83-125.19-63-28.51-68.32-80.92-223.2-19.7-322C92.22,274,94.25,186.35,87.13,122a88.87,88.87,0,0,1-.23-17.64C94,22.92,214.73-19.66,287.76,41.64Z"/><g class="cls-2"><circle class="cls-3" cx="102.84" cy="558.59" r="8.79"/></g><circle class="cls-4" cx="102.84" cy="558.59" r="8.39"/><circle class="cls-5" cx="85.76" cy="374.2" r="3.25"/><circle class="cls-5" cx="69.21" cy="511.07" r="1.81"/><circle class="cls-5" cx="157.06" cy="109.37" r="1.81"/><polygon class="cls-5" points="159.66 637.86 159.66 640.75 156.78 640.75 156.78 641.93 159.66 641.93 159.66 644.82 160.84 644.82 160.84 641.93 163.73 641.93 163.73 640.75 160.84 640.75 160.84 637.86 159.66 637.86"/><polygon class="cls-5" points="160.93 565.29 160.93 568.18 158.05 568.18 158.05 569.36 160.93 569.36 160.93 572.25 162.11 572.25 162.11 569.36 165 569.36 165 568.18 162.11 568.18 162.11 565.29 160.93 565.29"/><polygon class="cls-5" points="102.37 461.52 102.37 464.41 99.48 464.41 99.48 465.59 102.37 465.59 102.37 468.48 103.54 468.48 103.54 465.59 106.43 465.59 106.43 464.41 103.54 464.41 103.54 461.52 102.37 461.52"/><polygon class="cls-5" points="204.55 690.68 204.55 692 203.23 692 203.23 692.53 204.55 692.53 204.55 693.85 205.08 693.85 205.08 692.53 206.4 692.53 206.4 692 205.08 692 205.08 690.68 204.55 690.68"/><polygon class="cls-5" points="96.32 636.57 96.32 637.89 95.01 637.89 95.01 638.42 96.32 638.42 96.32 639.74 96.86 639.74 96.86 638.42 98.18 638.42 98.18 637.89 96.86 637.89 96.86 636.57 96.32 636.57"/><g class="cls-2"><circle class="cls-6" cx="184.11" cy="258.94" r="7.33"/></g><circle class="cls-4" cx="184.11" cy="258.94" r="6.79"/><circle class="cls-4" cx="136.3" cy="240.66" r="7.59"/><path class="cls-7" d="M221.72,533a15.27,15.27,0,0,0-24.4,11.2,8,8,0,0,0,0,1,15.28,15.28,0,1,0,28.46-7.64h0a15.2,15.2,0,0,0-4-4.54h0Z"/><path class="cls-4" d="M221.23,533.61h0a14.52,14.52,0,0,1,3.82,4.29h0a14.41,14.41,0,1,1-26.9,7.21v-.91a14.41,14.41,0,0,1,23.08-10.59Z"/><path class="cls-8" d="M221.2,549.6a4.37,4.37,0,0,0,.54-3.1,1.24,1.24,0,0,0-.71-1c-.55-.2-1.08.28-1.48.71l-1.12,1.23a3.07,3.07,0,0,0-1,3A2.07,2.07,0,0,0,218,552a1.35,1.35,0,0,0,1.47,0,3.68,3.68,0,0,0,1-1.15,15.15,15.15,0,0,0,1.12-2.15"/><g class="cls-9"><circle cx="206.85" cy="553.84" r="0.76"/></g><g class="cls-9"><circle cx="211.65" cy="538.41" r="2.78"/></g><g class="cls-9"><path d="M225,537.9h0a3.82,3.82,0,1,1-3.82-4.3h0A14.55,14.55,0,0,1,225,537.9Z"/></g><g class="cls-9"><path d="M204.27,533.3a6.84,6.84,0,0,1-5.48,10.9h-.64a14.39,14.39,0,0,1,6.09-10.88Z"/></g><polyline class="cls-10" points="174.94 198.9 187.06 188.06 194.44 201.94"/><g class="cls-11"><path d="M362.7,338.65a147.12,147.12,0,0,0-16.63-68.43c-5.22-9.92-10-16.08-13.65-19.87a9.74,9.74,0,0,0-11.16-2.15,10.21,10.21,0,0,0-3.91,2.52c-5,5.13-9.42,11.92-13.3,19.13a147.7,147.7,0,0,0-17.46,70.33V354.9h-9.44V183.81c0-35.85-8-71.21-23.76-102.58-7.45-14.86-14.26-24.1-19.47-29.78a13.5,13.5,0,0,0-19-1.24,14.63,14.63,0,0,0-1.25,1.24c-7.07,7.69-13.45,17.86-19,28.67-16.53,32.05-24.92,68.43-24.92,105.32V354.83h-8.16V339.4a147.54,147.54,0,0,0-17.46-70.28c-3.9-7.21-8.38-14-13.3-19.13a9.76,9.76,0,0,0-11.41-2.07l.34.18a10.19,10.19,0,0,0-3.18,2.22c-3.66,3.8-8.42,9.95-13.64,19.87a147.12,147.12,0,0,0-16.63,68.43V594.29h29.12l-3.21,21v62.85H136V615.3l-3.18-21h28.7V361.42h8.16V593.27h23.25l-3.33,22v62.85H213.4V615.3l-3.34-22.06h31.36l-3.35,22.06v62.85h23.82V615.3l-3.34-22.06h18.57V361.45h9.44V594.66h7.65v-.35h25.3l-3.17,21v62.85h23.81V615.3l-3.18-21H362.7Z"/></g><polygon class="cls-12" points="140.71 603.08 118.16 603.08 122.19 575.7 136.68 575.7 140.71 603.08"/><g class="cls-9"><polygon points="121.06 586.57 137.8 586.57 136.68 578.92 122.19 578.92 121.06 586.57"/></g><polygon class="cls-12" points="213.99 603.08 191.44 603.08 195.46 575.7 209.97 575.7 213.99 603.08"/><g class="cls-9"><polygon points="194.34 586.57 211.09 586.57 209.97 578.92 195.46 578.92 194.34 586.57"/></g><rect class="cls-12" x="140.71" y="349.41" width="161.06" height="6.44"/><path class="cls-13" d="M122.25,247.64a9.08,9.08,0,0,1,12.82-.64c.22.2.44.42.64.64,4.69,5,8.92,11.61,12.63,18.63a147.33,147.33,0,0,1,16.53,68.43V582.61H93.59v-249A146.58,146.58,0,0,1,109.33,267C114.28,257.33,118.78,251.29,122.25,247.64Z"/><polygon class="cls-12" points="94 338.94 110.91 339.02 110.91 359.88 94 359.88 94 338.94"/><polygon class="cls-12" points="147.95 338.94 164.87 339.02 164.87 359.88 147.95 359.88 147.95 338.94"/><g class="cls-9"><path d="M148.34,266c-3.71-7-7.94-13.63-12.63-18.63a9.05,9.05,0,0,0-10.77-2,9.67,9.67,0,0,1,2.72,2c4.68,5,8.92,11.6,12.62,18.63a147,147,0,0,1,16.53,68.43V582.26h8.06V334.39A147.22,147.22,0,0,0,148.34,266Z"/></g><path class="cls-14" d="M129.74,664.29h-.62a11,11,0,0,1-11-11V603.08h22.56v50.24A11,11,0,0,1,129.74,664.29Z"/><path class="cls-15" d="M203,664.29h-.63a11,11,0,0,1-11-11V603.08H214v50.24A11,11,0,0,1,203,664.29Z"/><path class="cls-16" d="M233.4,53.26a12.54,12.54,0,0,0-17.67-1.53,12.37,12.37,0,0,0-1.54,1.53c-6.65,7.49-12.73,17.38-18.05,27.91-15.65,31.22-23.59,66.65-23.59,102.57V581.6H274.24V182.15c0-34.91-7.6-69.38-22.47-99.89C244.79,67.78,238.35,58.78,233.4,53.26Z"/><rect class="cls-12" x="196.2" y="97.45" width="53.07" height="24.32" rx="10.45"/><g class="cls-9"><rect x="173.1" y="197.34" width="100.66" height="3.91"/></g></svg>